<?xml version="1.0" encoding="utf-8" standalone="no"?>
<!DOCTYPE svg PUBLIC "-//W3C//DTD SVG 1.1//EN"
  "http://www.w3.org/Graphics/SVG/1.1/DTD/svg11.dtd">
<svg xmlns:xlink="http://www.w3.org/1999/xlink" width="443.775812pt" height="245.226937pt" viewBox="0 0 443.775812 245.226937" xmlns="http://www.w3.org/2000/svg" version="1.1">
 <metadata>
  <rdf:RDF xmlns:dc="http://purl.org/dc/elements/1.1/" xmlns:cc="http://creativecommons.org/ns#" xmlns:rdf="http://www.w3.org/1999/02/22-rdf-syntax-ns#">
   <cc:Work>
    <dc:type rdf:resource="http://purl.org/dc/dcmitype/StillImage"/>
    <dc:date>2026-10-04T13:14:22.089635</dc:date>
    <dc:format>image/svg+xml</dc:format>
    <dc:creator>
     <cc:Agent>
      <dc:title>Matplotlib v3.7.1, https://matplotlib.org/</dc:title>
     </cc:Agent>
    </dc:creator>
   </cc:Work>
  </rdf:RDF>
 </metadata>
 <defs>
  <style type="text/css">*{stroke-linejoin: round; stroke-linecap: butt}</style>
 </defs>
 <g id="figure_1">
  <g id="patch_1">
   <path d="M 0 245.226937 
L 443.775812 245.226937 
L 443.775812 0 
L 0 0 
z
" style="fill: #ffffff"/>
  </g>
  <g id="axes_1">
   <g id="patch_2">
    <path d="M 55.541562 209.606312 
L 418.941563 209.606312 
L 418.941563 21.406312 
L 55.541562 21.406312 
z
" style="fill: #ffffff"/>
   </g>
   <g id="patch_3">
    <path d="M 72.059744 209.606312 
L 76.18929 209.606312 
L 76.18929 209.600064 
L 72.059744 209.600064 
z
" clip-path="url(#pd9e0b1d151)" style="fill: #476b85"/>
   </g>
   <g id="patch_4">
    <path d="M 76.18929 209.606312 
L 80.318835 209.606312 
L 80.318835 209.59694 
L 76.18929 209.59694 
z
" clip-path="url(#pd9e0b1d151)" style="fill: #476b85"/>
   </g>
   <g id="patch_5">
    <path d="M 80.318835 209.606312 
L 84.448381 209.606312 
L 84.448381 209.606312 
L 80.318835 209.606312 
z
" clip-path="url(#pd9e0b1d151)" style="fill: #476b85"/>
   </g>
   <g id="patch_6">
    <path d="M 84.448381 209.606312 
L 88.577926 209.606312 
L 88.577926 209.59694 
L 84.448381 209.59694 
z
" clip-path="url(#pd9e0b1d151)" style="fill: #476b85"/>
   </g>
   <g id="patch_7">
    <path d="M 88.577926 209.606312 
L 92.707472 209.606312 
L 92.707472 209.600064 
L 88.577926 209.600064 
z
" clip-path="url(#pd9e0b1d151)" style="fill: #476b85"/>
   </g>
   <g id="patch_8">
    <path d="M 92.707472 209.606312 
L 96.837017 209.606312 
L 96.837017 209.59694 
L 92.707472 209.59694 
z
" clip-path="url(#pd9e0b1d151)" style="fill: #476b85"/>
   </g>
   <g id="patch_9">
    <path d="M 96.837017 209.606312 
L 100.966563 209.606312 
L 100.966563 209.593815 
L 96.837017 209.593815 
z
" clip-path="url(#pd9e0b1d151)" style="fill: #476b85"/>
   </g>
   <g id="patch_10">
    <path d="M 100.966563 209.606312 
L 105.096108 209.606312 
L 105.096108 209.575069 
L 100.966563 209.575069 
z
" clip-path="url(#pd9e0b1d151)" style="fill: #476b85"/>
   </g>
   <g id="patch_11">
    <path d="M 105.096108 209.606312 
L 109.225653 209.606312 
L 109.225653 209.565697 
L 105.096108 209.565697 
z
" clip-path="url(#pd9e0b1d151)" style="fill: #476b85"/>
   </g>
   <g id="patch_12">
    <path d="M 109.225653 209.606312 
L 113.355199 209.606312 
L 113.355199 209.568821 
L 109.225653 209.568821 
z
" clip-path="url(#pd9e0b1d151)" style="fill: #476b85"/>
   </g>
   <g id="patch_13">
    <path d="M 113.355199 209.606312 
L 117.484744 209.606312 
L 117.484744 209.531329 
L 113.355199 209.531329 
z
" clip-path="url(#pd9e0b1d151)" style="fill: #476b85"/>
   </g>
   <g id="patch_14">
    <path d="M 117.484744 209.606312 
L 121.61429 209.606312 
L 121.61429 209.506335 
L 117.484744 209.506335 
z
" clip-path="url(#pd9e0b1d151)" style="fill: #476b85"/>
   </g>
   <g id="patch_15">
    <path d="M 121.61429 209.606312 
L 125.743835 209.606312 
L 125.743835 209.450097 
L 121.61429 209.450097 
z
" clip-path="url(#pd9e0b1d151)" style="fill: #476b85"/>
   </g>
   <g id="patch_16">
    <path d="M 125.743835 209.606312 
L 129.873381 209.606312 
L 129.873381 209.32825 
L 125.743835 209.32825 
z
" clip-path="url(#pd9e0b1d151)" style="fill: #476b85"/>
   </g>
   <g id="patch_17">
    <path d="M 129.873381 209.606312 
L 134.002926 209.606312 
L 134.002926 209.243893 
L 129.873381 209.243893 
z
" clip-path="url(#pd9e0b1d151)" style="fill: #476b85"/>
   </g>
   <g id="patch_18">
    <path d="M 134.002926 209.606312 
L 138.132472 209.606312 
L 138.132472 209.047062 
L 134.002926 209.047062 
z
" clip-path="url(#pd9e0b1d151)" style="fill: #476b85"/>
   </g>
   <g id="patch_19">
    <path d="M 138.132472 209.606312 
L 142.262017 209.606312 
L 142.262017 208.825237 
L 138.132472 208.825237 
z
" clip-path="url(#pd9e0b1d151)" style="fill: #476b85"/>
   </g>
   <g id="patch_20">
    <path d="M 142.262017 209.606312 
L 146.391563 209.606312 
L 146.391563 208.525304 
L 142.262017 208.525304 
z
" clip-path="url(#pd9e0b1d151)" style="fill: #476b85"/>
   </g>
   <g id="patch_21">
    <path d="M 146.391563 209.606312 
L 150.521108 209.606312 
L 150.521108 207.987924 
L 146.391563 207.987924 
z
" clip-path="url(#pd9e0b1d151)" style="fill: #476b85"/>
   </g>
   <g id="patch_22">
    <path d="M 150.521108 209.606312 
L 154.650653 209.606312 
L 154.650653 207.319323 
L 150.521108 207.319323 
z
" clip-path="url(#pd9e0b1d151)" style="fill: #476b85"/>
   </g>
   <g id="patch_23">
    <path d="M 154.650653 209.606312 
L 158.780199 209.606312 
L 158.780199 206.875672 
L 154.650653 206.875672 
z
" clip-path="url(#pd9e0b1d151)" style="fill: #476b85"/>
   </g>
   <g id="patch_24">
    <path d="M 158.780199 209.606312 
L 162.909744 209.606312 
L 162.909744 205.707183 
L 158.780199 205.707183 
z
" clip-path="url(#pd9e0b1d151)" style="fill: #476b85"/>
   </g>
   <g id="patch_25">
    <path d="M 162.909744 209.606312 
L 167.03929 209.606312 
L 167.03929 205.022961 
L 162.909744 205.022961 
z
" clip-path="url(#pd9e0b1d151)" style="fill: #476b85"/>
   </g>
   <g id="patch_26">
    <path d="M 167.03929 209.606312 
L 171.168835 209.606312 
L 171.168835 203.741997 
L 167.03929 203.741997 
z
" clip-path="url(#pd9e0b1d151)" style="fill: #476b85"/>
   </g>
   <g id="patch_27">
    <path d="M 171.168835 209.606312 
L 175.298381 209.606312 
L 175.298381 203.035905 
L 171.168835 203.035905 
z
" clip-path="url(#pd9e0b1d151)" style="fill: #476b85"/>
   </g>
   <g id="patch_28">
    <path d="M 175.298381 209.606312 
L 179.427926 209.606312 
L 179.427926 202.710977 
L 175.298381 202.710977 
z
" clip-path="url(#pd9e0b1d151)" style="fill: #476b85"/>
   </g>
   <g id="patch_29">
    <path d="M 179.427926 209.606312 
L 183.557472 209.606312 
L 183.557472 204.110665 
L 179.427926 204.110665 
z
" clip-path="url(#pd9e0b1d151)" style="fill: #476b85"/>
   </g>
   <g id="patch_30">
    <path d="M 183.557472 209.606312 
L 187.687017 209.606312 
L 187.687017 207.375561 
L 183.557472 207.375561 
z
" clip-path="url(#pd9e0b1d151)" style="fill: #476b85"/>
   </g>
   <g id="patch_31">
    <path d="M 187.687017 209.606312 
L 191.816563 209.606312 
L 191.816563 209.471968 
L 187.687017 209.471968 
z
" clip-path="url(#pd9e0b1d151)" style="fill: #476b85"/>
   </g>
   <g id="patch_32">
    <path d="M 191.816563 209.606312 
L 195.946108 209.606312 
L 195.946108 209.606312 
L 191.816563 209.606312 
z
" clip-path="url(#pd9e0b1d151)" style="fill: #476b85"/>
   </g>
   <g id="patch_33">
    <path d="M 195.946108 209.606312 
L 200.075653 209.606312 
L 200.075653 30.368217 
L 195.946108 30.368217 
z
" clip-path="url(#pd9e0b1d151)" style="fill: #476b85"/>
   </g>
   <g id="patch_34">
    <path d="M 200.075653 209.606312 
L 204.205199 209.606312 
L 204.205199 209.606312 
L 200.075653 209.606312 
z
" clip-path="url(#pd9e0b1d151)" style="fill: #476b85"/>
   </g>
   <g id="patch_35">
    <path d="M 204.205199 209.606312 
L 208.334744 209.606312 
L 208.334744 209.603188 
L 204.205199 209.603188 
z
" clip-path="url(#pd9e0b1d151)" style="fill: #476b85"/>
   </g>
   <g id="patch_36">
    <path d="M 208.334744 209.606312 
L 212.46429 209.606312 
L 212.46429 209.384487 
L 208.334744 209.384487 
z
" clip-path="url(#pd9e0b1d151)" style="fill: #476b85"/>
   </g>
   <g id="patch_37">
    <path d="M 212.46429 209.606312 
L 216.593835 209.606312 
L 216.593835 208.087902 
L 212.46429 208.087902 
z
" clip-path="url(#pd9e0b1d151)" style="fill: #476b85"/>
   </g>
   <g id="patch_38">
    <path d="M 216.593835 209.606312 
L 220.723381 209.606312 
L 220.723381 206.332044 
L 216.593835 206.332044 
z
" clip-path="url(#pd9e0b1d151)" style="fill: #476b85"/>
   </g>
   <g id="patch_39">
    <path d="M 220.723381 209.606312 
L 224.852926 209.606312 
L 224.852926 205.182301 
L 220.723381 205.182301 
z
" clip-path="url(#pd9e0b1d151)" style="fill: #476b85"/>
   </g>
   <g id="patch_40">
    <path d="M 224.852926 209.606312 
L 228.982472 209.606312 
L 228.982472 205.019837 
L 224.852926 205.019837 
z
" clip-path="url(#pd9e0b1d151)" style="fill: #476b85"/>
   </g>
   <g id="patch_41">
    <path d="M 228.982472 209.606312 
L 233.112017 209.606312 
L 233.112017 205.466612 
L 228.982472 205.466612 
z
" clip-path="url(#pd9e0b1d151)" style="fill: #476b85"/>
   </g>
   <g id="patch_42">
    <path d="M 233.112017 209.606312 
L 237.241563 209.606312 
L 237.241563 206.238315 
L 233.112017 206.238315 
z
" clip-path="url(#pd9e0b1d151)" style="fill: #476b85"/>
   </g>
   <g id="patch_43">
    <path d="M 237.241563 209.606312 
L 241.371108 209.606312 
L 241.371108 206.969401 
L 237.241563 206.969401 
z
" clip-path="url(#pd9e0b1d151)" style="fill: #476b85"/>
   </g>
   <g id="patch_44">
    <path d="M 241.371108 209.606312 
L 245.500653 209.606312 
L 245.500653 207.403679 
L 241.371108 207.403679 
z
" clip-path="url(#pd9e0b1d151)" style="fill: #476b85"/>
   </g>
   <g id="patch_45">
    <path d="M 245.500653 209.606312 
L 249.630199 209.606312 
L 249.630199 207.762974 
L 245.500653 207.762974 
z
" clip-path="url(#pd9e0b1d151)" style="fill: #476b85"/>
   </g>
   <g id="patch_46">
    <path d="M 249.630199 209.606312 
L 253.759744 209.606312 
L 253.759744 208.069156 
L 249.630199 208.069156 
z
" clip-path="url(#pd9e0b1d151)" style="fill: #476b85"/>
   </g>
   <g id="patch_47">
    <path d="M 253.759744 209.606312 
L 257.88929 209.606312 
L 257.88929 208.40658 
L 253.759744 208.40658 
z
" clip-path="url(#pd9e0b1d151)" style="fill: #476b85"/>
   </g>
   <g id="patch_48">
    <path d="M 257.88929 209.606312 
L 262.018835 209.606312 
L 262.018835 208.584666 
L 257.88929 208.584666 
z
" clip-path="url(#pd9e0b1d151)" style="fill: #476b85"/>
   </g>
   <g id="patch_49">
    <path d="M 262.018835 209.606312 
L 266.148381 209.606312 
L 266.148381 208.806491 
L 262.018835 208.806491 
z
" clip-path="url(#pd9e0b1d151)" style="fill: #476b85"/>
   </g>
   <g id="patch_50">
    <path d="M 266.148381 209.606312 
L 270.277926 209.606312 
L 270.277926 208.859604 
L 266.148381 208.859604 
z
" clip-path="url(#pd9e0b1d151)" style="fill: #476b85"/>
   </g>
   <g id="patch_51">
    <path d="M 270.277926 209.606312 
L 274.407472 209.606312 
L 274.407472 208.978328 
L 270.277926 208.978328 
z
" clip-path="url(#pd9e0b1d151)" style="fill: #476b85"/>
   </g>
   <g id="patch_52">
    <path d="M 274.407472 209.606312 
L 278.537017 209.606312 
L 278.537017 209.093927 
L 274.407472 209.093927 
z
" clip-path="url(#pd9e0b1d151)" style="fill: #476b85"/>
   </g>
   <g id="patch_53">
    <path d="M 278.537017 209.606312 
L 282.666562 209.606312 
L 282.666562 209.175159 
L 278.537017 209.175159 
z
" clip-path="url(#pd9e0b1d151)" style="fill: #476b85"/>
   </g>
   <g id="patch_54">
    <path d="M 282.666562 209.606312 
L 286.796108 209.606312 
L 286.796108 209.225148 
L 282.666562 209.225148 
z
" clip-path="url(#pd9e0b1d151)" style="fill: #476b85"/>
   </g>
   <g id="patch_55">
    <path d="M 286.796108 209.606312 
L 290.925653 209.606312 
L 290.925653 209.272012 
L 286.796108 209.272012 
z
" clip-path="url(#pd9e0b1d151)" style="fill: #476b85"/>
   </g>
   <g id="patch_56">
    <path d="M 290.925653 209.606312 
L 295.055199 209.606312 
L 295.055199 209.384487 
L 290.925653 209.384487 
z
" clip-path="url(#pd9e0b1d151)" style="fill: #476b85"/>
   </g>
   <g id="patch_57">
    <path d="M 295.055199 209.606312 
L 299.184744 209.606312 
L 299.184744 209.39386 
L 295.055199 209.39386 
z
" clip-path="url(#pd9e0b1d151)" style="fill: #476b85"/>
   </g>
   <g id="patch_58">
    <path d="M 299.184744 209.606312 
L 303.31429 209.606312 
L 303.31429 209.37199 
L 299.184744 209.37199 
z
" clip-path="url(#pd9e0b1d151)" style="fill: #476b85"/>
   </g>
   <g id="patch_59">
    <path d="M 303.31429 209.606312 
L 307.443835 209.606312 
L 307.443835 209.453222 
L 303.31429 209.453222 
z
" clip-path="url(#pd9e0b1d151)" style="fill: #476b85"/>
   </g>
   <g id="patch_60">
    <path d="M 307.443835 209.606312 
L 311.573381 209.606312 
L 311.573381 209.468843 
L 307.443835 209.468843 
z
" clip-path="url(#pd9e0b1d151)" style="fill: #476b85"/>
   </g>
   <g id="patch_61">
    <path d="M 311.573381 209.606312 
L 315.702926 209.606312 
L 315.702926 209.465719 
L 311.573381 209.465719 
z
" clip-path="url(#pd9e0b1d151)" style="fill: #476b85"/>
   </g>
   <g id="patch_62">
    <path d="M 315.702926 209.606312 
L 319.832472 209.606312 
L 319.832472 209.468843 
L 315.702926 209.468843 
z
" clip-path="url(#pd9e0b1d151)" style="fill: #476b85"/>
   </g>
   <g id="patch_63">
    <path d="M 319.832472 209.606312 
L 323.962017 209.606312 
L 323.962017 209.518832 
L 319.832472 209.518832 
z
" clip-path="url(#pd9e0b1d151)" style="fill: #476b85"/>
   </g>
   <g id="patch_64">
    <path d="M 323.962017 209.606312 
L 328.091563 209.606312 
L 328.091563 209.528205 
L 323.962017 209.528205 
z
" clip-path="url(#pd9e0b1d151)" style="fill: #476b85"/>
   </g>
   <g id="patch_65">
    <path d="M 328.091563 209.606312 
L 332.221108 209.606312 
L 332.221108 209.518832 
L 328.091563 209.518832 
z
" clip-path="url(#pd9e0b1d151)" style="fill: #476b85"/>
   </g>
   <g id="patch_66">
    <path d="M 332.221108 209.606312 
L 336.350653 209.606312 
L 336.350653 209.531329 
L 332.221108 209.531329 
z
" clip-path="url(#pd9e0b1d151)" style="fill: #476b85"/>
   </g>
   <g id="patch_67">
    <path d="M 336.350653 209.606312 
L 340.480199 209.606312 
L 340.480199 209.534454 
L 336.350653 209.534454 
z
" clip-path="url(#pd9e0b1d151)" style="fill: #476b85"/>
   </g>
   <g id="patch_68">
    <path d="M 340.480199 209.606312 
L 344.609744 209.606312 
L 344.609744 209.565697 
L 340.480199 209.565697 
z
" clip-path="url(#pd9e0b1d151)" style="fill: #476b85"/>
   </g>
   <g id="patch_69">
    <path d="M 344.609744 209.606312 
L 348.73929 209.606312 
L 348.73929 209.568821 
L 344.609744 209.568821 
z
" clip-path="url(#pd9e0b1d151)" style="fill: #476b85"/>
   </g>
   <g id="patch_70">
    <path d="M 348.73929 209.606312 
L 352.868835 209.606312 
L 352.868835 209.571945 
L 348.73929 209.571945 
z
" clip-path="url(#pd9e0b1d151)" style="fill: #476b85"/>
   </g>
   <g id="patch_71">
    <path d="M 352.868835 209.606312 
L 356.998381 209.606312 
L 356.998381 209.559448 
L 352.868835 209.559448 
z
" clip-path="url(#pd9e0b1d151)" style="fill: #476b85"/>
   </g>
   <g id="patch_72">
    <path d="M 356.998381 209.606312 
L 361.127926 209.606312 
L 361.127926 209.584442 
L 356.998381 209.584442 
z
" clip-path="url(#pd9e0b1d151)" style="fill: #476b85"/>
   </g>
   <g id="patch_73">
    <path d="M 361.127926 209.606312 
L 365.257472 209.606312 
L 365.257472 209.581318 
L 361.127926 209.581318 
z
" clip-path="url(#pd9e0b1d151)" style="fill: #476b85"/>
   </g>
   <g id="patch_74">
    <path d="M 365.257472 209.606312 
L 369.387017 209.606312 
L 369.387017 209.578194 
L 365.257472 209.578194 
z
" clip-path="url(#pd9e0b1d151)" style="fill: #476b85"/>
   </g>
   <g id="patch_75">
    <path d="M 369.387017 209.606312 
L 373.516562 209.606312 
L 373.516562 209.587567 
L 369.387017 209.587567 
z
" clip-path="url(#pd9e0b1d151)" style="fill: #476b85"/>
   </g>
   <g id="patch_76">
    <path d="M 373.516563 209.606312 
L 377.646108 209.606312 
L 377.646108 209.593815 
L 373.516563 209.593815 
z
" clip-path="url(#pd9e0b1d151)" style="fill: #476b85"/>
   </g>
   <g id="patch_77">
    <path d="M 377.646108 209.606312 
L 381.775653 209.606312 
L 381.775653 209.600064 
L 377.646108 209.600064 
z
" clip-path="url(#pd9e0b1d151)" style="fill: #476b85"/>
   </g>
   <g id="patch_78">
    <path d="M 381.775653 209.606312 
L 385.905199 209.606312 
L 385.905199 209.590691 
L 381.775653 209.590691 
z
" clip-path="url(#pd9e0b1d151)" style="fill: #476b85"/>
   </g>
   <g id="patch_79">
    <path d="M 385.905199 209.606312 
L 390.034744 209.606312 
L 390.034744 209.603188 
L 385.905199 209.603188 
z
" clip-path="url(#pd9e0b1d151)" style="fill: #476b85"/>
   </g>
   <g id="patch_80">
    <path d="M 390.034744 209.606312 
L 394.16429 209.606312 
L 394.16429 209.603188 
L 390.034744 209.603188 
z
" clip-path="url(#pd9e0b1d151)" style="fill: #476b85"/>
   </g>
   <g id="patch_81">
    <path d="M 394.16429 209.606312 
L 398.293835 209.606312 
L 398.293835 209.59694 
L 394.16429 209.59694 
z
" clip-path="url(#pd9e0b1d151)" style="fill: #476b85"/>
   </g>
   <g id="patch_82">
    <path d="M 398.293835 209.606312 
L 402.423381 209.606312 
L 402.423381 209.603188 
L 398.293835 209.603188 
z
" clip-path="url(#pd9e0b1d151)" style="fill: #476b85"/>
   </g>
   <g id="matplotlib.axis_1">
    <g id="xtick_1">
     <g id="line2d_1">
      <defs>
       <path id="m6b0dfbba81" d="M 0 0 
L 0 3.5 
" style="stroke: #000000; stroke-width: 0.8"/>
      </defs>
      <g>
       <use xlink:href="#m6b0dfbba81" x="70.354616" y="209.606312" style="stroke: #000000; stroke-width: 0.8"/>
      </g>
     </g>
     <g id="text_1">
      <text style="font: 9px 'DejaVu Sans', 'Bitstream Vera Sans', 'Computer Modern Sans Serif', 'Lucida Grande', 'Verdana', 'Geneva', 'Lucid', 'Arial', 'Helvetica', 'Avant Garde', sans-serif; text-anchor: middle" x="70.354616" y="223.444906" transform="rotate(-0 70.354616 223.444906)">−15</text>
     </g>
    </g>
    <g id="xtick_2">
     <g id="line2d_2">
      <g>
       <use xlink:href="#m6b0dfbba81" x="113.019898" y="209.606312" style="stroke: #000000; stroke-width: 0.8"/>
      </g>
     </g>
     <g id="text_2">
      <text style="font: 9px 'DejaVu Sans', 'Bitstream Vera Sans', 'Computer Modern Sans Serif', 'Lucida Grande', 'Verdana', 'Geneva', 'Lucid', 'Arial', 'Helvetica', 'Avant Garde', sans-serif; text-anchor: middle" x="113.019898" y="223.444906" transform="rotate(-0 113.019898 223.444906)">−10</text>
     </g>
    </g>
    <g id="xtick_3">
     <g id="line2d_3">
      <g>
       <use xlink:href="#m6b0dfbba81" x="155.68518" y="209.606312" style="stroke: #000000; stroke-width: 0.8"/>
      </g>
     </g>
     <g id="text_3">
      <text style="font: 9px 'DejaVu Sans', 'Bitstream Vera Sans', 'Computer Modern Sans Serif', 'Lucida Grande', 'Verdana', 'Geneva', 'Lucid', 'Arial', 'Helvetica', 'Avant Garde', sans-serif; text-anchor: middle" x="155.68518" y="223.444906" transform="rotate(-0 155.68518 223.444906)">−5</text>
     </g>
    </g>
    <g id="xtick_4">
     <g id="line2d_4">
      <g>
       <use xlink:href="#m6b0dfbba81" x="198.350462" y="209.606312" style="stroke: #000000; stroke-width: 0.8"/>
      </g>
     </g>
     <g id="text_4">
      <text style="font: 9px 'DejaVu Sans', 'Bitstream Vera Sans', 'Computer Modern Sans Serif', 'Lucida Grande', 'Verdana', 'Geneva', 'Lucid', 'Arial', 'Helvetica', 'Avant Garde', sans-serif; text-anchor: middle" x="198.350462" y="223.444906" transform="rotate(-0 198.350462 223.444906)">0</text>
     </g>
    </g>
    <g id="xtick_5">
     <g id="line2d_5">
      <g>
       <use xlink:href="#m6b0dfbba81" x="241.015744" y="209.606312" style="stroke: #000000; stroke-width: 0.8"/>
      </g>
     </g>
     <g id="text_5">
      <text style="font: 9px 'DejaVu Sans', 'Bitstream Vera Sans', 'Computer Modern Sans Serif', 'Lucida Grande', 'Verdana', 'Geneva', 'Lucid', 'Arial', 'Helvetica', 'Avant Garde', sans-serif; text-anchor: middle" x="241.015744" y="223.444906" transform="rotate(-0 241.015744 223.444906)">5</text>
     </g>
    </g>
    <g id="xtick_6">
     <g id="line2d_6">
      <g>
       <use xlink:href="#m6b0dfbba81" x="283.681026" y="209.606312" style="stroke: #000000; stroke-width: 0.8"/>
      </g>
     </g>
     <g id="text_6">
      <text style="font: 9px 'DejaVu Sans', 'Bitstream Vera Sans', 'Computer Modern Sans Serif', 'Lucida Grande', 'Verdana', 'Geneva', 'Lucid', 'Arial', 'Helvetica', 'Avant Garde', sans-serif; text-anchor: middle" x="283.681026" y="223.444906" transform="rotate(-0 283.681026 223.444906)">10</text>
     </g>
    </g>
    <g id="xtick_7">
     <g id="line2d_7">
      <g>
       <use xlink:href="#m6b0dfbba81" x="326.346308" y="209.606312" style="stroke: #000000; stroke-width: 0.8"/>
      </g>
     </g>
     <g id="text_7">
      <text style="font: 9px 'DejaVu Sans', 'Bitstream Vera Sans', 'Computer Modern Sans Serif', 'Lucida Grande', 'Verdana', 'Geneva', 'Lucid', 'Arial', 'Helvetica', 'Avant Garde', sans-serif; text-anchor: middle" x="326.346308" y="223.444906" transform="rotate(-0 326.346308 223.444906)">15</text>
     </g>
    </g>
    <g id="xtick_8">
     <g id="line2d_8">
      <g>
       <use xlink:href="#m6b0dfbba81" x="369.011591" y="209.606312" style="stroke: #000000; stroke-width: 0.8"/>
      </g>
     </g>
     <g id="text_8">
      <text style="font: 9px 'DejaVu Sans', 'Bitstream Vera Sans', 'Computer Modern Sans Serif', 'Lucida Grande', 'Verdana', 'Geneva', 'Lucid', 'Arial', 'Helvetica', 'Avant Garde', sans-serif; text-anchor: middle" x="369.011591" y="223.444906" transform="rotate(-0 369.011591 223.444906)">20</text>
     </g>
    </g>
    <g id="xtick_9">
     <g id="line2d_9">
      <g>
       <use xlink:href="#m6b0dfbba81" x="411.676873" y="209.606312" style="stroke: #000000; stroke-width: 0.8"/>
      </g>
     </g>
     <g id="text_9">
      <text style="font: 9px 'DejaVu Sans', 'Bitstream Vera Sans', 'Computer Modern Sans Serif', 'Lucida Grande', 'Verdana', 'Geneva', 'Lucid', 'Arial', 'Helvetica', 'Avant Garde', sans-serif; text-anchor: middle" x="411.676873" y="223.444906" transform="rotate(-0 411.676873 223.444906)">25</text>
     </g>
    </g>
    <g id="text_10">
     <text style="font: 9px 'DejaVu Sans', 'Bitstream Vera Sans', 'Computer Modern Sans Serif', 'Lucida Grande', 'Verdana', 'Geneva', 'Lucid', 'Arial', 'Helvetica', 'Avant Garde', sans-serif; text-anchor: middle" x="237.241563" y="236.155219" transform="rotate(-0 237.241563 236.155219)">Bootstrap haufe sign-stable for descriptive visualization</text>
    </g>
   </g>
   <g id="matplotlib.axis_2">
    <g id="ytick_1">
     <g id="line2d_10">
      <defs>
       <path id="m4cbc86dab5" d="M 0 0 
L -3.5 0 
" style="stroke: #000000; stroke-width: 0.8"/>
      </defs>
      <g>
       <use xlink:href="#m4cbc86dab5" x="55.541562" y="209.606312" style="stroke: #000000; stroke-width: 0.8"/>
      </g>
     </g>
     <g id="text_11">
      <text style="font: 9px 'DejaVu Sans', 'Bitstream Vera Sans', 'Computer Modern Sans Serif', 'Lucida Grande', 'Verdana', 'Geneva', 'Lucid', 'Arial', 'Helvetica', 'Avant Garde', sans-serif; text-anchor: end" x="48.541562" y="213.025609" transform="rotate(-0 48.541562 213.025609)">0</text>
     </g>
    </g>
    <g id="ytick_2">
     <g id="line2d_11">
      <g>
       <use xlink:href="#m4cbc86dab5" x="55.541562" y="178.36329" style="stroke: #000000; stroke-width: 0.8"/>
      </g>
     </g>
     <g id="text_12">
      <text style="font: 9px 'DejaVu Sans', 'Bitstream Vera Sans', 'Computer Modern Sans Serif', 'Lucida Grande', 'Verdana', 'Geneva', 'Lucid', 'Arial', 'Helvetica', 'Avant Garde', sans-serif; text-anchor: end" x="48.541562" y="181.782587" transform="rotate(-0 48.541562 181.782587)">10000</text>
     </g>
    </g>
    <g id="ytick_3">
     <g id="line2d_12">
      <g>
       <use xlink:href="#m4cbc86dab5" x="55.541562" y="147.120268" style="stroke: #000000; stroke-width: 0.8"/>
      </g>
     </g>
     <g id="text_13">
      <text style="font: 9px 'DejaVu Sans', 'Bitstream Vera Sans', 'Computer Modern Sans Serif', 'Lucida Grande', 'Verdana', 'Geneva', 'Lucid', 'Arial', 'Helvetica', 'Avant Garde', sans-serif; text-anchor: end" x="48.541562" y="150.539565" transform="rotate(-0 48.541562 150.539565)">20000</text>
     </g>
    </g>
    <g id="ytick_4">
     <g id="line2d_13">
      <g>
       <use xlink:href="#m4cbc86dab5" x="55.541562" y="115.877245" style="stroke: #000000; stroke-width: 0.8"/>
      </g>
     </g>
     <g id="text_14">
      <text style="font: 9px 'DejaVu Sans', 'Bitstream Vera Sans', 'Computer Modern Sans Serif', 'Lucida Grande', 'Verdana', 'Geneva', 'Lucid', 'Arial', 'Helvetica', 'Avant Garde', sans-serif; text-anchor: end" x="48.541562" y="119.296542" transform="rotate(-0 48.541562 119.296542)">30000</text>
     </g>
    </g>
    <g id="ytick_5">
     <g id="line2d_14">
      <g>
       <use xlink:href="#m4cbc86dab5" x="55.541562" y="84.634223" style="stroke: #000000; stroke-width: 0.8"/>
      </g>
     </g>
     <g id="text_15">
      <text style="font: 9px 'DejaVu Sans', 'Bitstream Vera Sans', 'Computer Modern Sans Serif', 'Lucida Grande', 'Verdana', 'Geneva', 'Lucid', 'Arial', 'Helvetica', 'Avant Garde', sans-serif; text-anchor: end" x="48.541562" y="88.05352" transform="rotate(-0 48.541562 88.05352)">40000</text>
     </g>
    </g>
    <g id="ytick_6">
     <g id="line2d_15">
      <g>
       <use xlink:href="#m4cbc86dab5" x="55.541562" y="53.3912" style="stroke: #000000; stroke-width: 0.8"/>
      </g>
     </g>
     <g id="text_16">
      <text style="font: 9px 'DejaVu Sans', 'Bitstream Vera Sans', 'Computer Modern Sans Serif', 'Lucida Grande', 'Verdana', 'Geneva', 'Lucid', 'Arial', 'Helvetica', 'Avant Garde', sans-serif; text-anchor: end" x="48.541562" y="56.810497" transform="rotate(-0 48.541562 56.810497)">50000</text>
     </g>
    </g>
    <g id="ytick_7">
     <g id="line2d_16">
      <g>
       <use xlink:href="#m4cbc86dab5" x="55.541562" y="22.148178" style="stroke: #000000; stroke-width: 0.8"/>
      </g>
     </g>
     <g id="text_17">
      <text style="font: 9px 'DejaVu Sans', 'Bitstream Vera Sans', 'Computer Modern Sans Serif', 'Lucida Grande', 'Verdana', 'Geneva', 'Lucid', 'Arial', 'Helvetica', 'Avant Garde', sans-serif; text-anchor: end" x="48.541562" y="25.567475" transform="rotate(-0 48.541562 25.567475)">60000</text>
     </g>
    </g>
    <g id="text_18">
     <text style="font: 9px 'DejaVu Sans', 'Bitstream Vera Sans', 'Computer Modern Sans Serif', 'Lucida Grande', 'Verdana', 'Geneva', 'Lucid', 'Arial', 'Helvetica', 'Avant Garde', sans-serif; text-anchor: middle" x="14.038594" y="115.506312" transform="rotate(-90 14.038594 115.506312)">Voxels</text>
    </g>
   </g>
   <g id="line2d_17">
    <path d="M 198.350462 209.606312 
L 198.350462 21.406312 
" clip-path="url(#pd9e0b1d151)" style="fill: none; stroke: #000000; stroke-width: 0.8; stroke-linecap: square"/>
   </g>
   <g id="patch_83">
    <path d="M 55.541562 209.606312 
L 55.541562 21.406312 
" style="fill: none; stroke: #000000; stroke-width: 0.8; stroke-linejoin: miter; stroke-linecap: square"/>
   </g>
   <g id="patch_84">
    <path d="M 55.541562 209.606312 
L 418.941563 209.606312 
" style="fill: none; stroke: #000000; stroke-width: 0.8; stroke-linejoin: miter; stroke-linecap: square"/>
   </g>
   <g id="text_19">
    <text style="font: 10.8px 'DejaVu Sans', 'Bitstream Vera Sans', 'Computer Modern Sans Serif', 'Lucida Grande', 'Verdana', 'Geneva', 'Lucid', 'Arial', 'Helvetica', 'Avant Garde', sans-serif; text-anchor: middle" x="237.241563" y="15.406312" transform="rotate(-0 237.241563 15.406312)">Closeness: positive outcome — Positive → FRIEND; negative → STRANGER</text>
   </g>
  </g>
 </g>
 <defs>
  <clipPath id="pd9e0b1d151">
   <rect x="55.541562" y="21.406312" width="363.4" height="188.2"/>
  </clipPath>
 </defs>
</svg>
