<?xml version="1.0" encoding="utf-8" standalone="no"?>
<!DOCTYPE svg PUBLIC "-//W3C//DTD SVG 1.1//EN"
  "http://www.w3.org/Graphics/SVG/1.1/DTD/svg11.dtd">
<svg xmlns:xlink="http://www.w3.org/1999/xlink" width="426.141562pt" height="245.226937pt" viewBox="0 0 426.141562 245.226937" xmlns="http://www.w3.org/2000/svg" version="1.1">
 <metadata>
  <rdf:RDF xmlns:dc="http://purl.org/dc/elements/1.1/" xmlns:cc="http://creativecommons.org/ns#" xmlns:rdf="http://www.w3.org/1999/02/22-rdf-syntax-ns#">
   <cc:Work>
    <dc:type rdf:resource="http://purl.org/dc/dcmitype/StillImage"/>
    <dc:date>2026-10-04T13:14:56.198068</dc:date>
    <dc:format>image/svg+xml</dc:format>
    <dc:creator>
     <cc:Agent>
      <dc:title>Matplotlib v3.7.1, https://matplotlib.org/</dc:title>
     </cc:Agent>
    </dc:creator>
   </cc:Work>
  </rdf:RDF>
 </metadata>
 <defs>
  <style type="text/css">*{stroke-linejoin: round; stroke-linecap: butt}</style>
 </defs>
 <g id="figure_1">
  <g id="patch_1">
   <path d="M 0 245.226937 
L 426.141562 245.226937 
L 426.141562 0 
L 0 0 
z
" style="fill: #ffffff"/>
  </g>
  <g id="axes_1">
   <g id="patch_2">
    <path d="M 55.541562 209.606312 
L 418.941563 209.606312 
L 418.941563 21.406312 
L 55.541562 21.406312 
z
" style="fill: #ffffff"/>
   </g>
   <g id="patch_3">
    <path d="M 72.059744 209.606312 
L 76.18929 209.606312 
L 76.18929 209.589355 
L 72.059744 209.589355 
z
" clip-path="url(#pcb008c6bbe)" style="fill: #476b85"/>
   </g>
   <g id="patch_4">
    <path d="M 76.18929 209.606312 
L 80.318835 209.606312 
L 80.318835 209.606312 
L 76.18929 209.606312 
z
" clip-path="url(#pcb008c6bbe)" style="fill: #476b85"/>
   </g>
   <g id="patch_5">
    <path d="M 80.318835 209.606312 
L 84.448381 209.606312 
L 84.448381 209.589355 
L 80.318835 209.589355 
z
" clip-path="url(#pcb008c6bbe)" style="fill: #476b85"/>
   </g>
   <g id="patch_6">
    <path d="M 84.448381 209.606312 
L 88.577926 209.606312 
L 88.577926 209.606312 
L 84.448381 209.606312 
z
" clip-path="url(#pcb008c6bbe)" style="fill: #476b85"/>
   </g>
   <g id="patch_7">
    <path d="M 88.577926 209.606312 
L 92.707472 209.606312 
L 92.707472 209.589355 
L 88.577926 209.589355 
z
" clip-path="url(#pcb008c6bbe)" style="fill: #476b85"/>
   </g>
   <g id="patch_8">
    <path d="M 92.707472 209.606312 
L 96.837017 209.606312 
L 96.837017 209.606312 
L 92.707472 209.606312 
z
" clip-path="url(#pcb008c6bbe)" style="fill: #476b85"/>
   </g>
   <g id="patch_9">
    <path d="M 96.837017 209.606312 
L 100.966562 209.606312 
L 100.966562 209.606312 
L 96.837017 209.606312 
z
" clip-path="url(#pcb008c6bbe)" style="fill: #476b85"/>
   </g>
   <g id="patch_10">
    <path d="M 100.966562 209.606312 
L 105.096108 209.606312 
L 105.096108 209.606312 
L 100.966562 209.606312 
z
" clip-path="url(#pcb008c6bbe)" style="fill: #476b85"/>
   </g>
   <g id="patch_11">
    <path d="M 105.096108 209.606312 
L 109.225653 209.606312 
L 109.225653 209.606312 
L 105.096108 209.606312 
z
" clip-path="url(#pcb008c6bbe)" style="fill: #476b85"/>
   </g>
   <g id="patch_12">
    <path d="M 109.225653 209.606312 
L 113.355199 209.606312 
L 113.355199 209.572398 
L 109.225653 209.572398 
z
" clip-path="url(#pcb008c6bbe)" style="fill: #476b85"/>
   </g>
   <g id="patch_13">
    <path d="M 113.355199 209.606312 
L 117.484744 209.606312 
L 117.484744 209.589355 
L 113.355199 209.589355 
z
" clip-path="url(#pcb008c6bbe)" style="fill: #476b85"/>
   </g>
   <g id="patch_14">
    <path d="M 117.484744 209.606312 
L 121.61429 209.606312 
L 121.61429 209.589355 
L 117.484744 209.589355 
z
" clip-path="url(#pcb008c6bbe)" style="fill: #476b85"/>
   </g>
   <g id="patch_15">
    <path d="M 121.61429 209.606312 
L 125.743835 209.606312 
L 125.743835 209.589355 
L 121.61429 209.589355 
z
" clip-path="url(#pcb008c6bbe)" style="fill: #476b85"/>
   </g>
   <g id="patch_16">
    <path d="M 125.743835 209.606312 
L 129.873381 209.606312 
L 129.873381 209.538484 
L 125.743835 209.538484 
z
" clip-path="url(#pcb008c6bbe)" style="fill: #476b85"/>
   </g>
   <g id="patch_17">
    <path d="M 129.873381 209.606312 
L 134.002926 209.606312 
L 134.002926 209.572398 
L 129.873381 209.572398 
z
" clip-path="url(#pcb008c6bbe)" style="fill: #476b85"/>
   </g>
   <g id="patch_18">
    <path d="M 134.002926 209.606312 
L 138.132472 209.606312 
L 138.132472 209.555441 
L 134.002926 209.555441 
z
" clip-path="url(#pcb008c6bbe)" style="fill: #476b85"/>
   </g>
   <g id="patch_19">
    <path d="M 138.132472 209.606312 
L 142.262017 209.606312 
L 142.262017 209.555441 
L 138.132472 209.555441 
z
" clip-path="url(#pcb008c6bbe)" style="fill: #476b85"/>
   </g>
   <g id="patch_20">
    <path d="M 142.262017 209.606312 
L 146.391563 209.606312 
L 146.391563 209.453697 
L 142.262017 209.453697 
z
" clip-path="url(#pcb008c6bbe)" style="fill: #476b85"/>
   </g>
   <g id="patch_21">
    <path d="M 146.391562 209.606312 
L 150.521108 209.606312 
L 150.521108 209.385868 
L 146.391562 209.385868 
z
" clip-path="url(#pcb008c6bbe)" style="fill: #476b85"/>
   </g>
   <g id="patch_22">
    <path d="M 150.521108 209.606312 
L 154.650653 209.606312 
L 154.650653 209.351954 
L 150.521108 209.351954 
z
" clip-path="url(#pcb008c6bbe)" style="fill: #476b85"/>
   </g>
   <g id="patch_23">
    <path d="M 154.650653 209.606312 
L 158.780199 209.606312 
L 158.780199 209.267168 
L 154.650653 209.267168 
z
" clip-path="url(#pcb008c6bbe)" style="fill: #476b85"/>
   </g>
   <g id="patch_24">
    <path d="M 158.780199 209.606312 
L 162.909744 209.606312 
L 162.909744 209.182381 
L 158.780199 209.182381 
z
" clip-path="url(#pcb008c6bbe)" style="fill: #476b85"/>
   </g>
   <g id="patch_25">
    <path d="M 162.909744 209.606312 
L 167.03929 209.606312 
L 167.03929 208.94498 
L 162.909744 208.94498 
z
" clip-path="url(#pcb008c6bbe)" style="fill: #476b85"/>
   </g>
   <g id="patch_26">
    <path d="M 167.03929 209.606312 
L 171.168835 209.606312 
L 171.168835 208.741493 
L 167.03929 208.741493 
z
" clip-path="url(#pcb008c6bbe)" style="fill: #476b85"/>
   </g>
   <g id="patch_27">
    <path d="M 171.168835 209.606312 
L 175.298381 209.606312 
L 175.298381 208.351476 
L 171.168835 208.351476 
z
" clip-path="url(#pcb008c6bbe)" style="fill: #476b85"/>
   </g>
   <g id="patch_28">
    <path d="M 175.298381 209.606312 
L 179.427926 209.606312 
L 179.427926 207.859716 
L 175.298381 207.859716 
z
" clip-path="url(#pcb008c6bbe)" style="fill: #476b85"/>
   </g>
   <g id="patch_29">
    <path d="M 179.427926 209.606312 
L 183.557472 209.606312 
L 183.557472 207.605357 
L 179.427926 207.605357 
z
" clip-path="url(#pcb008c6bbe)" style="fill: #476b85"/>
   </g>
   <g id="patch_30">
    <path d="M 183.557472 209.606312 
L 187.687017 209.606312 
L 187.687017 206.23182 
L 183.557472 206.23182 
z
" clip-path="url(#pcb008c6bbe)" style="fill: #476b85"/>
   </g>
   <g id="patch_31">
    <path d="M 187.687017 209.606312 
L 191.816562 209.606312 
L 191.816562 205.485702 
L 187.687017 205.485702 
z
" clip-path="url(#pcb008c6bbe)" style="fill: #476b85"/>
   </g>
   <g id="patch_32">
    <path d="M 191.816562 209.606312 
L 195.946108 209.606312 
L 195.946108 203.043858 
L 191.816562 203.043858 
z
" clip-path="url(#pcb008c6bbe)" style="fill: #476b85"/>
   </g>
   <g id="patch_33">
    <path d="M 195.946108 209.606312 
L 200.075653 209.606312 
L 200.075653 200.483314 
L 195.946108 200.483314 
z
" clip-path="url(#pcb008c6bbe)" style="fill: #476b85"/>
   </g>
   <g id="patch_34">
    <path d="M 200.075653 209.606312 
L 204.205199 209.606312 
L 204.205199 195.921815 
L 200.075653 195.921815 
z
" clip-path="url(#pcb008c6bbe)" style="fill: #476b85"/>
   </g>
   <g id="patch_35">
    <path d="M 204.205199 209.606312 
L 208.334744 209.606312 
L 208.334744 188.68107 
L 204.205199 188.68107 
z
" clip-path="url(#pcb008c6bbe)" style="fill: #476b85"/>
   </g>
   <g id="patch_36">
    <path d="M 208.334744 209.606312 
L 212.46429 209.606312 
L 212.46429 176.539682 
L 208.334744 176.539682 
z
" clip-path="url(#pcb008c6bbe)" style="fill: #476b85"/>
   </g>
   <g id="patch_37">
    <path d="M 212.46429 209.606312 
L 216.593835 209.606312 
L 216.593835 157.004934 
L 212.46429 157.004934 
z
" clip-path="url(#pcb008c6bbe)" style="fill: #476b85"/>
   </g>
   <g id="patch_38">
    <path d="M 216.593835 209.606312 
L 220.723381 209.606312 
L 220.723381 128.906777 
L 216.593835 128.906777 
z
" clip-path="url(#pcb008c6bbe)" style="fill: #476b85"/>
   </g>
   <g id="patch_39">
    <path d="M 220.723381 209.606312 
L 224.852926 209.606312 
L 224.852926 99.926842 
L 220.723381 99.926842 
z
" clip-path="url(#pcb008c6bbe)" style="fill: #476b85"/>
   </g>
   <g id="patch_40">
    <path d="M 224.852926 209.606312 
L 228.982472 209.606312 
L 228.982472 62.943088 
L 224.852926 62.943088 
z
" clip-path="url(#pcb008c6bbe)" style="fill: #476b85"/>
   </g>
   <g id="patch_41">
    <path d="M 228.982472 209.606312 
L 233.112017 209.606312 
L 233.112017 32.030027 
L 228.982472 32.030027 
z
" clip-path="url(#pcb008c6bbe)" style="fill: #476b85"/>
   </g>
   <g id="patch_42">
    <path d="M 233.112017 209.606312 
L 237.241563 209.606312 
L 237.241563 30.368217 
L 233.112017 30.368217 
z
" clip-path="url(#pcb008c6bbe)" style="fill: #476b85"/>
   </g>
   <g id="patch_43">
    <path d="M 237.241563 209.606312 
L 241.371108 209.606312 
L 241.371108 47.545908 
L 237.241563 47.545908 
z
" clip-path="url(#pcb008c6bbe)" style="fill: #476b85"/>
   </g>
   <g id="patch_44">
    <path d="M 241.371108 209.606312 
L 245.500653 209.606312 
L 245.500653 83.698757 
L 241.371108 83.698757 
z
" clip-path="url(#pcb008c6bbe)" style="fill: #476b85"/>
   </g>
   <g id="patch_45">
    <path d="M 245.500653 209.606312 
L 249.630199 209.606312 
L 249.630199 117.443678 
L 245.500653 117.443678 
z
" clip-path="url(#pcb008c6bbe)" style="fill: #476b85"/>
   </g>
   <g id="patch_46">
    <path d="M 249.630199 209.606312 
L 253.759744 209.606312 
L 253.759744 145.76228 
L 249.630199 145.76228 
z
" clip-path="url(#pcb008c6bbe)" style="fill: #476b85"/>
   </g>
   <g id="patch_47">
    <path d="M 253.759744 209.606312 
L 257.88929 209.606312 
L 257.88929 165.754873 
L 253.759744 165.754873 
z
" clip-path="url(#pcb008c6bbe)" style="fill: #476b85"/>
   </g>
   <g id="patch_48">
    <path d="M 257.88929 209.606312 
L 262.018835 209.606312 
L 262.018835 180.287233 
L 257.88929 180.287233 
z
" clip-path="url(#pcb008c6bbe)" style="fill: #476b85"/>
   </g>
   <g id="patch_49">
    <path d="M 262.018835 209.606312 
L 266.148381 209.606312 
L 266.148381 190.088522 
L 262.018835 190.088522 
z
" clip-path="url(#pcb008c6bbe)" style="fill: #476b85"/>
   </g>
   <g id="patch_50">
    <path d="M 266.148381 209.606312 
L 270.277926 209.606312 
L 270.277926 196.108344 
L 266.148381 196.108344 
z
" clip-path="url(#pcb008c6bbe)" style="fill: #476b85"/>
   </g>
   <g id="patch_51">
    <path d="M 270.277926 209.606312 
L 274.407472 209.606312 
L 274.407472 201.195518 
L 270.277926 201.195518 
z
" clip-path="url(#pcb008c6bbe)" style="fill: #476b85"/>
   </g>
   <g id="patch_52">
    <path d="M 274.407472 209.606312 
L 278.537017 209.606312 
L 278.537017 203.060815 
L 274.407472 203.060815 
z
" clip-path="url(#pcb008c6bbe)" style="fill: #476b85"/>
   </g>
   <g id="patch_53">
    <path d="M 278.537017 209.606312 
L 282.666562 209.606312 
L 282.666562 205.790932 
L 278.537017 205.790932 
z
" clip-path="url(#pcb008c6bbe)" style="fill: #476b85"/>
   </g>
   <g id="patch_54">
    <path d="M 282.666562 209.606312 
L 286.796108 209.606312 
L 286.796108 206.486179 
L 282.666562 206.486179 
z
" clip-path="url(#pcb008c6bbe)" style="fill: #476b85"/>
   </g>
   <g id="patch_55">
    <path d="M 286.796108 209.606312 
L 290.925653 209.606312 
L 290.925653 207.537528 
L 286.796108 207.537528 
z
" clip-path="url(#pcb008c6bbe)" style="fill: #476b85"/>
   </g>
   <g id="patch_56">
    <path d="M 290.925653 209.606312 
L 295.055199 209.606312 
L 295.055199 207.995374 
L 290.925653 207.995374 
z
" clip-path="url(#pcb008c6bbe)" style="fill: #476b85"/>
   </g>
   <g id="patch_57">
    <path d="M 295.055199 209.606312 
L 299.184744 209.606312 
L 299.184744 208.656707 
L 295.055199 208.656707 
z
" clip-path="url(#pcb008c6bbe)" style="fill: #476b85"/>
   </g>
   <g id="patch_58">
    <path d="M 299.184744 209.606312 
L 303.31429 209.606312 
L 303.31429 208.860194 
L 299.184744 208.860194 
z
" clip-path="url(#pcb008c6bbe)" style="fill: #476b85"/>
   </g>
   <g id="patch_59">
    <path d="M 303.31429 209.606312 
L 307.443835 209.606312 
L 307.443835 209.114552 
L 303.31429 209.114552 
z
" clip-path="url(#pcb008c6bbe)" style="fill: #476b85"/>
   </g>
   <g id="patch_60">
    <path d="M 307.443835 209.606312 
L 311.573381 209.606312 
L 311.573381 209.233253 
L 307.443835 209.233253 
z
" clip-path="url(#pcb008c6bbe)" style="fill: #476b85"/>
   </g>
   <g id="patch_61">
    <path d="M 311.573381 209.606312 
L 315.702926 209.606312 
L 315.702926 209.165424 
L 311.573381 209.165424 
z
" clip-path="url(#pcb008c6bbe)" style="fill: #476b85"/>
   </g>
   <g id="patch_62">
    <path d="M 315.702926 209.606312 
L 319.832472 209.606312 
L 319.832472 209.419783 
L 315.702926 209.419783 
z
" clip-path="url(#pcb008c6bbe)" style="fill: #476b85"/>
   </g>
   <g id="patch_63">
    <path d="M 319.832472 209.606312 
L 323.962017 209.606312 
L 323.962017 209.368911 
L 319.832472 209.368911 
z
" clip-path="url(#pcb008c6bbe)" style="fill: #476b85"/>
   </g>
   <g id="patch_64">
    <path d="M 323.962017 209.606312 
L 328.091563 209.606312 
L 328.091563 209.43674 
L 323.962017 209.43674 
z
" clip-path="url(#pcb008c6bbe)" style="fill: #476b85"/>
   </g>
   <g id="patch_65">
    <path d="M 328.091563 209.606312 
L 332.221108 209.606312 
L 332.221108 209.385868 
L 328.091563 209.385868 
z
" clip-path="url(#pcb008c6bbe)" style="fill: #476b85"/>
   </g>
   <g id="patch_66">
    <path d="M 332.221108 209.606312 
L 336.350653 209.606312 
L 336.350653 209.351954 
L 332.221108 209.351954 
z
" clip-path="url(#pcb008c6bbe)" style="fill: #476b85"/>
   </g>
   <g id="patch_67">
    <path d="M 336.350653 209.606312 
L 340.480199 209.606312 
L 340.480199 209.521526 
L 336.350653 209.521526 
z
" clip-path="url(#pcb008c6bbe)" style="fill: #476b85"/>
   </g>
   <g id="patch_68">
    <path d="M 340.480199 209.606312 
L 344.609744 209.606312 
L 344.609744 209.419783 
L 340.480199 209.419783 
z
" clip-path="url(#pcb008c6bbe)" style="fill: #476b85"/>
   </g>
   <g id="patch_69">
    <path d="M 344.609744 209.606312 
L 348.73929 209.606312 
L 348.73929 209.43674 
L 344.609744 209.43674 
z
" clip-path="url(#pcb008c6bbe)" style="fill: #476b85"/>
   </g>
   <g id="patch_70">
    <path d="M 348.73929 209.606312 
L 352.868835 209.606312 
L 352.868835 209.521526 
L 348.73929 209.521526 
z
" clip-path="url(#pcb008c6bbe)" style="fill: #476b85"/>
   </g>
   <g id="patch_71">
    <path d="M 352.868835 209.606312 
L 356.998381 209.606312 
L 356.998381 209.555441 
L 352.868835 209.555441 
z
" clip-path="url(#pcb008c6bbe)" style="fill: #476b85"/>
   </g>
   <g id="patch_72">
    <path d="M 356.998381 209.606312 
L 361.127926 209.606312 
L 361.127926 209.470655 
L 356.998381 209.470655 
z
" clip-path="url(#pcb008c6bbe)" style="fill: #476b85"/>
   </g>
   <g id="patch_73">
    <path d="M 361.127926 209.606312 
L 365.257472 209.606312 
L 365.257472 209.521526 
L 361.127926 209.521526 
z
" clip-path="url(#pcb008c6bbe)" style="fill: #476b85"/>
   </g>
   <g id="patch_74">
    <path d="M 365.257472 209.606312 
L 369.387017 209.606312 
L 369.387017 209.521526 
L 365.257472 209.521526 
z
" clip-path="url(#pcb008c6bbe)" style="fill: #476b85"/>
   </g>
   <g id="patch_75">
    <path d="M 369.387017 209.606312 
L 373.516563 209.606312 
L 373.516563 209.589355 
L 369.387017 209.589355 
z
" clip-path="url(#pcb008c6bbe)" style="fill: #476b85"/>
   </g>
   <g id="patch_76">
    <path d="M 373.516562 209.606312 
L 377.646108 209.606312 
L 377.646108 209.487612 
L 373.516562 209.487612 
z
" clip-path="url(#pcb008c6bbe)" style="fill: #476b85"/>
   </g>
   <g id="patch_77">
    <path d="M 377.646108 209.606312 
L 381.775653 209.606312 
L 381.775653 209.572398 
L 377.646108 209.572398 
z
" clip-path="url(#pcb008c6bbe)" style="fill: #476b85"/>
   </g>
   <g id="patch_78">
    <path d="M 381.775653 209.606312 
L 385.905199 209.606312 
L 385.905199 209.538484 
L 381.775653 209.538484 
z
" clip-path="url(#pcb008c6bbe)" style="fill: #476b85"/>
   </g>
   <g id="patch_79">
    <path d="M 385.905199 209.606312 
L 390.034744 209.606312 
L 390.034744 209.555441 
L 385.905199 209.555441 
z
" clip-path="url(#pcb008c6bbe)" style="fill: #476b85"/>
   </g>
   <g id="patch_80">
    <path d="M 390.034744 209.606312 
L 394.16429 209.606312 
L 394.16429 209.589355 
L 390.034744 209.589355 
z
" clip-path="url(#pcb008c6bbe)" style="fill: #476b85"/>
   </g>
   <g id="patch_81">
    <path d="M 394.16429 209.606312 
L 398.293835 209.606312 
L 398.293835 209.555441 
L 394.16429 209.555441 
z
" clip-path="url(#pcb008c6bbe)" style="fill: #476b85"/>
   </g>
   <g id="patch_82">
    <path d="M 398.293835 209.606312 
L 402.423381 209.606312 
L 402.423381 209.555441 
L 398.293835 209.555441 
z
" clip-path="url(#pcb008c6bbe)" style="fill: #476b85"/>
   </g>
   <g id="matplotlib.axis_1">
    <g id="xtick_1">
     <g id="line2d_1">
      <defs>
       <path id="mf725b6596a" d="M 0 0 
L 0 3.5 
" style="stroke: #000000; stroke-width: 0.8"/>
      </defs>
      <g>
       <use xlink:href="#mf725b6596a" x="59.064581" y="209.606312" style="stroke: #000000; stroke-width: 0.8"/>
      </g>
     </g>
     <g id="text_1">
      <text style="font: 9px 'DejaVu Sans', 'Bitstream Vera Sans', 'Computer Modern Sans Serif', 'Lucida Grande', 'Verdana', 'Geneva', 'Lucid', 'Arial', 'Helvetica', 'Avant Garde', sans-serif; text-anchor: middle" x="59.064581" y="223.444906" transform="rotate(-0 59.064581 223.444906)">−15</text>
     </g>
    </g>
    <g id="xtick_2">
     <g id="line2d_2">
      <g>
       <use xlink:href="#mf725b6596a" x="117.539928" y="209.606312" style="stroke: #000000; stroke-width: 0.8"/>
      </g>
     </g>
     <g id="text_2">
      <text style="font: 9px 'DejaVu Sans', 'Bitstream Vera Sans', 'Computer Modern Sans Serif', 'Lucida Grande', 'Verdana', 'Geneva', 'Lucid', 'Arial', 'Helvetica', 'Avant Garde', sans-serif; text-anchor: middle" x="117.539928" y="223.444906" transform="rotate(-0 117.539928 223.444906)">−10</text>
     </g>
    </g>
    <g id="xtick_3">
     <g id="line2d_3">
      <g>
       <use xlink:href="#mf725b6596a" x="176.015274" y="209.606312" style="stroke: #000000; stroke-width: 0.8"/>
      </g>
     </g>
     <g id="text_3">
      <text style="font: 9px 'DejaVu Sans', 'Bitstream Vera Sans', 'Computer Modern Sans Serif', 'Lucida Grande', 'Verdana', 'Geneva', 'Lucid', 'Arial', 'Helvetica', 'Avant Garde', sans-serif; text-anchor: middle" x="176.015274" y="223.444906" transform="rotate(-0 176.015274 223.444906)">−5</text>
     </g>
    </g>
    <g id="xtick_4">
     <g id="line2d_4">
      <g>
       <use xlink:href="#mf725b6596a" x="234.490621" y="209.606312" style="stroke: #000000; stroke-width: 0.8"/>
      </g>
     </g>
     <g id="text_4">
      <text style="font: 9px 'DejaVu Sans', 'Bitstream Vera Sans', 'Computer Modern Sans Serif', 'Lucida Grande', 'Verdana', 'Geneva', 'Lucid', 'Arial', 'Helvetica', 'Avant Garde', sans-serif; text-anchor: middle" x="234.490621" y="223.444906" transform="rotate(-0 234.490621 223.444906)">0</text>
     </g>
    </g>
    <g id="xtick_5">
     <g id="line2d_5">
      <g>
       <use xlink:href="#mf725b6596a" x="292.965968" y="209.606312" style="stroke: #000000; stroke-width: 0.8"/>
      </g>
     </g>
     <g id="text_5">
      <text style="font: 9px 'DejaVu Sans', 'Bitstream Vera Sans', 'Computer Modern Sans Serif', 'Lucida Grande', 'Verdana', 'Geneva', 'Lucid', 'Arial', 'Helvetica', 'Avant Garde', sans-serif; text-anchor: middle" x="292.965968" y="223.444906" transform="rotate(-0 292.965968 223.444906)">5</text>
     </g>
    </g>
    <g id="xtick_6">
     <g id="line2d_6">
      <g>
       <use xlink:href="#mf725b6596a" x="351.441314" y="209.606312" style="stroke: #000000; stroke-width: 0.8"/>
      </g>
     </g>
     <g id="text_6">
      <text style="font: 9px 'DejaVu Sans', 'Bitstream Vera Sans', 'Computer Modern Sans Serif', 'Lucida Grande', 'Verdana', 'Geneva', 'Lucid', 'Arial', 'Helvetica', 'Avant Garde', sans-serif; text-anchor: middle" x="351.441314" y="223.444906" transform="rotate(-0 351.441314 223.444906)">10</text>
     </g>
    </g>
    <g id="xtick_7">
     <g id="line2d_7">
      <g>
       <use xlink:href="#mf725b6596a" x="409.916661" y="209.606312" style="stroke: #000000; stroke-width: 0.8"/>
      </g>
     </g>
     <g id="text_7">
      <text style="font: 9px 'DejaVu Sans', 'Bitstream Vera Sans', 'Computer Modern Sans Serif', 'Lucida Grande', 'Verdana', 'Geneva', 'Lucid', 'Arial', 'Helvetica', 'Avant Garde', sans-serif; text-anchor: middle" x="409.916661" y="223.444906" transform="rotate(-0 409.916661 223.444906)">15</text>
     </g>
    </g>
    <g id="text_8">
     <text style="font: 9px 'DejaVu Sans', 'Bitstream Vera Sans', 'Computer Modern Sans Serif', 'Lucida Grande', 'Verdana', 'Geneva', 'Lucid', 'Arial', 'Helvetica', 'Avant Garde', sans-serif; text-anchor: middle" x="237.241563" y="236.155219" transform="rotate(-0 237.241563 236.155219)">Descriptive mean condition difference</text>
    </g>
   </g>
   <g id="matplotlib.axis_2">
    <g id="ytick_1">
     <g id="line2d_8">
      <defs>
       <path id="m093de95841" d="M 0 0 
L -3.5 0 
" style="stroke: #000000; stroke-width: 0.8"/>
      </defs>
      <g>
       <use xlink:href="#m093de95841" x="55.541562" y="209.606312" style="stroke: #000000; stroke-width: 0.8"/>
      </g>
     </g>
     <g id="text_9">
      <text style="font: 9px 'DejaVu Sans', 'Bitstream Vera Sans', 'Computer Modern Sans Serif', 'Lucida Grande', 'Verdana', 'Geneva', 'Lucid', 'Arial', 'Helvetica', 'Avant Garde', sans-serif; text-anchor: end" x="48.541562" y="213.025609" transform="rotate(-0 48.541562 213.025609)">0</text>
     </g>
    </g>
    <g id="ytick_2">
     <g id="line2d_9">
      <g>
       <use xlink:href="#m093de95841" x="55.541562" y="175.69182" style="stroke: #000000; stroke-width: 0.8"/>
      </g>
     </g>
     <g id="text_10">
      <text style="font: 9px 'DejaVu Sans', 'Bitstream Vera Sans', 'Computer Modern Sans Serif', 'Lucida Grande', 'Verdana', 'Geneva', 'Lucid', 'Arial', 'Helvetica', 'Avant Garde', sans-serif; text-anchor: end" x="48.541562" y="179.111116" transform="rotate(-0 48.541562 179.111116)">2000</text>
     </g>
    </g>
    <g id="ytick_3">
     <g id="line2d_10">
      <g>
       <use xlink:href="#m093de95841" x="55.541562" y="141.777327" style="stroke: #000000; stroke-width: 0.8"/>
      </g>
     </g>
     <g id="text_11">
      <text style="font: 9px 'DejaVu Sans', 'Bitstream Vera Sans', 'Computer Modern Sans Serif', 'Lucida Grande', 'Verdana', 'Geneva', 'Lucid', 'Arial', 'Helvetica', 'Avant Garde', sans-serif; text-anchor: end" x="48.541562" y="145.196623" transform="rotate(-0 48.541562 145.196623)">4000</text>
     </g>
    </g>
    <g id="ytick_4">
     <g id="line2d_11">
      <g>
       <use xlink:href="#m093de95841" x="55.541562" y="107.862834" style="stroke: #000000; stroke-width: 0.8"/>
      </g>
     </g>
     <g id="text_12">
      <text style="font: 9px 'DejaVu Sans', 'Bitstream Vera Sans', 'Computer Modern Sans Serif', 'Lucida Grande', 'Verdana', 'Geneva', 'Lucid', 'Arial', 'Helvetica', 'Avant Garde', sans-serif; text-anchor: end" x="48.541562" y="111.282131" transform="rotate(-0 48.541562 111.282131)">6000</text>
     </g>
    </g>
    <g id="ytick_5">
     <g id="line2d_12">
      <g>
       <use xlink:href="#m093de95841" x="55.541562" y="73.948341" style="stroke: #000000; stroke-width: 0.8"/>
      </g>
     </g>
     <g id="text_13">
      <text style="font: 9px 'DejaVu Sans', 'Bitstream Vera Sans', 'Computer Modern Sans Serif', 'Lucida Grande', 'Verdana', 'Geneva', 'Lucid', 'Arial', 'Helvetica', 'Avant Garde', sans-serif; text-anchor: end" x="48.541562" y="77.367638" transform="rotate(-0 48.541562 77.367638)">8000</text>
     </g>
    </g>
    <g id="ytick_6">
     <g id="line2d_13">
      <g>
       <use xlink:href="#m093de95841" x="55.541562" y="40.033848" style="stroke: #000000; stroke-width: 0.8"/>
      </g>
     </g>
     <g id="text_14">
      <text style="font: 9px 'DejaVu Sans', 'Bitstream Vera Sans', 'Computer Modern Sans Serif', 'Lucida Grande', 'Verdana', 'Geneva', 'Lucid', 'Arial', 'Helvetica', 'Avant Garde', sans-serif; text-anchor: end" x="48.541562" y="43.453145" transform="rotate(-0 48.541562 43.453145)">10000</text>
     </g>
    </g>
    <g id="text_15">
     <text style="font: 9px 'DejaVu Sans', 'Bitstream Vera Sans', 'Computer Modern Sans Serif', 'Lucida Grande', 'Verdana', 'Geneva', 'Lucid', 'Arial', 'Helvetica', 'Avant Garde', sans-serif; text-anchor: middle" x="14.038594" y="115.506312" transform="rotate(-90 14.038594 115.506312)">Voxels</text>
    </g>
   </g>
   <g id="line2d_14">
    <path d="M 234.490621 209.606312 
L 234.490621 21.406312 
" clip-path="url(#pcb008c6bbe)" style="fill: none; stroke: #000000; stroke-width: 0.8; stroke-linecap: square"/>
   </g>
   <g id="patch_83">
    <path d="M 55.541562 209.606312 
L 55.541562 21.406312 
" style="fill: none; stroke: #000000; stroke-width: 0.8; stroke-linejoin: miter; stroke-linecap: square"/>
   </g>
   <g id="patch_84">
    <path d="M 55.541562 209.606312 
L 418.941563 209.606312 
" style="fill: none; stroke: #000000; stroke-width: 0.8; stroke-linejoin: miter; stroke-linecap: square"/>
   </g>
   <g id="text_16">
    <text style="font: 10.8px 'DejaVu Sans', 'Bitstream Vera Sans', 'Computer Modern Sans Serif', 'Lucida Grande', 'Verdana', 'Geneva', 'Lucid', 'Arial', 'Helvetica', 'Avant Garde', sans-serif; text-anchor: middle" x="237.241563" y="15.406312" transform="rotate(-0 237.241563 15.406312)">Outcome valence — Positive → POSITIVE; negative → NEGATIVE</text>
   </g>
  </g>
 </g>
 <defs>
  <clipPath id="pcb008c6bbe">
   <rect x="55.541562" y="21.406312" width="363.4" height="188.2"/>
  </clipPath>
 </defs>
</svg>
