<?xml version="1.0" encoding="utf-8" standalone="no"?>
<!DOCTYPE svg PUBLIC "-//W3C//DTD SVG 1.1//EN"
  "http://www.w3.org/Graphics/SVG/1.1/DTD/svg11.dtd">
<svg xmlns:xlink="http://www.w3.org/1999/xlink" width="444.75011pt" height="245.226937pt" viewBox="0 0 444.75011 245.226937" xmlns="http://www.w3.org/2000/svg" version="1.1">
 <metadata>
  <rdf:RDF xmlns:dc="http://purl.org/dc/elements/1.1/" xmlns:cc="http://creativecommons.org/ns#" xmlns:rdf="http://www.w3.org/1999/02/22-rdf-syntax-ns#">
   <cc:Work>
    <dc:type rdf:resource="http://purl.org/dc/dcmitype/StillImage"/>
    <dc:date>2026-10-04T13:14:36.713530</dc:date>
    <dc:format>image/svg+xml</dc:format>
    <dc:creator>
     <cc:Agent>
      <dc:title>Matplotlib v3.7.1, https://matplotlib.org/</dc:title>
     </cc:Agent>
    </dc:creator>
   </cc:Work>
  </rdf:RDF>
 </metadata>
 <defs>
  <style type="text/css">*{stroke-linejoin: round; stroke-linecap: butt}</style>
 </defs>
 <g id="figure_1">
  <g id="patch_1">
   <path d="M 0 245.226937 
L 444.75011 245.226937 
L 444.75011 0 
L 0 0 
z
" style="fill: #ffffff"/>
  </g>
  <g id="axes_1">
   <g id="patch_2">
    <path d="M 55.541562 209.606312 
L 416.016657 209.606312 
L 416.016657 21.406312 
L 55.541562 21.406312 
z
" style="fill: #ffffff"/>
   </g>
   <g id="patch_3">
    <path d="M 71.926794 209.606312 
L 76.023102 209.606312 
L 76.023102 209.588453 
L 71.926794 209.588453 
z
" clip-path="url(#p4721a0d3e7)" style="fill: #476b85"/>
   </g>
   <g id="patch_4">
    <path d="M 76.023102 209.606312 
L 80.11941 209.606312 
L 80.11941 209.606312 
L 76.023102 209.606312 
z
" clip-path="url(#p4721a0d3e7)" style="fill: #476b85"/>
   </g>
   <g id="patch_5">
    <path d="M 80.11941 209.606312 
L 84.215718 209.606312 
L 84.215718 209.606312 
L 80.11941 209.606312 
z
" clip-path="url(#p4721a0d3e7)" style="fill: #476b85"/>
   </g>
   <g id="patch_6">
    <path d="M 84.215718 209.606312 
L 88.312026 209.606312 
L 88.312026 209.552734 
L 84.215718 209.552734 
z
" clip-path="url(#p4721a0d3e7)" style="fill: #476b85"/>
   </g>
   <g id="patch_7">
    <path d="M 88.312026 209.606312 
L 92.408334 209.606312 
L 92.408334 209.606312 
L 88.312026 209.606312 
z
" clip-path="url(#p4721a0d3e7)" style="fill: #476b85"/>
   </g>
   <g id="patch_8">
    <path d="M 92.408334 209.606312 
L 96.504641 209.606312 
L 96.504641 209.606312 
L 92.408334 209.606312 
z
" clip-path="url(#p4721a0d3e7)" style="fill: #476b85"/>
   </g>
   <g id="patch_9">
    <path d="M 96.504641 209.606312 
L 100.600949 209.606312 
L 100.600949 209.588453 
L 96.504641 209.588453 
z
" clip-path="url(#p4721a0d3e7)" style="fill: #476b85"/>
   </g>
   <g id="patch_10">
    <path d="M 100.600949 209.606312 
L 104.697257 209.606312 
L 104.697257 209.588453 
L 100.600949 209.588453 
z
" clip-path="url(#p4721a0d3e7)" style="fill: #476b85"/>
   </g>
   <g id="patch_11">
    <path d="M 104.697257 209.606312 
L 108.793565 209.606312 
L 108.793565 209.552734 
L 104.697257 209.552734 
z
" clip-path="url(#p4721a0d3e7)" style="fill: #476b85"/>
   </g>
   <g id="patch_12">
    <path d="M 108.793565 209.606312 
L 112.889873 209.606312 
L 112.889873 209.552734 
L 108.793565 209.552734 
z
" clip-path="url(#p4721a0d3e7)" style="fill: #476b85"/>
   </g>
   <g id="patch_13">
    <path d="M 112.889873 209.606312 
L 116.986181 209.606312 
L 116.986181 209.499155 
L 112.889873 209.499155 
z
" clip-path="url(#p4721a0d3e7)" style="fill: #476b85"/>
   </g>
   <g id="patch_14">
    <path d="M 116.986181 209.606312 
L 121.082489 209.606312 
L 121.082489 209.356279 
L 116.986181 209.356279 
z
" clip-path="url(#p4721a0d3e7)" style="fill: #476b85"/>
   </g>
   <g id="patch_15">
    <path d="M 121.082489 209.606312 
L 125.178797 209.606312 
L 125.178797 209.266982 
L 121.082489 209.266982 
z
" clip-path="url(#p4721a0d3e7)" style="fill: #476b85"/>
   </g>
   <g id="patch_16">
    <path d="M 125.178797 209.606312 
L 129.275105 209.606312 
L 129.275105 208.94551 
L 125.178797 208.94551 
z
" clip-path="url(#p4721a0d3e7)" style="fill: #476b85"/>
   </g>
   <g id="patch_17">
    <path d="M 129.275105 209.606312 
L 133.371412 209.606312 
L 133.371412 208.624039 
L 129.275105 208.624039 
z
" clip-path="url(#p4721a0d3e7)" style="fill: #476b85"/>
   </g>
   <g id="patch_18">
    <path d="M 133.371412 209.606312 
L 137.46772 209.606312 
L 137.46772 207.784642 
L 133.371412 207.784642 
z
" clip-path="url(#p4721a0d3e7)" style="fill: #476b85"/>
   </g>
   <g id="patch_19">
    <path d="M 137.46772 209.606312 
L 141.564028 209.606312 
L 141.564028 207.034542 
L 137.46772 207.034542 
z
" clip-path="url(#p4721a0d3e7)" style="fill: #476b85"/>
   </g>
   <g id="patch_20">
    <path d="M 141.564028 209.606312 
L 145.660336 209.606312 
L 145.660336 205.730798 
L 141.564028 205.730798 
z
" clip-path="url(#p4721a0d3e7)" style="fill: #476b85"/>
   </g>
   <g id="patch_21">
    <path d="M 145.660336 209.606312 
L 149.756644 209.606312 
L 149.756644 203.909127 
L 145.660336 203.909127 
z
" clip-path="url(#p4721a0d3e7)" style="fill: #476b85"/>
   </g>
   <g id="patch_22">
    <path d="M 149.756644 209.606312 
L 153.852952 209.606312 
L 153.852952 200.819431 
L 149.756644 200.819431 
z
" clip-path="url(#p4721a0d3e7)" style="fill: #476b85"/>
   </g>
   <g id="patch_23">
    <path d="M 153.852952 209.606312 
L 157.94926 209.606312 
L 157.94926 197.068933 
L 153.852952 197.068933 
z
" clip-path="url(#p4721a0d3e7)" style="fill: #476b85"/>
   </g>
   <g id="patch_24">
    <path d="M 157.94926 209.606312 
L 162.045568 209.606312 
L 162.045568 191.068136 
L 157.94926 191.068136 
z
" clip-path="url(#p4721a0d3e7)" style="fill: #476b85"/>
   </g>
   <g id="patch_25">
    <path d="M 162.045568 209.606312 
L 166.141876 209.606312 
L 166.141876 181.941923 
L 162.045568 181.941923 
z
" clip-path="url(#p4721a0d3e7)" style="fill: #476b85"/>
   </g>
   <g id="patch_26">
    <path d="M 166.141876 209.606312 
L 170.238183 209.606312 
L 170.238183 166.832773 
L 166.141876 166.832773 
z
" clip-path="url(#p4721a0d3e7)" style="fill: #476b85"/>
   </g>
   <g id="patch_27">
    <path d="M 170.238183 209.606312 
L 174.334491 209.606312 
L 174.334491 144.401222 
L 170.238183 144.401222 
z
" clip-path="url(#p4721a0d3e7)" style="fill: #476b85"/>
   </g>
   <g id="patch_28">
    <path d="M 174.334491 209.606312 
L 178.430799 209.606312 
L 178.430799 115.129477 
L 174.334491 115.129477 
z
" clip-path="url(#p4721a0d3e7)" style="fill: #476b85"/>
   </g>
   <g id="patch_29">
    <path d="M 178.430799 209.606312 
L 182.527107 209.606312 
L 182.527107 79.321149 
L 178.430799 79.321149 
z
" clip-path="url(#p4721a0d3e7)" style="fill: #476b85"/>
   </g>
   <g id="patch_30">
    <path d="M 182.527107 209.606312 
L 186.623415 209.606312 
L 186.623415 44.102185 
L 182.527107 44.102185 
z
" clip-path="url(#p4721a0d3e7)" style="fill: #476b85"/>
   </g>
   <g id="patch_31">
    <path d="M 186.623415 209.606312 
L 190.719723 209.606312 
L 190.719723 30.368217 
L 186.623415 30.368217 
z
" clip-path="url(#p4721a0d3e7)" style="fill: #476b85"/>
   </g>
   <g id="patch_32">
    <path d="M 190.719723 209.606312 
L 194.816031 209.606312 
L 194.816031 62.158154 
L 190.719723 62.158154 
z
" clip-path="url(#p4721a0d3e7)" style="fill: #476b85"/>
   </g>
   <g id="patch_33">
    <path d="M 194.816031 209.606312 
L 198.912339 209.606312 
L 198.912339 98.770161 
L 194.816031 98.770161 
z
" clip-path="url(#p4721a0d3e7)" style="fill: #476b85"/>
   </g>
   <g id="patch_34">
    <path d="M 198.912339 209.606312 
L 203.008647 209.606312 
L 203.008647 127.791873 
L 198.912339 127.791873 
z
" clip-path="url(#p4721a0d3e7)" style="fill: #476b85"/>
   </g>
   <g id="patch_35">
    <path d="M 203.008647 209.606312 
L 207.104955 209.606312 
L 207.104955 143.38323 
L 203.008647 143.38323 
z
" clip-path="url(#p4721a0d3e7)" style="fill: #476b85"/>
   </g>
   <g id="patch_36">
    <path d="M 207.104955 209.606312 
L 211.201262 209.606312 
L 211.201262 157.349371 
L 207.104955 157.349371 
z
" clip-path="url(#p4721a0d3e7)" style="fill: #476b85"/>
   </g>
   <g id="patch_37">
    <path d="M 211.201262 209.606312 
L 215.29757 209.606312 
L 215.29757 165.136119 
L 211.201262 165.136119 
z
" clip-path="url(#p4721a0d3e7)" style="fill: #476b85"/>
   </g>
   <g id="patch_38">
    <path d="M 215.29757 209.606312 
L 219.393878 209.606312 
L 219.393878 173.530092 
L 215.29757 173.530092 
z
" clip-path="url(#p4721a0d3e7)" style="fill: #476b85"/>
   </g>
   <g id="patch_39">
    <path d="M 219.393878 209.606312 
L 223.490186 209.606312 
L 223.490186 176.994838 
L 219.393878 176.994838 
z
" clip-path="url(#p4721a0d3e7)" style="fill: #476b85"/>
   </g>
   <g id="patch_40">
    <path d="M 223.490186 209.606312 
L 227.586494 209.606312 
L 227.586494 183.013494 
L 223.490186 183.013494 
z
" clip-path="url(#p4721a0d3e7)" style="fill: #476b85"/>
   </g>
   <g id="patch_41">
    <path d="M 227.586494 209.606312 
L 231.682802 209.606312 
L 231.682802 185.495967 
L 227.586494 185.495967 
z
" clip-path="url(#p4721a0d3e7)" style="fill: #476b85"/>
   </g>
   <g id="patch_42">
    <path d="M 231.682802 209.606312 
L 235.77911 209.606312 
L 235.77911 189.639374 
L 231.682802 189.639374 
z
" clip-path="url(#p4721a0d3e7)" style="fill: #476b85"/>
   </g>
   <g id="patch_43">
    <path d="M 235.77911 209.606312 
L 239.875418 209.606312 
L 239.875418 192.907666 
L 235.77911 192.907666 
z
" clip-path="url(#p4721a0d3e7)" style="fill: #476b85"/>
   </g>
   <g id="patch_44">
    <path d="M 239.875418 209.606312 
L 243.971726 209.606312 
L 243.971726 196.122378 
L 239.875418 196.122378 
z
" clip-path="url(#p4721a0d3e7)" style="fill: #476b85"/>
   </g>
   <g id="patch_45">
    <path d="M 243.971726 209.606312 
L 248.068033 209.606312 
L 248.068033 198.176223 
L 243.971726 198.176223 
z
" clip-path="url(#p4721a0d3e7)" style="fill: #476b85"/>
   </g>
   <g id="patch_46">
    <path d="M 248.068033 209.606312 
L 252.164341 209.606312 
L 252.164341 200.372943 
L 248.068033 200.372943 
z
" clip-path="url(#p4721a0d3e7)" style="fill: #476b85"/>
   </g>
   <g id="patch_47">
    <path d="M 252.164341 209.606312 
L 256.260649 209.606312 
L 256.260649 202.498225 
L 252.164341 202.498225 
z
" clip-path="url(#p4721a0d3e7)" style="fill: #476b85"/>
   </g>
   <g id="patch_48">
    <path d="M 256.260649 209.606312 
L 260.356957 209.606312 
L 260.356957 202.748259 
L 256.260649 202.748259 
z
" clip-path="url(#p4721a0d3e7)" style="fill: #476b85"/>
   </g>
   <g id="patch_49">
    <path d="M 260.356957 209.606312 
L 264.453265 209.606312 
L 264.453265 204.694946 
L 260.356957 204.694946 
z
" clip-path="url(#p4721a0d3e7)" style="fill: #476b85"/>
   </g>
   <g id="patch_50">
    <path d="M 264.453265 209.606312 
L 268.549573 209.606312 
L 268.549573 205.26645 
L 264.453265 205.26645 
z
" clip-path="url(#p4721a0d3e7)" style="fill: #476b85"/>
   </g>
   <g id="patch_51">
    <path d="M 268.549573 209.606312 
L 272.645881 209.606312 
L 272.645881 205.837955 
L 268.549573 205.837955 
z
" clip-path="url(#p4721a0d3e7)" style="fill: #476b85"/>
   </g>
   <g id="patch_52">
    <path d="M 272.645881 209.606312 
L 276.742189 209.606312 
L 276.742189 206.838088 
L 272.645881 206.838088 
z
" clip-path="url(#p4721a0d3e7)" style="fill: #476b85"/>
   </g>
   <g id="patch_53">
    <path d="M 276.742189 209.606312 
L 280.838497 209.606312 
L 280.838497 206.873807 
L 276.742189 206.873807 
z
" clip-path="url(#p4721a0d3e7)" style="fill: #476b85"/>
   </g>
   <g id="patch_54">
    <path d="M 280.838497 209.606312 
L 284.934804 209.606312 
L 284.934804 207.963237 
L 280.838497 207.963237 
z
" clip-path="url(#p4721a0d3e7)" style="fill: #476b85"/>
   </g>
   <g id="patch_55">
    <path d="M 284.934804 209.606312 
L 289.031112 209.606312 
L 289.031112 207.85608 
L 284.934804 207.85608 
z
" clip-path="url(#p4721a0d3e7)" style="fill: #476b85"/>
   </g>
   <g id="patch_56">
    <path d="M 289.031112 209.606312 
L 293.12742 209.606312 
L 293.12742 207.909659 
L 289.031112 207.909659 
z
" clip-path="url(#p4721a0d3e7)" style="fill: #476b85"/>
   </g>
   <g id="patch_57">
    <path d="M 293.12742 209.606312 
L 297.223728 209.606312 
L 297.223728 208.624039 
L 293.12742 208.624039 
z
" clip-path="url(#p4721a0d3e7)" style="fill: #476b85"/>
   </g>
   <g id="patch_58">
    <path d="M 297.223728 209.606312 
L 301.320036 209.606312 
L 301.320036 208.374006 
L 297.223728 208.374006 
z
" clip-path="url(#p4721a0d3e7)" style="fill: #476b85"/>
   </g>
   <g id="patch_59">
    <path d="M 301.320036 209.606312 
L 305.416344 209.606312 
L 305.416344 208.731196 
L 301.320036 208.731196 
z
" clip-path="url(#p4721a0d3e7)" style="fill: #476b85"/>
   </g>
   <g id="patch_60">
    <path d="M 305.416344 209.606312 
L 309.512652 209.606312 
L 309.512652 208.677618 
L 305.416344 208.677618 
z
" clip-path="url(#p4721a0d3e7)" style="fill: #476b85"/>
   </g>
   <g id="patch_61">
    <path d="M 309.512652 209.606312 
L 313.60896 209.606312 
L 313.60896 208.784775 
L 309.512652 208.784775 
z
" clip-path="url(#p4721a0d3e7)" style="fill: #476b85"/>
   </g>
   <g id="patch_62">
    <path d="M 313.60896 209.606312 
L 317.705268 209.606312 
L 317.705268 208.94551 
L 313.60896 208.94551 
z
" clip-path="url(#p4721a0d3e7)" style="fill: #476b85"/>
   </g>
   <g id="patch_63">
    <path d="M 317.705268 209.606312 
L 321.801575 209.606312 
L 321.801575 208.874072 
L 317.705268 208.874072 
z
" clip-path="url(#p4721a0d3e7)" style="fill: #476b85"/>
   </g>
   <g id="patch_64">
    <path d="M 321.801575 209.606312 
L 325.897883 209.606312 
L 325.897883 208.94551 
L 321.801575 208.94551 
z
" clip-path="url(#p4721a0d3e7)" style="fill: #476b85"/>
   </g>
   <g id="patch_65">
    <path d="M 325.897883 209.606312 
L 329.994191 209.606312 
L 329.994191 209.124106 
L 325.897883 209.124106 
z
" clip-path="url(#p4721a0d3e7)" style="fill: #476b85"/>
   </g>
   <g id="patch_66">
    <path d="M 329.994191 209.606312 
L 334.090499 209.606312 
L 334.090499 209.141965 
L 329.994191 209.141965 
z
" clip-path="url(#p4721a0d3e7)" style="fill: #476b85"/>
   </g>
   <g id="patch_67">
    <path d="M 334.090499 209.606312 
L 338.186807 209.606312 
L 338.186807 209.124106 
L 334.090499 209.124106 
z
" clip-path="url(#p4721a0d3e7)" style="fill: #476b85"/>
   </g>
   <g id="patch_68">
    <path d="M 338.186807 209.606312 
L 342.283115 209.606312 
L 342.283115 209.374139 
L 338.186807 209.374139 
z
" clip-path="url(#p4721a0d3e7)" style="fill: #476b85"/>
   </g>
   <g id="patch_69">
    <path d="M 342.283115 209.606312 
L 346.379423 209.606312 
L 346.379423 209.213403 
L 342.283115 209.213403 
z
" clip-path="url(#p4721a0d3e7)" style="fill: #476b85"/>
   </g>
   <g id="patch_70">
    <path d="M 346.379423 209.606312 
L 350.475731 209.606312 
L 350.475731 209.32056 
L 346.379423 209.32056 
z
" clip-path="url(#p4721a0d3e7)" style="fill: #476b85"/>
   </g>
   <g id="patch_71">
    <path d="M 350.475731 209.606312 
L 354.572039 209.606312 
L 354.572039 209.302701 
L 350.475731 209.302701 
z
" clip-path="url(#p4721a0d3e7)" style="fill: #476b85"/>
   </g>
   <g id="patch_72">
    <path d="M 354.572039 209.606312 
L 358.668347 209.606312 
L 358.668347 209.32056 
L 354.572039 209.32056 
z
" clip-path="url(#p4721a0d3e7)" style="fill: #476b85"/>
   </g>
   <g id="patch_73">
    <path d="M 358.668347 209.606312 
L 362.764654 209.606312 
L 362.764654 209.481296 
L 358.668347 209.481296 
z
" clip-path="url(#p4721a0d3e7)" style="fill: #476b85"/>
   </g>
   <g id="patch_74">
    <path d="M 362.764654 209.606312 
L 366.860962 209.606312 
L 366.860962 209.463436 
L 362.764654 209.463436 
z
" clip-path="url(#p4721a0d3e7)" style="fill: #476b85"/>
   </g>
   <g id="patch_75">
    <path d="M 366.860962 209.606312 
L 370.95727 209.606312 
L 370.95727 209.570593 
L 366.860962 209.570593 
z
" clip-path="url(#p4721a0d3e7)" style="fill: #476b85"/>
   </g>
   <g id="patch_76">
    <path d="M 370.95727 209.606312 
L 375.053578 209.606312 
L 375.053578 209.552734 
L 370.95727 209.552734 
z
" clip-path="url(#p4721a0d3e7)" style="fill: #476b85"/>
   </g>
   <g id="patch_77">
    <path d="M 375.053578 209.606312 
L 379.149886 209.606312 
L 379.149886 209.588453 
L 375.053578 209.588453 
z
" clip-path="url(#p4721a0d3e7)" style="fill: #476b85"/>
   </g>
   <g id="patch_78">
    <path d="M 379.149886 209.606312 
L 383.246194 209.606312 
L 383.246194 209.606312 
L 379.149886 209.606312 
z
" clip-path="url(#p4721a0d3e7)" style="fill: #476b85"/>
   </g>
   <g id="patch_79">
    <path d="M 383.246194 209.606312 
L 387.342502 209.606312 
L 387.342502 209.606312 
L 383.246194 209.606312 
z
" clip-path="url(#p4721a0d3e7)" style="fill: #476b85"/>
   </g>
   <g id="patch_80">
    <path d="M 387.342502 209.606312 
L 391.43881 209.606312 
L 391.43881 209.606312 
L 387.342502 209.606312 
z
" clip-path="url(#p4721a0d3e7)" style="fill: #476b85"/>
   </g>
   <g id="patch_81">
    <path d="M 391.43881 209.606312 
L 395.535118 209.606312 
L 395.535118 209.606312 
L 391.43881 209.606312 
z
" clip-path="url(#p4721a0d3e7)" style="fill: #476b85"/>
   </g>
   <g id="patch_82">
    <path d="M 395.535118 209.606312 
L 399.631425 209.606312 
L 399.631425 209.588453 
L 395.535118 209.588453 
z
" clip-path="url(#p4721a0d3e7)" style="fill: #476b85"/>
   </g>
   <g id="matplotlib.axis_1">
    <g id="xtick_1">
     <g id="line2d_1">
      <defs>
       <path id="m9fff3beec1" d="M 0 0 
L 0 3.5 
" style="stroke: #000000; stroke-width: 0.8"/>
      </defs>
      <g>
       <use xlink:href="#m9fff3beec1" x="66.782252" y="209.606312" style="stroke: #000000; stroke-width: 0.8"/>
      </g>
     </g>
     <g id="text_1">
      <text style="font: 9px 'DejaVu Sans', 'Bitstream Vera Sans', 'Computer Modern Sans Serif', 'Lucida Grande', 'Verdana', 'Geneva', 'Lucid', 'Arial', 'Helvetica', 'Avant Garde', sans-serif; text-anchor: middle" x="66.782252" y="223.444906" transform="rotate(-0 66.782252 223.444906)">−60</text>
     </g>
    </g>
    <g id="xtick_2">
     <g id="line2d_2">
      <g>
       <use xlink:href="#m9fff3beec1" x="109.667381" y="209.606312" style="stroke: #000000; stroke-width: 0.8"/>
      </g>
     </g>
     <g id="text_2">
      <text style="font: 9px 'DejaVu Sans', 'Bitstream Vera Sans', 'Computer Modern Sans Serif', 'Lucida Grande', 'Verdana', 'Geneva', 'Lucid', 'Arial', 'Helvetica', 'Avant Garde', sans-serif; text-anchor: middle" x="109.667381" y="223.444906" transform="rotate(-0 109.667381 223.444906)">−40</text>
     </g>
    </g>
    <g id="xtick_3">
     <g id="line2d_3">
      <g>
       <use xlink:href="#m9fff3beec1" x="152.55251" y="209.606312" style="stroke: #000000; stroke-width: 0.8"/>
      </g>
     </g>
     <g id="text_3">
      <text style="font: 9px 'DejaVu Sans', 'Bitstream Vera Sans', 'Computer Modern Sans Serif', 'Lucida Grande', 'Verdana', 'Geneva', 'Lucid', 'Arial', 'Helvetica', 'Avant Garde', sans-serif; text-anchor: middle" x="152.55251" y="223.444906" transform="rotate(-0 152.55251 223.444906)">−20</text>
     </g>
    </g>
    <g id="xtick_4">
     <g id="line2d_4">
      <g>
       <use xlink:href="#m9fff3beec1" x="195.437639" y="209.606312" style="stroke: #000000; stroke-width: 0.8"/>
      </g>
     </g>
     <g id="text_4">
      <text style="font: 9px 'DejaVu Sans', 'Bitstream Vera Sans', 'Computer Modern Sans Serif', 'Lucida Grande', 'Verdana', 'Geneva', 'Lucid', 'Arial', 'Helvetica', 'Avant Garde', sans-serif; text-anchor: middle" x="195.437639" y="223.444906" transform="rotate(-0 195.437639 223.444906)">0</text>
     </g>
    </g>
    <g id="xtick_5">
     <g id="line2d_5">
      <g>
       <use xlink:href="#m9fff3beec1" x="238.322768" y="209.606312" style="stroke: #000000; stroke-width: 0.8"/>
      </g>
     </g>
     <g id="text_5">
      <text style="font: 9px 'DejaVu Sans', 'Bitstream Vera Sans', 'Computer Modern Sans Serif', 'Lucida Grande', 'Verdana', 'Geneva', 'Lucid', 'Arial', 'Helvetica', 'Avant Garde', sans-serif; text-anchor: middle" x="238.322768" y="223.444906" transform="rotate(-0 238.322768 223.444906)">20</text>
     </g>
    </g>
    <g id="xtick_6">
     <g id="line2d_6">
      <g>
       <use xlink:href="#m9fff3beec1" x="281.207897" y="209.606312" style="stroke: #000000; stroke-width: 0.8"/>
      </g>
     </g>
     <g id="text_6">
      <text style="font: 9px 'DejaVu Sans', 'Bitstream Vera Sans', 'Computer Modern Sans Serif', 'Lucida Grande', 'Verdana', 'Geneva', 'Lucid', 'Arial', 'Helvetica', 'Avant Garde', sans-serif; text-anchor: middle" x="281.207897" y="223.444906" transform="rotate(-0 281.207897 223.444906)">40</text>
     </g>
    </g>
    <g id="xtick_7">
     <g id="line2d_7">
      <g>
       <use xlink:href="#m9fff3beec1" x="324.093026" y="209.606312" style="stroke: #000000; stroke-width: 0.8"/>
      </g>
     </g>
     <g id="text_7">
      <text style="font: 9px 'DejaVu Sans', 'Bitstream Vera Sans', 'Computer Modern Sans Serif', 'Lucida Grande', 'Verdana', 'Geneva', 'Lucid', 'Arial', 'Helvetica', 'Avant Garde', sans-serif; text-anchor: middle" x="324.093026" y="223.444906" transform="rotate(-0 324.093026 223.444906)">60</text>
     </g>
    </g>
    <g id="xtick_8">
     <g id="line2d_8">
      <g>
       <use xlink:href="#m9fff3beec1" x="366.978155" y="209.606312" style="stroke: #000000; stroke-width: 0.8"/>
      </g>
     </g>
     <g id="text_8">
      <text style="font: 9px 'DejaVu Sans', 'Bitstream Vera Sans', 'Computer Modern Sans Serif', 'Lucida Grande', 'Verdana', 'Geneva', 'Lucid', 'Arial', 'Helvetica', 'Avant Garde', sans-serif; text-anchor: middle" x="366.978155" y="223.444906" transform="rotate(-0 366.978155 223.444906)">80</text>
     </g>
    </g>
    <g id="xtick_9">
     <g id="line2d_9">
      <g>
       <use xlink:href="#m9fff3beec1" x="409.863284" y="209.606312" style="stroke: #000000; stroke-width: 0.8"/>
      </g>
     </g>
     <g id="text_9">
      <text style="font: 9px 'DejaVu Sans', 'Bitstream Vera Sans', 'Computer Modern Sans Serif', 'Lucida Grande', 'Verdana', 'Geneva', 'Lucid', 'Arial', 'Helvetica', 'Avant Garde', sans-serif; text-anchor: middle" x="409.863284" y="223.444906" transform="rotate(-0 409.863284 223.444906)">100</text>
     </g>
    </g>
    <g id="text_10">
     <text style="font: 9px 'DejaVu Sans', 'Bitstream Vera Sans', 'Computer Modern Sans Serif', 'Lucida Grande', 'Verdana', 'Geneva', 'Lucid', 'Arial', 'Helvetica', 'Avant Garde', sans-serif; text-anchor: middle" x="235.77911" y="236.155219" transform="rotate(-0 235.77911 236.155219)">Descriptive mean condition difference</text>
    </g>
   </g>
   <g id="matplotlib.axis_2">
    <g id="ytick_1">
     <g id="line2d_10">
      <defs>
       <path id="m34e07fbb4c" d="M 0 0 
L -3.5 0 
" style="stroke: #000000; stroke-width: 0.8"/>
      </defs>
      <g>
       <use xlink:href="#m34e07fbb4c" x="55.541562" y="209.606312" style="stroke: #000000; stroke-width: 0.8"/>
      </g>
     </g>
     <g id="text_11">
      <text style="font: 9px 'DejaVu Sans', 'Bitstream Vera Sans', 'Computer Modern Sans Serif', 'Lucida Grande', 'Verdana', 'Geneva', 'Lucid', 'Arial', 'Helvetica', 'Avant Garde', sans-serif; text-anchor: end" x="48.541562" y="213.025609" transform="rotate(-0 48.541562 213.025609)">0</text>
     </g>
    </g>
    <g id="ytick_2">
     <g id="line2d_11">
      <g>
       <use xlink:href="#m34e07fbb4c" x="55.541562" y="173.887282" style="stroke: #000000; stroke-width: 0.8"/>
      </g>
     </g>
     <g id="text_12">
      <text style="font: 9px 'DejaVu Sans', 'Bitstream Vera Sans', 'Computer Modern Sans Serif', 'Lucida Grande', 'Verdana', 'Geneva', 'Lucid', 'Arial', 'Helvetica', 'Avant Garde', sans-serif; text-anchor: end" x="48.541562" y="177.306579" transform="rotate(-0 48.541562 177.306579)">2000</text>
     </g>
    </g>
    <g id="ytick_3">
     <g id="line2d_12">
      <g>
       <use xlink:href="#m34e07fbb4c" x="55.541562" y="138.168251" style="stroke: #000000; stroke-width: 0.8"/>
      </g>
     </g>
     <g id="text_13">
      <text style="font: 9px 'DejaVu Sans', 'Bitstream Vera Sans', 'Computer Modern Sans Serif', 'Lucida Grande', 'Verdana', 'Geneva', 'Lucid', 'Arial', 'Helvetica', 'Avant Garde', sans-serif; text-anchor: end" x="48.541562" y="141.587548" transform="rotate(-0 48.541562 141.587548)">4000</text>
     </g>
    </g>
    <g id="ytick_4">
     <g id="line2d_13">
      <g>
       <use xlink:href="#m34e07fbb4c" x="55.541562" y="102.449221" style="stroke: #000000; stroke-width: 0.8"/>
      </g>
     </g>
     <g id="text_14">
      <text style="font: 9px 'DejaVu Sans', 'Bitstream Vera Sans', 'Computer Modern Sans Serif', 'Lucida Grande', 'Verdana', 'Geneva', 'Lucid', 'Arial', 'Helvetica', 'Avant Garde', sans-serif; text-anchor: end" x="48.541562" y="105.868518" transform="rotate(-0 48.541562 105.868518)">6000</text>
     </g>
    </g>
    <g id="ytick_5">
     <g id="line2d_14">
      <g>
       <use xlink:href="#m34e07fbb4c" x="55.541562" y="66.73019" style="stroke: #000000; stroke-width: 0.8"/>
      </g>
     </g>
     <g id="text_15">
      <text style="font: 9px 'DejaVu Sans', 'Bitstream Vera Sans', 'Computer Modern Sans Serif', 'Lucida Grande', 'Verdana', 'Geneva', 'Lucid', 'Arial', 'Helvetica', 'Avant Garde', sans-serif; text-anchor: end" x="48.541562" y="70.149487" transform="rotate(-0 48.541562 70.149487)">8000</text>
     </g>
    </g>
    <g id="ytick_6">
     <g id="line2d_15">
      <g>
       <use xlink:href="#m34e07fbb4c" x="55.541562" y="31.01116" style="stroke: #000000; stroke-width: 0.8"/>
      </g>
     </g>
     <g id="text_16">
      <text style="font: 9px 'DejaVu Sans', 'Bitstream Vera Sans', 'Computer Modern Sans Serif', 'Lucida Grande', 'Verdana', 'Geneva', 'Lucid', 'Arial', 'Helvetica', 'Avant Garde', sans-serif; text-anchor: end" x="48.541562" y="34.430457" transform="rotate(-0 48.541562 34.430457)">10000</text>
     </g>
    </g>
    <g id="text_17">
     <text style="font: 9px 'DejaVu Sans', 'Bitstream Vera Sans', 'Computer Modern Sans Serif', 'Lucida Grande', 'Verdana', 'Geneva', 'Lucid', 'Arial', 'Helvetica', 'Avant Garde', sans-serif; text-anchor: middle" x="14.038594" y="115.506312" transform="rotate(-90 14.038594 115.506312)">Voxels</text>
    </g>
   </g>
   <g id="line2d_16">
    <path d="M 195.437639 209.606312 
L 195.437639 21.406312 
" clip-path="url(#p4721a0d3e7)" style="fill: none; stroke: #000000; stroke-width: 0.8; stroke-linecap: square"/>
   </g>
   <g id="patch_83">
    <path d="M 55.541562 209.606312 
L 55.541562 21.406312 
" style="fill: none; stroke: #000000; stroke-width: 0.8; stroke-linejoin: miter; stroke-linecap: square"/>
   </g>
   <g id="patch_84">
    <path d="M 55.541562 209.606312 
L 416.016657 209.606312 
" style="fill: none; stroke: #000000; stroke-width: 0.8; stroke-linejoin: miter; stroke-linecap: square"/>
   </g>
   <g id="text_18">
    <text style="font: 10.8px 'DejaVu Sans', 'Bitstream Vera Sans', 'Computer Modern Sans Serif', 'Lucida Grande', 'Verdana', 'Geneva', 'Lucid', 'Arial', 'Helvetica', 'Avant Garde', sans-serif; text-anchor: middle" x="235.77911" y="15.406312" transform="rotate(-0 235.77911 15.406312)">Closeness: negative outcome — Positive → FRIEND; negative → STRANGER</text>
   </g>
  </g>
 </g>
 <defs>
  <clipPath id="p4721a0d3e7">
   <rect x="55.541562" y="21.406312" width="360.475094" height="188.2"/>
  </clipPath>
 </defs>
</svg>
