<?xml version="1.0" encoding="utf-8" standalone="no"?>
<!DOCTYPE svg PUBLIC "-//W3C//DTD SVG 1.1//EN"
  "http://www.w3.org/Graphics/SVG/1.1/DTD/svg11.dtd">
<svg xmlns:xlink="http://www.w3.org/1999/xlink" width="434.841906pt" height="245.226937pt" viewBox="0 0 434.841906 245.226937" xmlns="http://www.w3.org/2000/svg" version="1.1">
 <metadata>
  <rdf:RDF xmlns:dc="http://purl.org/dc/elements/1.1/" xmlns:cc="http://creativecommons.org/ns#" xmlns:rdf="http://www.w3.org/1999/02/22-rdf-syntax-ns#">
   <cc:Work>
    <dc:type rdf:resource="http://purl.org/dc/dcmitype/StillImage"/>
    <dc:date>2026-10-04T13:13:50.225174</dc:date>
    <dc:format>image/svg+xml</dc:format>
    <dc:creator>
     <cc:Agent>
      <dc:title>Matplotlib v3.7.1, https://matplotlib.org/</dc:title>
     </cc:Agent>
    </dc:creator>
   </cc:Work>
  </rdf:RDF>
 </metadata>
 <defs>
  <style type="text/css">*{stroke-linejoin: round; stroke-linecap: butt}</style>
 </defs>
 <g id="figure_1">
  <g id="patch_1">
   <path d="M 0 245.226937 
L 434.841906 245.226937 
L 434.841906 0 
L 0 0 
z
" style="fill: #ffffff"/>
  </g>
  <g id="axes_1">
   <g id="patch_2">
    <path d="M 49.815312 209.606312 
L 418.975313 209.606312 
L 418.975313 21.406312 
L 49.815312 21.406312 
z
" style="fill: #ffffff"/>
   </g>
   <g id="patch_3">
    <path d="M 66.595313 209.606312 
L 70.790312 209.606312 
L 70.790312 209.498952 
L 66.595313 209.498952 
z
" clip-path="url(#p5242fd246d)" style="fill: #476b85"/>
   </g>
   <g id="patch_4">
    <path d="M 70.790312 209.606312 
L 74.985313 209.606312 
L 74.985313 209.552632 
L 70.790312 209.552632 
z
" clip-path="url(#p5242fd246d)" style="fill: #476b85"/>
   </g>
   <g id="patch_5">
    <path d="M 74.985313 209.606312 
L 79.180313 209.606312 
L 79.180313 209.445272 
L 74.985313 209.445272 
z
" clip-path="url(#p5242fd246d)" style="fill: #476b85"/>
   </g>
   <g id="patch_6">
    <path d="M 79.180312 209.606312 
L 83.375312 209.606312 
L 83.375312 209.579472 
L 79.180312 209.579472 
z
" clip-path="url(#p5242fd246d)" style="fill: #476b85"/>
   </g>
   <g id="patch_7">
    <path d="M 83.375313 209.606312 
L 87.570313 209.606312 
L 87.570313 209.445272 
L 83.375313 209.445272 
z
" clip-path="url(#p5242fd246d)" style="fill: #476b85"/>
   </g>
   <g id="patch_8">
    <path d="M 87.570312 209.606312 
L 91.765312 209.606312 
L 91.765312 209.257391 
L 87.570312 209.257391 
z
" clip-path="url(#p5242fd246d)" style="fill: #476b85"/>
   </g>
   <g id="patch_9">
    <path d="M 91.765312 209.606312 
L 95.960313 209.606312 
L 95.960313 209.311072 
L 91.765312 209.311072 
z
" clip-path="url(#p5242fd246d)" style="fill: #476b85"/>
   </g>
   <g id="patch_10">
    <path d="M 95.960313 209.606312 
L 100.155313 209.606312 
L 100.155313 209.311072 
L 95.960313 209.311072 
z
" clip-path="url(#p5242fd246d)" style="fill: #476b85"/>
   </g>
   <g id="patch_11">
    <path d="M 100.155312 209.606312 
L 104.350312 209.606312 
L 104.350312 209.069511 
L 100.155312 209.069511 
z
" clip-path="url(#p5242fd246d)" style="fill: #476b85"/>
   </g>
   <g id="patch_12">
    <path d="M 104.350313 209.606312 
L 108.545313 209.606312 
L 108.545313 209.123191 
L 104.350313 209.123191 
z
" clip-path="url(#p5242fd246d)" style="fill: #476b85"/>
   </g>
   <g id="patch_13">
    <path d="M 108.545313 209.606312 
L 112.740313 209.606312 
L 112.740313 208.586389 
L 108.545313 208.586389 
z
" clip-path="url(#p5242fd246d)" style="fill: #476b85"/>
   </g>
   <g id="patch_14">
    <path d="M 112.740313 209.606312 
L 116.935313 209.606312 
L 116.935313 208.532709 
L 112.740313 208.532709 
z
" clip-path="url(#p5242fd246d)" style="fill: #476b85"/>
   </g>
   <g id="patch_15">
    <path d="M 116.935313 209.606312 
L 121.130313 209.606312 
L 121.130313 208.291148 
L 116.935313 208.291148 
z
" clip-path="url(#p5242fd246d)" style="fill: #476b85"/>
   </g>
   <g id="patch_16">
    <path d="M 121.130313 209.606312 
L 125.325313 209.606312 
L 125.325313 207.324905 
L 121.130313 207.324905 
z
" clip-path="url(#p5242fd246d)" style="fill: #476b85"/>
   </g>
   <g id="patch_17">
    <path d="M 125.325313 209.606312 
L 129.520313 209.606312 
L 129.520313 207.137025 
L 125.325313 207.137025 
z
" clip-path="url(#p5242fd246d)" style="fill: #476b85"/>
   </g>
   <g id="patch_18">
    <path d="M 129.520312 209.606312 
L 133.715313 209.606312 
L 133.715313 206.251302 
L 129.520312 206.251302 
z
" clip-path="url(#p5242fd246d)" style="fill: #476b85"/>
   </g>
   <g id="patch_19">
    <path d="M 133.715313 209.606312 
L 137.910313 209.606312 
L 137.910313 205.392419 
L 133.715313 205.392419 
z
" clip-path="url(#p5242fd246d)" style="fill: #476b85"/>
   </g>
   <g id="patch_20">
    <path d="M 137.910313 209.606312 
L 142.105313 209.606312 
L 142.105313 204.801937 
L 137.910313 204.801937 
z
" clip-path="url(#p5242fd246d)" style="fill: #476b85"/>
   </g>
   <g id="patch_21">
    <path d="M 142.105313 209.606312 
L 146.300313 209.606312 
L 146.300313 202.144769 
L 142.105313 202.144769 
z
" clip-path="url(#p5242fd246d)" style="fill: #476b85"/>
   </g>
   <g id="patch_22">
    <path d="M 146.300313 209.606312 
L 150.495313 209.606312 
L 150.495313 199.648641 
L 146.300313 199.648641 
z
" clip-path="url(#p5242fd246d)" style="fill: #476b85"/>
   </g>
   <g id="patch_23">
    <path d="M 150.495313 209.606312 
L 154.690313 209.606312 
L 154.690313 196.45467 
L 150.495313 196.45467 
z
" clip-path="url(#p5242fd246d)" style="fill: #476b85"/>
   </g>
   <g id="patch_24">
    <path d="M 154.690313 209.606312 
L 158.885313 209.606312 
L 158.885313 191.918696 
L 154.690313 191.918696 
z
" clip-path="url(#p5242fd246d)" style="fill: #476b85"/>
   </g>
   <g id="patch_25">
    <path d="M 158.885313 209.606312 
L 163.080313 209.606312 
L 163.080313 187.0338 
L 158.885313 187.0338 
z
" clip-path="url(#p5242fd246d)" style="fill: #476b85"/>
   </g>
   <g id="patch_26">
    <path d="M 163.080313 209.606312 
L 167.275313 209.606312 
L 167.275313 178.096051 
L 163.080313 178.096051 
z
" clip-path="url(#p5242fd246d)" style="fill: #476b85"/>
   </g>
   <g id="patch_27">
    <path d="M 167.275313 209.606312 
L 171.470313 209.606312 
L 171.470313 171.54707 
L 167.275313 171.54707 
z
" clip-path="url(#p5242fd246d)" style="fill: #476b85"/>
   </g>
   <g id="patch_28">
    <path d="M 171.470313 209.606312 
L 175.665313 209.606312 
L 175.665313 161.106277 
L 171.470313 161.106277 
z
" clip-path="url(#p5242fd246d)" style="fill: #476b85"/>
   </g>
   <g id="patch_29">
    <path d="M 175.665313 209.606312 
L 179.860313 209.606312 
L 179.860313 148.947718 
L 175.665313 148.947718 
z
" clip-path="url(#p5242fd246d)" style="fill: #476b85"/>
   </g>
   <g id="patch_30">
    <path d="M 179.860313 209.606312 
L 184.055313 209.606312 
L 184.055313 132.736306 
L 179.860313 132.736306 
z
" clip-path="url(#p5242fd246d)" style="fill: #476b85"/>
   </g>
   <g id="patch_31">
    <path d="M 184.055313 209.606312 
L 188.250313 209.606312 
L 188.250313 112.606241 
L 184.055313 112.606241 
z
" clip-path="url(#p5242fd246d)" style="fill: #476b85"/>
   </g>
   <g id="patch_32">
    <path d="M 188.250313 209.606312 
L 192.445313 209.606312 
L 192.445313 98.354155 
L 188.250313 98.354155 
z
" clip-path="url(#p5242fd246d)" style="fill: #476b85"/>
   </g>
   <g id="patch_33">
    <path d="M 192.445313 209.606312 
L 196.640313 209.606312 
L 196.640313 78.921933 
L 192.445313 78.921933 
z
" clip-path="url(#p5242fd246d)" style="fill: #476b85"/>
   </g>
   <g id="patch_34">
    <path d="M 196.640313 209.606312 
L 200.835313 209.606312 
L 200.835313 55.732099 
L 196.640313 55.732099 
z
" clip-path="url(#p5242fd246d)" style="fill: #476b85"/>
   </g>
   <g id="patch_35">
    <path d="M 200.835313 209.606312 
L 205.030313 209.606312 
L 205.030313 43.922461 
L 200.835313 43.922461 
z
" clip-path="url(#p5242fd246d)" style="fill: #476b85"/>
   </g>
   <g id="patch_36">
    <path d="M 205.030313 209.606312 
L 209.225313 209.606312 
L 209.225313 35.172593 
L 205.030313 35.172593 
z
" clip-path="url(#p5242fd246d)" style="fill: #476b85"/>
   </g>
   <g id="patch_37">
    <path d="M 209.225313 209.606312 
L 213.420313 209.606312 
L 213.420313 30.368217 
L 209.225313 30.368217 
z
" clip-path="url(#p5242fd246d)" style="fill: #476b85"/>
   </g>
   <g id="patch_38">
    <path d="M 213.420313 209.606312 
L 217.615313 209.606312 
L 217.615313 40.996891 
L 213.420313 40.996891 
z
" clip-path="url(#p5242fd246d)" style="fill: #476b85"/>
   </g>
   <g id="patch_39">
    <path d="M 217.615313 209.606312 
L 221.810313 209.606312 
L 221.810313 55.812619 
L 217.615313 55.812619 
z
" clip-path="url(#p5242fd246d)" style="fill: #476b85"/>
   </g>
   <g id="patch_40">
    <path d="M 221.810313 209.606312 
L 226.005313 209.606312 
L 226.005313 80.263937 
L 221.810313 80.263937 
z
" clip-path="url(#p5242fd246d)" style="fill: #476b85"/>
   </g>
   <g id="patch_41">
    <path d="M 226.005313 209.606312 
L 230.200313 209.606312 
L 230.200313 104.956817 
L 226.005313 104.956817 
z
" clip-path="url(#p5242fd246d)" style="fill: #476b85"/>
   </g>
   <g id="patch_42">
    <path d="M 230.200313 209.606312 
L 234.395313 209.606312 
L 234.395313 127.583009 
L 230.200313 127.583009 
z
" clip-path="url(#p5242fd246d)" style="fill: #476b85"/>
   </g>
   <g id="patch_43">
    <path d="M 234.395313 209.606312 
L 238.590313 209.606312 
L 238.590313 144.545944 
L 234.395313 144.545944 
z
" clip-path="url(#p5242fd246d)" style="fill: #476b85"/>
   </g>
   <g id="patch_44">
    <path d="M 238.590313 209.606312 
L 242.785313 209.606312 
L 242.785313 160.462115 
L 238.590313 160.462115 
z
" clip-path="url(#p5242fd246d)" style="fill: #476b85"/>
   </g>
   <g id="patch_45">
    <path d="M 242.785313 209.606312 
L 246.980313 209.606312 
L 246.980313 171.734951 
L 242.785313 171.734951 
z
" clip-path="url(#p5242fd246d)" style="fill: #476b85"/>
   </g>
   <g id="patch_46">
    <path d="M 246.980313 209.606312 
L 251.175313 209.606312 
L 251.175313 181.638943 
L 246.980313 181.638943 
z
" clip-path="url(#p5242fd246d)" style="fill: #476b85"/>
   </g>
   <g id="patch_47">
    <path d="M 251.175313 209.606312 
L 255.370313 209.606312 
L 255.370313 189.046807 
L 251.175313 189.046807 
z
" clip-path="url(#p5242fd246d)" style="fill: #476b85"/>
   </g>
   <g id="patch_48">
    <path d="M 255.370313 209.606312 
L 259.565313 209.606312 
L 259.565313 194.387984 
L 255.370313 194.387984 
z
" clip-path="url(#p5242fd246d)" style="fill: #476b85"/>
   </g>
   <g id="patch_49">
    <path d="M 259.565313 209.606312 
L 263.760313 209.606312 
L 263.760313 199.43392 
L 259.565313 199.43392 
z
" clip-path="url(#p5242fd246d)" style="fill: #476b85"/>
   </g>
   <g id="patch_50">
    <path d="M 263.760313 209.606312 
L 267.955313 209.606312 
L 267.955313 201.983728 
L 263.760313 201.983728 
z
" clip-path="url(#p5242fd246d)" style="fill: #476b85"/>
   </g>
   <g id="patch_51">
    <path d="M 267.955313 209.606312 
L 272.150313 209.606312 
L 272.150313 203.862534 
L 267.955313 203.862534 
z
" clip-path="url(#p5242fd246d)" style="fill: #476b85"/>
   </g>
   <g id="patch_52">
    <path d="M 272.150313 209.606312 
L 276.345313 209.606312 
L 276.345313 205.79502 
L 272.150313 205.79502 
z
" clip-path="url(#p5242fd246d)" style="fill: #476b85"/>
   </g>
   <g id="patch_53">
    <path d="M 276.345313 209.606312 
L 280.540313 209.606312 
L 280.540313 207.190705 
L 276.345313 207.190705 
z
" clip-path="url(#p5242fd246d)" style="fill: #476b85"/>
   </g>
   <g id="patch_54">
    <path d="M 280.540313 209.606312 
L 284.735313 209.606312 
L 284.735313 207.861707 
L 280.540313 207.861707 
z
" clip-path="url(#p5242fd246d)" style="fill: #476b85"/>
   </g>
   <g id="patch_55">
    <path d="M 284.735313 209.606312 
L 288.930313 209.606312 
L 288.930313 207.888547 
L 284.735313 207.888547 
z
" clip-path="url(#p5242fd246d)" style="fill: #476b85"/>
   </g>
   <g id="patch_56">
    <path d="M 288.930313 209.606312 
L 293.125313 209.606312 
L 293.125313 208.425349 
L 288.930313 208.425349 
z
" clip-path="url(#p5242fd246d)" style="fill: #476b85"/>
   </g>
   <g id="patch_57">
    <path d="M 293.125313 209.606312 
L 297.320313 209.606312 
L 297.320313 208.88163 
L 293.125313 208.88163 
z
" clip-path="url(#p5242fd246d)" style="fill: #476b85"/>
   </g>
   <g id="patch_58">
    <path d="M 297.320313 209.606312 
L 301.515313 209.606312 
L 301.515313 208.96215 
L 297.320313 208.96215 
z
" clip-path="url(#p5242fd246d)" style="fill: #476b85"/>
   </g>
   <g id="patch_59">
    <path d="M 301.515313 209.606312 
L 305.710313 209.606312 
L 305.710313 209.096351 
L 301.515313 209.096351 
z
" clip-path="url(#p5242fd246d)" style="fill: #476b85"/>
   </g>
   <g id="patch_60">
    <path d="M 305.710313 209.606312 
L 309.905313 209.606312 
L 309.905313 209.284231 
L 305.710313 209.284231 
z
" clip-path="url(#p5242fd246d)" style="fill: #476b85"/>
   </g>
   <g id="patch_61">
    <path d="M 309.905313 209.606312 
L 314.100313 209.606312 
L 314.100313 209.203711 
L 309.905313 209.203711 
z
" clip-path="url(#p5242fd246d)" style="fill: #476b85"/>
   </g>
   <g id="patch_62">
    <path d="M 314.100313 209.606312 
L 318.295313 209.606312 
L 318.295313 209.284231 
L 314.100313 209.284231 
z
" clip-path="url(#p5242fd246d)" style="fill: #476b85"/>
   </g>
   <g id="patch_63">
    <path d="M 318.295313 209.606312 
L 322.490313 209.606312 
L 322.490313 209.284231 
L 318.295313 209.284231 
z
" clip-path="url(#p5242fd246d)" style="fill: #476b85"/>
   </g>
   <g id="patch_64">
    <path d="M 322.490313 209.606312 
L 326.685313 209.606312 
L 326.685313 209.311072 
L 322.490313 209.311072 
z
" clip-path="url(#p5242fd246d)" style="fill: #476b85"/>
   </g>
   <g id="patch_65">
    <path d="M 326.685313 209.606312 
L 330.880313 209.606312 
L 330.880313 209.337912 
L 326.685313 209.337912 
z
" clip-path="url(#p5242fd246d)" style="fill: #476b85"/>
   </g>
   <g id="patch_66">
    <path d="M 330.880313 209.606312 
L 335.075313 209.606312 
L 335.075313 209.364752 
L 330.880313 209.364752 
z
" clip-path="url(#p5242fd246d)" style="fill: #476b85"/>
   </g>
   <g id="patch_67">
    <path d="M 335.075313 209.606312 
L 339.270313 209.606312 
L 339.270313 209.391592 
L 335.075313 209.391592 
z
" clip-path="url(#p5242fd246d)" style="fill: #476b85"/>
   </g>
   <g id="patch_68">
    <path d="M 339.270313 209.606312 
L 343.465313 209.606312 
L 343.465313 209.364752 
L 339.270313 209.364752 
z
" clip-path="url(#p5242fd246d)" style="fill: #476b85"/>
   </g>
   <g id="patch_69">
    <path d="M 343.465313 209.606312 
L 347.660313 209.606312 
L 347.660313 209.391592 
L 343.465313 209.391592 
z
" clip-path="url(#p5242fd246d)" style="fill: #476b85"/>
   </g>
   <g id="patch_70">
    <path d="M 347.660313 209.606312 
L 351.855313 209.606312 
L 351.855313 209.472112 
L 347.660313 209.472112 
z
" clip-path="url(#p5242fd246d)" style="fill: #476b85"/>
   </g>
   <g id="patch_71">
    <path d="M 351.855313 209.606312 
L 356.050313 209.606312 
L 356.050313 209.552632 
L 351.855313 209.552632 
z
" clip-path="url(#p5242fd246d)" style="fill: #476b85"/>
   </g>
   <g id="patch_72">
    <path d="M 356.050313 209.606312 
L 360.245313 209.606312 
L 360.245313 209.552632 
L 356.050313 209.552632 
z
" clip-path="url(#p5242fd246d)" style="fill: #476b85"/>
   </g>
   <g id="patch_73">
    <path d="M 360.245313 209.606312 
L 364.440313 209.606312 
L 364.440313 209.552632 
L 360.245313 209.552632 
z
" clip-path="url(#p5242fd246d)" style="fill: #476b85"/>
   </g>
   <g id="patch_74">
    <path d="M 364.440313 209.606312 
L 368.635313 209.606312 
L 368.635313 209.391592 
L 364.440313 209.391592 
z
" clip-path="url(#p5242fd246d)" style="fill: #476b85"/>
   </g>
   <g id="patch_75">
    <path d="M 368.635313 209.606312 
L 372.830313 209.606312 
L 372.830313 209.525792 
L 368.635313 209.525792 
z
" clip-path="url(#p5242fd246d)" style="fill: #476b85"/>
   </g>
   <g id="patch_76">
    <path d="M 372.830313 209.606312 
L 377.025313 209.606312 
L 377.025313 209.579472 
L 372.830313 209.579472 
z
" clip-path="url(#p5242fd246d)" style="fill: #476b85"/>
   </g>
   <g id="patch_77">
    <path d="M 377.025313 209.606312 
L 381.220313 209.606312 
L 381.220313 209.525792 
L 377.025313 209.525792 
z
" clip-path="url(#p5242fd246d)" style="fill: #476b85"/>
   </g>
   <g id="patch_78">
    <path d="M 381.220313 209.606312 
L 385.415313 209.606312 
L 385.415313 209.579472 
L 381.220313 209.579472 
z
" clip-path="url(#p5242fd246d)" style="fill: #476b85"/>
   </g>
   <g id="patch_79">
    <path d="M 385.415313 209.606312 
L 389.610313 209.606312 
L 389.610313 209.606312 
L 385.415313 209.606312 
z
" clip-path="url(#p5242fd246d)" style="fill: #476b85"/>
   </g>
   <g id="patch_80">
    <path d="M 389.610313 209.606312 
L 393.805313 209.606312 
L 393.805313 209.606312 
L 389.610313 209.606312 
z
" clip-path="url(#p5242fd246d)" style="fill: #476b85"/>
   </g>
   <g id="patch_81">
    <path d="M 393.805313 209.606312 
L 398.000313 209.606312 
L 398.000313 209.606312 
L 393.805313 209.606312 
z
" clip-path="url(#p5242fd246d)" style="fill: #476b85"/>
   </g>
   <g id="patch_82">
    <path d="M 398.000313 209.606312 
L 402.195313 209.606312 
L 402.195313 209.525792 
L 398.000313 209.525792 
z
" clip-path="url(#p5242fd246d)" style="fill: #476b85"/>
   </g>
   <g id="matplotlib.axis_1">
    <g id="xtick_1">
     <g id="line2d_1">
      <defs>
       <path id="mdd52e45384" d="M 0 0 
L 0 3.5 
" style="stroke: #000000; stroke-width: 0.8"/>
      </defs>
      <g>
       <use xlink:href="#mdd52e45384" x="86.717663" y="209.606312" style="stroke: #000000; stroke-width: 0.8"/>
      </g>
     </g>
     <g id="text_1">
      <text style="font: 9px 'DejaVu Sans', 'Bitstream Vera Sans', 'Computer Modern Sans Serif', 'Lucida Grande', 'Verdana', 'Geneva', 'Lucid', 'Arial', 'Helvetica', 'Avant Garde', sans-serif; text-anchor: middle" x="86.717663" y="223.444906" transform="rotate(-0 86.717663 223.444906)">−20</text>
     </g>
    </g>
    <g id="xtick_2">
     <g id="line2d_2">
      <g>
       <use xlink:href="#mdd52e45384" x="146.925231" y="209.606312" style="stroke: #000000; stroke-width: 0.8"/>
      </g>
     </g>
     <g id="text_2">
      <text style="font: 9px 'DejaVu Sans', 'Bitstream Vera Sans', 'Computer Modern Sans Serif', 'Lucida Grande', 'Verdana', 'Geneva', 'Lucid', 'Arial', 'Helvetica', 'Avant Garde', sans-serif; text-anchor: middle" x="146.925231" y="223.444906" transform="rotate(-0 146.925231 223.444906)">−10</text>
     </g>
    </g>
    <g id="xtick_3">
     <g id="line2d_3">
      <g>
       <use xlink:href="#mdd52e45384" x="207.132798" y="209.606312" style="stroke: #000000; stroke-width: 0.8"/>
      </g>
     </g>
     <g id="text_3">
      <text style="font: 9px 'DejaVu Sans', 'Bitstream Vera Sans', 'Computer Modern Sans Serif', 'Lucida Grande', 'Verdana', 'Geneva', 'Lucid', 'Arial', 'Helvetica', 'Avant Garde', sans-serif; text-anchor: middle" x="207.132798" y="223.444906" transform="rotate(-0 207.132798 223.444906)">0</text>
     </g>
    </g>
    <g id="xtick_4">
     <g id="line2d_4">
      <g>
       <use xlink:href="#mdd52e45384" x="267.340366" y="209.606312" style="stroke: #000000; stroke-width: 0.8"/>
      </g>
     </g>
     <g id="text_4">
      <text style="font: 9px 'DejaVu Sans', 'Bitstream Vera Sans', 'Computer Modern Sans Serif', 'Lucida Grande', 'Verdana', 'Geneva', 'Lucid', 'Arial', 'Helvetica', 'Avant Garde', sans-serif; text-anchor: middle" x="267.340366" y="223.444906" transform="rotate(-0 267.340366 223.444906)">10</text>
     </g>
    </g>
    <g id="xtick_5">
     <g id="line2d_5">
      <g>
       <use xlink:href="#mdd52e45384" x="327.547933" y="209.606312" style="stroke: #000000; stroke-width: 0.8"/>
      </g>
     </g>
     <g id="text_5">
      <text style="font: 9px 'DejaVu Sans', 'Bitstream Vera Sans', 'Computer Modern Sans Serif', 'Lucida Grande', 'Verdana', 'Geneva', 'Lucid', 'Arial', 'Helvetica', 'Avant Garde', sans-serif; text-anchor: middle" x="327.547933" y="223.444906" transform="rotate(-0 327.547933 223.444906)">20</text>
     </g>
    </g>
    <g id="xtick_6">
     <g id="line2d_6">
      <g>
       <use xlink:href="#mdd52e45384" x="387.755501" y="209.606312" style="stroke: #000000; stroke-width: 0.8"/>
      </g>
     </g>
     <g id="text_6">
      <text style="font: 9px 'DejaVu Sans', 'Bitstream Vera Sans', 'Computer Modern Sans Serif', 'Lucida Grande', 'Verdana', 'Geneva', 'Lucid', 'Arial', 'Helvetica', 'Avant Garde', sans-serif; text-anchor: middle" x="387.755501" y="223.444906" transform="rotate(-0 387.755501 223.444906)">30</text>
     </g>
    </g>
    <g id="text_7">
     <text style="font: 9px 'DejaVu Sans', 'Bitstream Vera Sans', 'Computer Modern Sans Serif', 'Lucida Grande', 'Verdana', 'Geneva', 'Lucid', 'Arial', 'Helvetica', 'Avant Garde', sans-serif; text-anchor: middle" x="234.395313" y="236.155219" transform="rotate(-0 234.395313 236.155219)">Descriptive mean condition difference</text>
    </g>
   </g>
   <g id="matplotlib.axis_2">
    <g id="ytick_1">
     <g id="line2d_7">
      <defs>
       <path id="m0e54c6e725" d="M 0 0 
L -3.5 0 
" style="stroke: #000000; stroke-width: 0.8"/>
      </defs>
      <g>
       <use xlink:href="#m0e54c6e725" x="49.815312" y="209.606312" style="stroke: #000000; stroke-width: 0.8"/>
      </g>
     </g>
     <g id="text_8">
      <text style="font: 9px 'DejaVu Sans', 'Bitstream Vera Sans', 'Computer Modern Sans Serif', 'Lucida Grande', 'Verdana', 'Geneva', 'Lucid', 'Arial', 'Helvetica', 'Avant Garde', sans-serif; text-anchor: end" x="42.815312" y="213.025609" transform="rotate(-0 42.815312 213.025609)">0</text>
     </g>
    </g>
    <g id="ytick_2">
     <g id="line2d_8">
      <g>
       <use xlink:href="#m0e54c6e725" x="49.815312" y="182.766226" style="stroke: #000000; stroke-width: 0.8"/>
      </g>
     </g>
     <g id="text_9">
      <text style="font: 9px 'DejaVu Sans', 'Bitstream Vera Sans', 'Computer Modern Sans Serif', 'Lucida Grande', 'Verdana', 'Geneva', 'Lucid', 'Arial', 'Helvetica', 'Avant Garde', sans-serif; text-anchor: end" x="42.815312" y="186.185523" transform="rotate(-0 42.815312 186.185523)">1000</text>
     </g>
    </g>
    <g id="ytick_3">
     <g id="line2d_9">
      <g>
       <use xlink:href="#m0e54c6e725" x="49.815312" y="155.92614" style="stroke: #000000; stroke-width: 0.8"/>
      </g>
     </g>
     <g id="text_10">
      <text style="font: 9px 'DejaVu Sans', 'Bitstream Vera Sans', 'Computer Modern Sans Serif', 'Lucida Grande', 'Verdana', 'Geneva', 'Lucid', 'Arial', 'Helvetica', 'Avant Garde', sans-serif; text-anchor: end" x="42.815312" y="159.345437" transform="rotate(-0 42.815312 159.345437)">2000</text>
     </g>
    </g>
    <g id="ytick_4">
     <g id="line2d_10">
      <g>
       <use xlink:href="#m0e54c6e725" x="49.815312" y="129.086054" style="stroke: #000000; stroke-width: 0.8"/>
      </g>
     </g>
     <g id="text_11">
      <text style="font: 9px 'DejaVu Sans', 'Bitstream Vera Sans', 'Computer Modern Sans Serif', 'Lucida Grande', 'Verdana', 'Geneva', 'Lucid', 'Arial', 'Helvetica', 'Avant Garde', sans-serif; text-anchor: end" x="42.815312" y="132.505351" transform="rotate(-0 42.815312 132.505351)">3000</text>
     </g>
    </g>
    <g id="ytick_5">
     <g id="line2d_11">
      <g>
       <use xlink:href="#m0e54c6e725" x="49.815312" y="102.245968" style="stroke: #000000; stroke-width: 0.8"/>
      </g>
     </g>
     <g id="text_12">
      <text style="font: 9px 'DejaVu Sans', 'Bitstream Vera Sans', 'Computer Modern Sans Serif', 'Lucida Grande', 'Verdana', 'Geneva', 'Lucid', 'Arial', 'Helvetica', 'Avant Garde', sans-serif; text-anchor: end" x="42.815312" y="105.665265" transform="rotate(-0 42.815312 105.665265)">4000</text>
     </g>
    </g>
    <g id="ytick_6">
     <g id="line2d_12">
      <g>
       <use xlink:href="#m0e54c6e725" x="49.815312" y="75.405882" style="stroke: #000000; stroke-width: 0.8"/>
      </g>
     </g>
     <g id="text_13">
      <text style="font: 9px 'DejaVu Sans', 'Bitstream Vera Sans', 'Computer Modern Sans Serif', 'Lucida Grande', 'Verdana', 'Geneva', 'Lucid', 'Arial', 'Helvetica', 'Avant Garde', sans-serif; text-anchor: end" x="42.815312" y="78.825179" transform="rotate(-0 42.815312 78.825179)">5000</text>
     </g>
    </g>
    <g id="ytick_7">
     <g id="line2d_13">
      <g>
       <use xlink:href="#m0e54c6e725" x="49.815312" y="48.565796" style="stroke: #000000; stroke-width: 0.8"/>
      </g>
     </g>
     <g id="text_14">
      <text style="font: 9px 'DejaVu Sans', 'Bitstream Vera Sans', 'Computer Modern Sans Serif', 'Lucida Grande', 'Verdana', 'Geneva', 'Lucid', 'Arial', 'Helvetica', 'Avant Garde', sans-serif; text-anchor: end" x="42.815312" y="51.985093" transform="rotate(-0 42.815312 51.985093)">6000</text>
     </g>
    </g>
    <g id="ytick_8">
     <g id="line2d_14">
      <g>
       <use xlink:href="#m0e54c6e725" x="49.815312" y="21.72571" style="stroke: #000000; stroke-width: 0.8"/>
      </g>
     </g>
     <g id="text_15">
      <text style="font: 9px 'DejaVu Sans', 'Bitstream Vera Sans', 'Computer Modern Sans Serif', 'Lucida Grande', 'Verdana', 'Geneva', 'Lucid', 'Arial', 'Helvetica', 'Avant Garde', sans-serif; text-anchor: end" x="42.815312" y="25.145006" transform="rotate(-0 42.815312 25.145006)">7000</text>
     </g>
    </g>
    <g id="text_16">
     <text style="font: 9px 'DejaVu Sans', 'Bitstream Vera Sans', 'Computer Modern Sans Serif', 'Lucida Grande', 'Verdana', 'Geneva', 'Lucid', 'Arial', 'Helvetica', 'Avant Garde', sans-serif; text-anchor: middle" x="14.038594" y="115.506312" transform="rotate(-90 14.038594 115.506312)">Voxels</text>
    </g>
   </g>
   <g id="line2d_15">
    <path d="M 207.132798 209.606312 
L 207.132798 21.406312 
" clip-path="url(#p5242fd246d)" style="fill: none; stroke: #000000; stroke-width: 0.8; stroke-linecap: square"/>
   </g>
   <g id="patch_83">
    <path d="M 49.815312 209.606312 
L 49.815312 21.406312 
" style="fill: none; stroke: #000000; stroke-width: 0.8; stroke-linejoin: miter; stroke-linecap: square"/>
   </g>
   <g id="patch_84">
    <path d="M 49.815313 209.606312 
L 418.975313 209.606312 
" style="fill: none; stroke: #000000; stroke-width: 0.8; stroke-linejoin: miter; stroke-linecap: square"/>
   </g>
   <g id="text_17">
    <text style="font: 10.8px 'DejaVu Sans', 'Bitstream Vera Sans', 'Computer Modern Sans Serif', 'Lucida Grande', 'Verdana', 'Geneva', 'Lucid', 'Arial', 'Helvetica', 'Avant Garde', sans-serif; text-anchor: middle" x="234.395313" y="15.406312" transform="rotate(-0 234.395313 15.406312)">Social reward modulation — Positive → SOCIAL; negative → NONSOCIAL</text>
   </g>
  </g>
 </g>
 <defs>
  <clipPath id="p5242fd246d">
   <rect x="49.815312" y="21.406312" width="369.16" height="188.2"/>
  </clipPath>
 </defs>
</svg>
