<?xml version="1.0" encoding="utf-8" standalone="no"?>
<!DOCTYPE svg PUBLIC "-//W3C//DTD SVG 1.1//EN"
  "http://www.w3.org/Graphics/SVG/1.1/DTD/svg11.dtd">
<svg xmlns:xlink="http://www.w3.org/1999/xlink" width="426.175313pt" height="245.226937pt" viewBox="0 0 426.175313 245.226937" xmlns="http://www.w3.org/2000/svg" version="1.1">
 <metadata>
  <rdf:RDF xmlns:dc="http://purl.org/dc/elements/1.1/" xmlns:cc="http://creativecommons.org/ns#" xmlns:rdf="http://www.w3.org/1999/02/22-rdf-syntax-ns#">
   <cc:Work>
    <dc:type rdf:resource="http://purl.org/dc/dcmitype/StillImage"/>
    <dc:date>2026-10-04T13:13:03.844794</dc:date>
    <dc:format>image/svg+xml</dc:format>
    <dc:creator>
     <cc:Agent>
      <dc:title>Matplotlib v3.7.1, https://matplotlib.org/</dc:title>
     </cc:Agent>
    </dc:creator>
   </cc:Work>
  </rdf:RDF>
 </metadata>
 <defs>
  <style type="text/css">*{stroke-linejoin: round; stroke-linecap: butt}</style>
 </defs>
 <g id="figure_1">
  <g id="patch_1">
   <path d="M 0 245.226937 
L 426.175313 245.226937 
L 426.175313 0 
L 0 0 
z
" style="fill: #ffffff"/>
  </g>
  <g id="axes_1">
   <g id="patch_2">
    <path d="M 49.815312 209.606312 
L 418.975313 209.606312 
L 418.975313 21.406312 
L 49.815312 21.406312 
z
" style="fill: #ffffff"/>
   </g>
   <g id="patch_3">
    <path d="M 66.595312 209.606312 
L 70.790312 209.606312 
L 70.790312 209.562871 
L 66.595312 209.562871 
z
" clip-path="url(#pb71ef012ba)" style="fill: #476b85"/>
   </g>
   <g id="patch_4">
    <path d="M 70.790312 209.606312 
L 74.985312 209.606312 
L 74.985312 209.584592 
L 70.790312 209.584592 
z
" clip-path="url(#pb71ef012ba)" style="fill: #476b85"/>
   </g>
   <g id="patch_5">
    <path d="M 74.985312 209.606312 
L 79.180312 209.606312 
L 79.180312 209.562871 
L 74.985312 209.562871 
z
" clip-path="url(#pb71ef012ba)" style="fill: #476b85"/>
   </g>
   <g id="patch_6">
    <path d="M 79.180312 209.606312 
L 83.375312 209.606312 
L 83.375312 209.541151 
L 79.180312 209.541151 
z
" clip-path="url(#pb71ef012ba)" style="fill: #476b85"/>
   </g>
   <g id="patch_7">
    <path d="M 83.375312 209.606312 
L 87.570312 209.606312 
L 87.570312 209.562871 
L 83.375312 209.562871 
z
" clip-path="url(#pb71ef012ba)" style="fill: #476b85"/>
   </g>
   <g id="patch_8">
    <path d="M 87.570312 209.606312 
L 91.765312 209.606312 
L 91.765312 209.584592 
L 87.570312 209.584592 
z
" clip-path="url(#pb71ef012ba)" style="fill: #476b85"/>
   </g>
   <g id="patch_9">
    <path d="M 91.765312 209.606312 
L 95.960312 209.606312 
L 95.960312 209.562871 
L 91.765312 209.562871 
z
" clip-path="url(#pb71ef012ba)" style="fill: #476b85"/>
   </g>
   <g id="patch_10">
    <path d="M 95.960312 209.606312 
L 100.155312 209.606312 
L 100.155312 209.432548 
L 95.960312 209.432548 
z
" clip-path="url(#pb71ef012ba)" style="fill: #476b85"/>
   </g>
   <g id="patch_11">
    <path d="M 100.155312 209.606312 
L 104.350312 209.606312 
L 104.350312 209.454269 
L 100.155312 209.454269 
z
" clip-path="url(#pb71ef012ba)" style="fill: #476b85"/>
   </g>
   <g id="patch_12">
    <path d="M 104.350312 209.606312 
L 108.545312 209.606312 
L 108.545312 209.215342 
L 104.350312 209.215342 
z
" clip-path="url(#pb71ef012ba)" style="fill: #476b85"/>
   </g>
   <g id="patch_13">
    <path d="M 108.545312 209.606312 
L 112.740312 209.606312 
L 112.740312 209.193622 
L 108.545312 209.193622 
z
" clip-path="url(#pb71ef012ba)" style="fill: #476b85"/>
   </g>
   <g id="patch_14">
    <path d="M 112.740312 209.606312 
L 116.935312 209.606312 
L 116.935312 208.911254 
L 112.740312 208.911254 
z
" clip-path="url(#pb71ef012ba)" style="fill: #476b85"/>
   </g>
   <g id="patch_15">
    <path d="M 116.935312 209.606312 
L 121.130312 209.606312 
L 121.130312 208.585446 
L 116.935312 208.585446 
z
" clip-path="url(#pb71ef012ba)" style="fill: #476b85"/>
   </g>
   <g id="patch_16">
    <path d="M 121.130312 209.606312 
L 125.325312 209.606312 
L 125.325312 208.303079 
L 121.130312 208.303079 
z
" clip-path="url(#pb71ef012ba)" style="fill: #476b85"/>
   </g>
   <g id="patch_17">
    <path d="M 125.325312 209.606312 
L 129.520312 209.606312 
L 129.520312 207.542859 
L 125.325312 207.542859 
z
" clip-path="url(#pb71ef012ba)" style="fill: #476b85"/>
   </g>
   <g id="patch_18">
    <path d="M 129.520312 209.606312 
L 133.715312 209.606312 
L 133.715312 206.782639 
L 129.520312 206.782639 
z
" clip-path="url(#pb71ef012ba)" style="fill: #476b85"/>
   </g>
   <g id="patch_19">
    <path d="M 133.715312 209.606312 
L 137.910312 209.606312 
L 137.910312 205.023273 
L 133.715312 205.023273 
z
" clip-path="url(#pb71ef012ba)" style="fill: #476b85"/>
   </g>
   <g id="patch_20">
    <path d="M 137.910312 209.606312 
L 142.105312 209.606312 
L 142.105312 202.1996 
L 137.910312 202.1996 
z
" clip-path="url(#pb71ef012ba)" style="fill: #476b85"/>
   </g>
   <g id="patch_21">
    <path d="M 142.105312 209.606312 
L 146.300312 209.606312 
L 146.300312 199.093559 
L 142.105312 199.093559 
z
" clip-path="url(#pb71ef012ba)" style="fill: #476b85"/>
   </g>
   <g id="patch_22">
    <path d="M 146.300312 209.606312 
L 150.495312 209.606312 
L 150.495312 194.184712 
L 146.300312 194.184712 
z
" clip-path="url(#pb71ef012ba)" style="fill: #476b85"/>
   </g>
   <g id="patch_23">
    <path d="M 150.495312 209.606312 
L 154.690312 209.606312 
L 154.690312 188.124675 
L 150.495312 188.124675 
z
" clip-path="url(#pb71ef012ba)" style="fill: #476b85"/>
   </g>
   <g id="patch_24">
    <path d="M 154.690312 209.606312 
L 158.885312 209.606312 
L 158.885312 179.219243 
L 154.690312 179.219243 
z
" clip-path="url(#pb71ef012ba)" style="fill: #476b85"/>
   </g>
   <g id="patch_25">
    <path d="M 158.885312 209.606312 
L 163.080312 209.606312 
L 163.080312 166.643037 
L 158.885312 166.643037 
z
" clip-path="url(#pb71ef012ba)" style="fill: #476b85"/>
   </g>
   <g id="patch_26">
    <path d="M 163.080312 209.606312 
L 167.275312 209.606312 
L 167.275312 151.525524 
L 163.080312 151.525524 
z
" clip-path="url(#pb71ef012ba)" style="fill: #476b85"/>
   </g>
   <g id="patch_27">
    <path d="M 167.275312 209.606312 
L 171.470313 209.606312 
L 171.470313 128.784093 
L 167.275312 128.784093 
z
" clip-path="url(#pb71ef012ba)" style="fill: #476b85"/>
   </g>
   <g id="patch_28">
    <path d="M 171.470312 209.606312 
L 175.665312 209.606312 
L 175.665312 104.500503 
L 171.470312 104.500503 
z
" clip-path="url(#pb71ef012ba)" style="fill: #476b85"/>
   </g>
   <g id="patch_29">
    <path d="M 175.665312 209.606312 
L 179.860312 209.606312 
L 179.860312 78.60959 
L 175.665312 78.60959 
z
" clip-path="url(#pb71ef012ba)" style="fill: #476b85"/>
   </g>
   <g id="patch_30">
    <path d="M 179.860312 209.606312 
L 184.055312 209.606312 
L 184.055312 52.979325 
L 179.860312 52.979325 
z
" clip-path="url(#pb71ef012ba)" style="fill: #476b85"/>
   </g>
   <g id="patch_31">
    <path d="M 184.055312 209.606312 
L 188.250312 209.606312 
L 188.250312 39.816663 
L 184.055312 39.816663 
z
" clip-path="url(#pb71ef012ba)" style="fill: #476b85"/>
   </g>
   <g id="patch_32">
    <path d="M 188.250312 209.606312 
L 192.445312 209.606312 
L 192.445312 30.368217 
L 188.250312 30.368217 
z
" clip-path="url(#pb71ef012ba)" style="fill: #476b85"/>
   </g>
   <g id="patch_33">
    <path d="M 192.445312 209.606312 
L 196.640312 209.606312 
L 196.640312 43.357115 
L 192.445312 43.357115 
z
" clip-path="url(#pb71ef012ba)" style="fill: #476b85"/>
   </g>
   <g id="patch_34">
    <path d="M 196.640312 209.606312 
L 200.835312 209.606312 
L 200.835312 58.148819 
L 196.640312 58.148819 
z
" clip-path="url(#pb71ef012ba)" style="fill: #476b85"/>
   </g>
   <g id="patch_35">
    <path d="M 200.835312 209.606312 
L 205.030313 209.606312 
L 205.030313 84.018011 
L 200.835312 84.018011 
z
" clip-path="url(#pb71ef012ba)" style="fill: #476b85"/>
   </g>
   <g id="patch_36">
    <path d="M 205.030312 209.606312 
L 209.225312 209.606312 
L 209.225312 113.014964 
L 205.030312 113.014964 
z
" clip-path="url(#pb71ef012ba)" style="fill: #476b85"/>
   </g>
   <g id="patch_37">
    <path d="M 209.225312 209.606312 
L 213.420312 209.606312 
L 213.420312 136.842423 
L 209.225312 136.842423 
z
" clip-path="url(#pb71ef012ba)" style="fill: #476b85"/>
   </g>
   <g id="patch_38">
    <path d="M 213.420312 209.606312 
L 217.615312 209.606312 
L 217.615312 154.84877 
L 213.420312 154.84877 
z
" clip-path="url(#pb71ef012ba)" style="fill: #476b85"/>
   </g>
   <g id="patch_39">
    <path d="M 217.615312 209.606312 
L 221.810312 209.606312 
L 221.810312 169.944562 
L 217.615312 169.944562 
z
" clip-path="url(#pb71ef012ba)" style="fill: #476b85"/>
   </g>
   <g id="patch_40">
    <path d="M 221.810312 209.606312 
L 226.005313 209.606312 
L 226.005313 183.237548 
L 221.810312 183.237548 
z
" clip-path="url(#pb71ef012ba)" style="fill: #476b85"/>
   </g>
   <g id="patch_41">
    <path d="M 226.005313 209.606312 
L 230.200312 209.606312 
L 230.200312 189.536511 
L 226.005313 189.536511 
z
" clip-path="url(#pb71ef012ba)" style="fill: #476b85"/>
   </g>
   <g id="patch_42">
    <path d="M 230.200312 209.606312 
L 234.395312 209.606312 
L 234.395312 196.943224 
L 230.200312 196.943224 
z
" clip-path="url(#pb71ef012ba)" style="fill: #476b85"/>
   </g>
   <g id="patch_43">
    <path d="M 234.395312 209.606312 
L 238.590312 209.606312 
L 238.590312 200.331632 
L 234.395312 200.331632 
z
" clip-path="url(#pb71ef012ba)" style="fill: #476b85"/>
   </g>
   <g id="patch_44">
    <path d="M 238.590312 209.606312 
L 242.785313 209.606312 
L 242.785313 203.611437 
L 238.590312 203.611437 
z
" clip-path="url(#pb71ef012ba)" style="fill: #476b85"/>
   </g>
   <g id="patch_45">
    <path d="M 242.785312 209.606312 
L 246.980312 209.606312 
L 246.980312 205.175317 
L 242.785312 205.175317 
z
" clip-path="url(#pb71ef012ba)" style="fill: #476b85"/>
   </g>
   <g id="patch_46">
    <path d="M 246.980312 209.606312 
L 251.175312 209.606312 
L 251.175312 206.022419 
L 246.980312 206.022419 
z
" clip-path="url(#pb71ef012ba)" style="fill: #476b85"/>
   </g>
   <g id="patch_47">
    <path d="M 251.175312 209.606312 
L 255.370312 209.606312 
L 255.370312 207.108448 
L 251.175312 207.108448 
z
" clip-path="url(#pb71ef012ba)" style="fill: #476b85"/>
   </g>
   <g id="patch_48">
    <path d="M 255.370312 209.606312 
L 259.565312 209.606312 
L 259.565312 207.629741 
L 255.370312 207.629741 
z
" clip-path="url(#pb71ef012ba)" style="fill: #476b85"/>
   </g>
   <g id="patch_49">
    <path d="M 259.565312 209.606312 
L 263.760312 209.606312 
L 263.760312 208.34652 
L 259.565312 208.34652 
z
" clip-path="url(#pb71ef012ba)" style="fill: #476b85"/>
   </g>
   <g id="patch_50">
    <path d="M 263.760312 209.606312 
L 267.955312 209.606312 
L 267.955312 208.498564 
L 263.760312 208.498564 
z
" clip-path="url(#pb71ef012ba)" style="fill: #476b85"/>
   </g>
   <g id="patch_51">
    <path d="M 267.955312 209.606312 
L 272.150312 209.606312 
L 272.150312 208.75921 
L 267.955312 208.75921 
z
" clip-path="url(#pb71ef012ba)" style="fill: #476b85"/>
   </g>
   <g id="patch_52">
    <path d="M 272.150312 209.606312 
L 276.345312 209.606312 
L 276.345312 208.976416 
L 272.150312 208.976416 
z
" clip-path="url(#pb71ef012ba)" style="fill: #476b85"/>
   </g>
   <g id="patch_53">
    <path d="M 276.345312 209.606312 
L 280.540312 209.606312 
L 280.540312 208.867813 
L 276.345312 208.867813 
z
" clip-path="url(#pb71ef012ba)" style="fill: #476b85"/>
   </g>
   <g id="patch_54">
    <path d="M 280.540312 209.606312 
L 284.735312 209.606312 
L 284.735312 209.171901 
L 280.540312 209.171901 
z
" clip-path="url(#pb71ef012ba)" style="fill: #476b85"/>
   </g>
   <g id="patch_55">
    <path d="M 284.735312 209.606312 
L 288.930312 209.606312 
L 288.930312 209.171901 
L 284.735312 209.171901 
z
" clip-path="url(#pb71ef012ba)" style="fill: #476b85"/>
   </g>
   <g id="patch_56">
    <path d="M 288.930312 209.606312 
L 293.125312 209.606312 
L 293.125312 209.193622 
L 288.930312 209.193622 
z
" clip-path="url(#pb71ef012ba)" style="fill: #476b85"/>
   </g>
   <g id="patch_57">
    <path d="M 293.125312 209.606312 
L 297.320312 209.606312 
L 297.320312 209.193622 
L 293.125312 209.193622 
z
" clip-path="url(#pb71ef012ba)" style="fill: #476b85"/>
   </g>
   <g id="patch_58">
    <path d="M 297.320312 209.606312 
L 301.515312 209.606312 
L 301.515312 209.323945 
L 297.320312 209.323945 
z
" clip-path="url(#pb71ef012ba)" style="fill: #476b85"/>
   </g>
   <g id="patch_59">
    <path d="M 301.515312 209.606312 
L 305.710312 209.606312 
L 305.710312 209.367386 
L 301.515312 209.367386 
z
" clip-path="url(#pb71ef012ba)" style="fill: #476b85"/>
   </g>
   <g id="patch_60">
    <path d="M 305.710312 209.606312 
L 309.905312 209.606312 
L 309.905312 209.323945 
L 305.710312 209.323945 
z
" clip-path="url(#pb71ef012ba)" style="fill: #476b85"/>
   </g>
   <g id="patch_61">
    <path d="M 309.905312 209.606312 
L 314.100312 209.606312 
L 314.100312 209.367386 
L 309.905312 209.367386 
z
" clip-path="url(#pb71ef012ba)" style="fill: #476b85"/>
   </g>
   <g id="patch_62">
    <path d="M 314.100312 209.606312 
L 318.295312 209.606312 
L 318.295312 209.49771 
L 314.100312 209.49771 
z
" clip-path="url(#pb71ef012ba)" style="fill: #476b85"/>
   </g>
   <g id="patch_63">
    <path d="M 318.295313 209.606312 
L 322.490313 209.606312 
L 322.490313 209.454269 
L 318.295313 209.454269 
z
" clip-path="url(#pb71ef012ba)" style="fill: #476b85"/>
   </g>
   <g id="patch_64">
    <path d="M 322.490312 209.606312 
L 326.685312 209.606312 
L 326.685312 209.49771 
L 322.490312 209.49771 
z
" clip-path="url(#pb71ef012ba)" style="fill: #476b85"/>
   </g>
   <g id="patch_65">
    <path d="M 326.685312 209.606312 
L 330.880312 209.606312 
L 330.880312 209.432548 
L 326.685312 209.432548 
z
" clip-path="url(#pb71ef012ba)" style="fill: #476b85"/>
   </g>
   <g id="patch_66">
    <path d="M 330.880312 209.606312 
L 335.075312 209.606312 
L 335.075312 209.541151 
L 330.880312 209.541151 
z
" clip-path="url(#pb71ef012ba)" style="fill: #476b85"/>
   </g>
   <g id="patch_67">
    <path d="M 335.075312 209.606312 
L 339.270312 209.606312 
L 339.270312 209.475989 
L 335.075312 209.475989 
z
" clip-path="url(#pb71ef012ba)" style="fill: #476b85"/>
   </g>
   <g id="patch_68">
    <path d="M 339.270312 209.606312 
L 343.465312 209.606312 
L 343.465312 209.562871 
L 339.270312 209.562871 
z
" clip-path="url(#pb71ef012ba)" style="fill: #476b85"/>
   </g>
   <g id="patch_69">
    <path d="M 343.465312 209.606312 
L 347.660312 209.606312 
L 347.660312 209.584592 
L 343.465312 209.584592 
z
" clip-path="url(#pb71ef012ba)" style="fill: #476b85"/>
   </g>
   <g id="patch_70">
    <path d="M 347.660312 209.606312 
L 351.855312 209.606312 
L 351.855312 209.49771 
L 347.660312 209.49771 
z
" clip-path="url(#pb71ef012ba)" style="fill: #476b85"/>
   </g>
   <g id="patch_71">
    <path d="M 351.855312 209.606312 
L 356.050312 209.606312 
L 356.050312 209.49771 
L 351.855312 209.49771 
z
" clip-path="url(#pb71ef012ba)" style="fill: #476b85"/>
   </g>
   <g id="patch_72">
    <path d="M 356.050312 209.606312 
L 360.245312 209.606312 
L 360.245312 209.51943 
L 356.050312 209.51943 
z
" clip-path="url(#pb71ef012ba)" style="fill: #476b85"/>
   </g>
   <g id="patch_73">
    <path d="M 360.245312 209.606312 
L 364.440312 209.606312 
L 364.440312 209.541151 
L 360.245312 209.541151 
z
" clip-path="url(#pb71ef012ba)" style="fill: #476b85"/>
   </g>
   <g id="patch_74">
    <path d="M 364.440313 209.606312 
L 368.635312 209.606312 
L 368.635312 209.541151 
L 364.440313 209.541151 
z
" clip-path="url(#pb71ef012ba)" style="fill: #476b85"/>
   </g>
   <g id="patch_75">
    <path d="M 368.635312 209.606312 
L 372.830312 209.606312 
L 372.830312 209.584592 
L 368.635312 209.584592 
z
" clip-path="url(#pb71ef012ba)" style="fill: #476b85"/>
   </g>
   <g id="patch_76">
    <path d="M 372.830312 209.606312 
L 377.025312 209.606312 
L 377.025312 209.562871 
L 372.830312 209.562871 
z
" clip-path="url(#pb71ef012ba)" style="fill: #476b85"/>
   </g>
   <g id="patch_77">
    <path d="M 377.025312 209.606312 
L 381.220312 209.606312 
L 381.220312 209.49771 
L 377.025312 209.49771 
z
" clip-path="url(#pb71ef012ba)" style="fill: #476b85"/>
   </g>
   <g id="patch_78">
    <path d="M 381.220312 209.606312 
L 385.415312 209.606312 
L 385.415312 209.562871 
L 381.220312 209.562871 
z
" clip-path="url(#pb71ef012ba)" style="fill: #476b85"/>
   </g>
   <g id="patch_79">
    <path d="M 385.415313 209.606312 
L 389.610312 209.606312 
L 389.610312 209.584592 
L 385.415313 209.584592 
z
" clip-path="url(#pb71ef012ba)" style="fill: #476b85"/>
   </g>
   <g id="patch_80">
    <path d="M 389.610312 209.606312 
L 393.805312 209.606312 
L 393.805312 209.584592 
L 389.610312 209.584592 
z
" clip-path="url(#pb71ef012ba)" style="fill: #476b85"/>
   </g>
   <g id="patch_81">
    <path d="M 393.805312 209.606312 
L 398.000312 209.606312 
L 398.000312 209.606312 
L 393.805312 209.606312 
z
" clip-path="url(#pb71ef012ba)" style="fill: #476b85"/>
   </g>
   <g id="patch_82">
    <path d="M 398.000313 209.606312 
L 402.195312 209.606312 
L 402.195312 209.584592 
L 398.000313 209.584592 
z
" clip-path="url(#pb71ef012ba)" style="fill: #476b85"/>
   </g>
   <g id="matplotlib.axis_1">
    <g id="xtick_1">
     <g id="line2d_1">
      <defs>
       <path id="m124b9af592" d="M 0 0 
L 0 3.5 
" style="stroke: #000000; stroke-width: 0.8"/>
      </defs>
      <g>
       <use xlink:href="#m124b9af592" x="57.187459" y="209.606312" style="stroke: #000000; stroke-width: 0.8"/>
      </g>
     </g>
     <g id="text_1">
      <text style="font: 9px 'DejaVu Sans', 'Bitstream Vera Sans', 'Computer Modern Sans Serif', 'Lucida Grande', 'Verdana', 'Geneva', 'Lucid', 'Arial', 'Helvetica', 'Avant Garde', sans-serif; text-anchor: middle" x="57.187459" y="223.444906" transform="rotate(-0 57.187459 223.444906)">−1.0</text>
     </g>
    </g>
    <g id="xtick_2">
     <g id="line2d_2">
      <g>
       <use xlink:href="#m124b9af592" x="123.683047" y="209.606312" style="stroke: #000000; stroke-width: 0.8"/>
      </g>
     </g>
     <g id="text_2">
      <text style="font: 9px 'DejaVu Sans', 'Bitstream Vera Sans', 'Computer Modern Sans Serif', 'Lucida Grande', 'Verdana', 'Geneva', 'Lucid', 'Arial', 'Helvetica', 'Avant Garde', sans-serif; text-anchor: middle" x="123.683047" y="223.444906" transform="rotate(-0 123.683047 223.444906)">−0.5</text>
     </g>
    </g>
    <g id="xtick_3">
     <g id="line2d_3">
      <g>
       <use xlink:href="#m124b9af592" x="190.178634" y="209.606312" style="stroke: #000000; stroke-width: 0.8"/>
      </g>
     </g>
     <g id="text_3">
      <text style="font: 9px 'DejaVu Sans', 'Bitstream Vera Sans', 'Computer Modern Sans Serif', 'Lucida Grande', 'Verdana', 'Geneva', 'Lucid', 'Arial', 'Helvetica', 'Avant Garde', sans-serif; text-anchor: middle" x="190.178634" y="223.444906" transform="rotate(-0 190.178634 223.444906)">0.0</text>
     </g>
    </g>
    <g id="xtick_4">
     <g id="line2d_4">
      <g>
       <use xlink:href="#m124b9af592" x="256.674221" y="209.606312" style="stroke: #000000; stroke-width: 0.8"/>
      </g>
     </g>
     <g id="text_4">
      <text style="font: 9px 'DejaVu Sans', 'Bitstream Vera Sans', 'Computer Modern Sans Serif', 'Lucida Grande', 'Verdana', 'Geneva', 'Lucid', 'Arial', 'Helvetica', 'Avant Garde', sans-serif; text-anchor: middle" x="256.674221" y="223.444906" transform="rotate(-0 256.674221 223.444906)">0.5</text>
     </g>
    </g>
    <g id="xtick_5">
     <g id="line2d_5">
      <g>
       <use xlink:href="#m124b9af592" x="323.169808" y="209.606312" style="stroke: #000000; stroke-width: 0.8"/>
      </g>
     </g>
     <g id="text_5">
      <text style="font: 9px 'DejaVu Sans', 'Bitstream Vera Sans', 'Computer Modern Sans Serif', 'Lucida Grande', 'Verdana', 'Geneva', 'Lucid', 'Arial', 'Helvetica', 'Avant Garde', sans-serif; text-anchor: middle" x="323.169808" y="223.444906" transform="rotate(-0 323.169808 223.444906)">1.0</text>
     </g>
    </g>
    <g id="xtick_6">
     <g id="line2d_6">
      <g>
       <use xlink:href="#m124b9af592" x="389.665395" y="209.606312" style="stroke: #000000; stroke-width: 0.8"/>
      </g>
     </g>
     <g id="text_6">
      <text style="font: 9px 'DejaVu Sans', 'Bitstream Vera Sans', 'Computer Modern Sans Serif', 'Lucida Grande', 'Verdana', 'Geneva', 'Lucid', 'Arial', 'Helvetica', 'Avant Garde', sans-serif; text-anchor: middle" x="389.665395" y="223.444906" transform="rotate(-0 389.665395 223.444906)">1.5</text>
     </g>
    </g>
    <g id="text_7">
     <text style="font: 9px 'DejaVu Sans', 'Bitstream Vera Sans', 'Computer Modern Sans Serif', 'Lucida Grande', 'Verdana', 'Geneva', 'Lucid', 'Arial', 'Helvetica', 'Avant Garde', sans-serif; text-anchor: middle" x="234.395313" y="236.155219" transform="rotate(-0 234.395313 236.155219)">Raw SVM discriminative coefficients</text>
    </g>
    <g id="text_8">
     <text style="font: 9px 'DejaVu Sans', 'Bitstream Vera Sans', 'Computer Modern Sans Serif', 'Lucida Grande', 'Verdana', 'Geneva', 'Lucid', 'Arial', 'Helvetica', 'Avant Garde', sans-serif; text-anchor: end" x="418.975313" y="235.155219" transform="rotate(-0 418.975313 235.155219)">1e−5</text>
    </g>
   </g>
   <g id="matplotlib.axis_2">
    <g id="ytick_1">
     <g id="line2d_7">
      <defs>
       <path id="mbf83cf6345" d="M 0 0 
L -3.5 0 
" style="stroke: #000000; stroke-width: 0.8"/>
      </defs>
      <g>
       <use xlink:href="#mbf83cf6345" x="49.815312" y="209.606312" style="stroke: #000000; stroke-width: 0.8"/>
      </g>
     </g>
     <g id="text_9">
      <text style="font: 9px 'DejaVu Sans', 'Bitstream Vera Sans', 'Computer Modern Sans Serif', 'Lucida Grande', 'Verdana', 'Geneva', 'Lucid', 'Arial', 'Helvetica', 'Avant Garde', sans-serif; text-anchor: end" x="42.815312" y="213.025609" transform="rotate(-0 42.815312 213.025609)">0</text>
     </g>
    </g>
    <g id="ytick_2">
     <g id="line2d_8">
      <g>
       <use xlink:href="#mbf83cf6345" x="49.815312" y="187.885748" style="stroke: #000000; stroke-width: 0.8"/>
      </g>
     </g>
     <g id="text_10">
      <text style="font: 9px 'DejaVu Sans', 'Bitstream Vera Sans', 'Computer Modern Sans Serif', 'Lucida Grande', 'Verdana', 'Geneva', 'Lucid', 'Arial', 'Helvetica', 'Avant Garde', sans-serif; text-anchor: end" x="42.815312" y="191.305045" transform="rotate(-0 42.815312 191.305045)">1000</text>
     </g>
    </g>
    <g id="ytick_3">
     <g id="line2d_9">
      <g>
       <use xlink:href="#mbf83cf6345" x="49.815312" y="166.165184" style="stroke: #000000; stroke-width: 0.8"/>
      </g>
     </g>
     <g id="text_11">
      <text style="font: 9px 'DejaVu Sans', 'Bitstream Vera Sans', 'Computer Modern Sans Serif', 'Lucida Grande', 'Verdana', 'Geneva', 'Lucid', 'Arial', 'Helvetica', 'Avant Garde', sans-serif; text-anchor: end" x="42.815312" y="169.584481" transform="rotate(-0 42.815312 169.584481)">2000</text>
     </g>
    </g>
    <g id="ytick_4">
     <g id="line2d_10">
      <g>
       <use xlink:href="#mbf83cf6345" x="49.815312" y="144.44462" style="stroke: #000000; stroke-width: 0.8"/>
      </g>
     </g>
     <g id="text_12">
      <text style="font: 9px 'DejaVu Sans', 'Bitstream Vera Sans', 'Computer Modern Sans Serif', 'Lucida Grande', 'Verdana', 'Geneva', 'Lucid', 'Arial', 'Helvetica', 'Avant Garde', sans-serif; text-anchor: end" x="42.815312" y="147.863917" transform="rotate(-0 42.815312 147.863917)">3000</text>
     </g>
    </g>
    <g id="ytick_5">
     <g id="line2d_11">
      <g>
       <use xlink:href="#mbf83cf6345" x="49.815312" y="122.724056" style="stroke: #000000; stroke-width: 0.8"/>
      </g>
     </g>
     <g id="text_13">
      <text style="font: 9px 'DejaVu Sans', 'Bitstream Vera Sans', 'Computer Modern Sans Serif', 'Lucida Grande', 'Verdana', 'Geneva', 'Lucid', 'Arial', 'Helvetica', 'Avant Garde', sans-serif; text-anchor: end" x="42.815312" y="126.143353" transform="rotate(-0 42.815312 126.143353)">4000</text>
     </g>
    </g>
    <g id="ytick_6">
     <g id="line2d_12">
      <g>
       <use xlink:href="#mbf83cf6345" x="49.815312" y="101.003492" style="stroke: #000000; stroke-width: 0.8"/>
      </g>
     </g>
     <g id="text_14">
      <text style="font: 9px 'DejaVu Sans', 'Bitstream Vera Sans', 'Computer Modern Sans Serif', 'Lucida Grande', 'Verdana', 'Geneva', 'Lucid', 'Arial', 'Helvetica', 'Avant Garde', sans-serif; text-anchor: end" x="42.815312" y="104.422789" transform="rotate(-0 42.815312 104.422789)">5000</text>
     </g>
    </g>
    <g id="ytick_7">
     <g id="line2d_13">
      <g>
       <use xlink:href="#mbf83cf6345" x="49.815312" y="79.282928" style="stroke: #000000; stroke-width: 0.8"/>
      </g>
     </g>
     <g id="text_15">
      <text style="font: 9px 'DejaVu Sans', 'Bitstream Vera Sans', 'Computer Modern Sans Serif', 'Lucida Grande', 'Verdana', 'Geneva', 'Lucid', 'Arial', 'Helvetica', 'Avant Garde', sans-serif; text-anchor: end" x="42.815312" y="82.702225" transform="rotate(-0 42.815312 82.702225)">6000</text>
     </g>
    </g>
    <g id="ytick_8">
     <g id="line2d_14">
      <g>
       <use xlink:href="#mbf83cf6345" x="49.815312" y="57.562364" style="stroke: #000000; stroke-width: 0.8"/>
      </g>
     </g>
     <g id="text_16">
      <text style="font: 9px 'DejaVu Sans', 'Bitstream Vera Sans', 'Computer Modern Sans Serif', 'Lucida Grande', 'Verdana', 'Geneva', 'Lucid', 'Arial', 'Helvetica', 'Avant Garde', sans-serif; text-anchor: end" x="42.815312" y="60.98166" transform="rotate(-0 42.815312 60.98166)">7000</text>
     </g>
    </g>
    <g id="ytick_9">
     <g id="line2d_15">
      <g>
       <use xlink:href="#mbf83cf6345" x="49.815312" y="35.841799" style="stroke: #000000; stroke-width: 0.8"/>
      </g>
     </g>
     <g id="text_17">
      <text style="font: 9px 'DejaVu Sans', 'Bitstream Vera Sans', 'Computer Modern Sans Serif', 'Lucida Grande', 'Verdana', 'Geneva', 'Lucid', 'Arial', 'Helvetica', 'Avant Garde', sans-serif; text-anchor: end" x="42.815312" y="39.261096" transform="rotate(-0 42.815312 39.261096)">8000</text>
     </g>
    </g>
    <g id="text_18">
     <text style="font: 9px 'DejaVu Sans', 'Bitstream Vera Sans', 'Computer Modern Sans Serif', 'Lucida Grande', 'Verdana', 'Geneva', 'Lucid', 'Arial', 'Helvetica', 'Avant Garde', sans-serif; text-anchor: middle" x="14.038594" y="115.506312" transform="rotate(-90 14.038594 115.506312)">Voxels</text>
    </g>
   </g>
   <g id="line2d_16">
    <path d="M 190.178634 209.606312 
L 190.178634 21.406312 
" clip-path="url(#pb71ef012ba)" style="fill: none; stroke: #000000; stroke-width: 0.8; stroke-linecap: square"/>
   </g>
   <g id="patch_83">
    <path d="M 49.815312 209.606312 
L 49.815312 21.406312 
" style="fill: none; stroke: #000000; stroke-width: 0.8; stroke-linejoin: miter; stroke-linecap: square"/>
   </g>
   <g id="patch_84">
    <path d="M 49.815312 209.606312 
L 418.975313 209.606312 
" style="fill: none; stroke: #000000; stroke-width: 0.8; stroke-linejoin: miter; stroke-linecap: square"/>
   </g>
   <g id="text_19">
    <text style="font: 10.8px 'DejaVu Sans', 'Bitstream Vera Sans', 'Computer Modern Sans Serif', 'Lucida Grande', 'Verdana', 'Geneva', 'Lucid', 'Arial', 'Helvetica', 'Avant Garde', sans-serif; text-anchor: middle" x="234.395313" y="15.406312" transform="rotate(-0 234.395313 15.406312)">Social context — Positive → SOCIAL; negative → NONSOCIAL</text>
   </g>
  </g>
 </g>
 <defs>
  <clipPath id="pb71ef012ba">
   <rect x="49.815312" y="21.406312" width="369.16" height="188.2"/>
  </clipPath>
 </defs>
</svg>
