<?xml version="1.0" encoding="utf-8" standalone="no"?>
<!DOCTYPE svg PUBLIC "-//W3C//DTD SVG 1.1//EN"
  "http://www.w3.org/Graphics/SVG/1.1/DTD/svg11.dtd">
<svg xmlns:xlink="http://www.w3.org/1999/xlink" width="434.841906pt" height="245.226937pt" viewBox="0 0 434.841906 245.226937" xmlns="http://www.w3.org/2000/svg" version="1.1">
 <metadata>
  <rdf:RDF xmlns:dc="http://purl.org/dc/elements/1.1/" xmlns:cc="http://creativecommons.org/ns#" xmlns:rdf="http://www.w3.org/1999/02/22-rdf-syntax-ns#">
   <cc:Work>
    <dc:type rdf:resource="http://purl.org/dc/dcmitype/StillImage"/>
    <dc:date>2026-10-04T13:13:33.117191</dc:date>
    <dc:format>image/svg+xml</dc:format>
    <dc:creator>
     <cc:Agent>
      <dc:title>Matplotlib v3.7.1, https://matplotlib.org/</dc:title>
     </cc:Agent>
    </dc:creator>
   </cc:Work>
  </rdf:RDF>
 </metadata>
 <defs>
  <style type="text/css">*{stroke-linejoin: round; stroke-linecap: butt}</style>
 </defs>
 <g id="figure_1">
  <g id="patch_1">
   <path d="M 0 245.226937 
L 434.841906 245.226937 
L 434.841906 0 
L 0 0 
z
" style="fill: #ffffff"/>
  </g>
  <g id="axes_1">
   <g id="patch_2">
    <path d="M 49.815312 209.606312 
L 418.975313 209.606312 
L 418.975313 21.406312 
L 49.815312 21.406312 
z
" style="fill: #ffffff"/>
   </g>
   <g id="patch_3">
    <path d="M 66.595312 209.606312 
L 70.790312 209.606312 
L 70.790312 209.58432 
L 66.595312 209.58432 
z
" clip-path="url(#p28b2a2c192)" style="fill: #476b85"/>
   </g>
   <g id="patch_4">
    <path d="M 70.790312 209.606312 
L 74.985312 209.606312 
L 74.985312 209.562328 
L 70.790312 209.562328 
z
" clip-path="url(#p28b2a2c192)" style="fill: #476b85"/>
   </g>
   <g id="patch_5">
    <path d="M 74.985312 209.606312 
L 79.180312 209.606312 
L 79.180312 209.58432 
L 74.985312 209.58432 
z
" clip-path="url(#p28b2a2c192)" style="fill: #476b85"/>
   </g>
   <g id="patch_6">
    <path d="M 79.180312 209.606312 
L 83.375312 209.606312 
L 83.375312 209.58432 
L 79.180312 209.58432 
z
" clip-path="url(#p28b2a2c192)" style="fill: #476b85"/>
   </g>
   <g id="patch_7">
    <path d="M 83.375312 209.606312 
L 87.570312 209.606312 
L 87.570312 209.518343 
L 83.375312 209.518343 
z
" clip-path="url(#p28b2a2c192)" style="fill: #476b85"/>
   </g>
   <g id="patch_8">
    <path d="M 87.570312 209.606312 
L 91.765312 209.606312 
L 91.765312 209.540335 
L 87.570312 209.540335 
z
" clip-path="url(#p28b2a2c192)" style="fill: #476b85"/>
   </g>
   <g id="patch_9">
    <path d="M 91.765312 209.606312 
L 95.960312 209.606312 
L 95.960312 209.430373 
L 91.765312 209.430373 
z
" clip-path="url(#p28b2a2c192)" style="fill: #476b85"/>
   </g>
   <g id="patch_10">
    <path d="M 95.960312 209.606312 
L 100.155312 209.606312 
L 100.155312 209.298419 
L 95.960312 209.298419 
z
" clip-path="url(#p28b2a2c192)" style="fill: #476b85"/>
   </g>
   <g id="patch_11">
    <path d="M 100.155312 209.606312 
L 104.350312 209.606312 
L 104.350312 209.254434 
L 100.155312 209.254434 
z
" clip-path="url(#p28b2a2c192)" style="fill: #476b85"/>
   </g>
   <g id="patch_12">
    <path d="M 104.350312 209.606312 
L 108.545312 209.606312 
L 108.545312 209.210449 
L 104.350312 209.210449 
z
" clip-path="url(#p28b2a2c192)" style="fill: #476b85"/>
   </g>
   <g id="patch_13">
    <path d="M 108.545312 209.606312 
L 112.740312 209.606312 
L 112.740312 209.056502 
L 108.545312 209.056502 
z
" clip-path="url(#p28b2a2c192)" style="fill: #476b85"/>
   </g>
   <g id="patch_14">
    <path d="M 112.740312 209.606312 
L 116.935312 209.606312 
L 116.935312 208.836578 
L 112.740312 208.836578 
z
" clip-path="url(#p28b2a2c192)" style="fill: #476b85"/>
   </g>
   <g id="patch_15">
    <path d="M 116.935312 209.606312 
L 121.130312 209.606312 
L 121.130312 208.308761 
L 116.935312 208.308761 
z
" clip-path="url(#p28b2a2c192)" style="fill: #476b85"/>
   </g>
   <g id="patch_16">
    <path d="M 121.130312 209.606312 
L 125.325312 209.606312 
L 125.325312 208.022859 
L 121.130312 208.022859 
z
" clip-path="url(#p28b2a2c192)" style="fill: #476b85"/>
   </g>
   <g id="patch_17">
    <path d="M 125.325312 209.606312 
L 129.520312 209.606312 
L 129.520312 206.417414 
L 125.325312 206.417414 
z
" clip-path="url(#p28b2a2c192)" style="fill: #476b85"/>
   </g>
   <g id="patch_18">
    <path d="M 129.520312 209.606312 
L 133.715312 209.606312 
L 133.715312 205.493733 
L 129.520312 205.493733 
z
" clip-path="url(#p28b2a2c192)" style="fill: #476b85"/>
   </g>
   <g id="patch_19">
    <path d="M 133.715312 209.606312 
L 137.910312 209.606312 
L 137.910312 202.964606 
L 133.715312 202.964606 
z
" clip-path="url(#p28b2a2c192)" style="fill: #476b85"/>
   </g>
   <g id="patch_20">
    <path d="M 137.910312 209.606312 
L 142.105312 209.606312 
L 142.105312 201.469123 
L 137.910312 201.469123 
z
" clip-path="url(#p28b2a2c192)" style="fill: #476b85"/>
   </g>
   <g id="patch_21">
    <path d="M 142.105312 209.606312 
L 146.300312 209.606312 
L 146.300312 196.520832 
L 142.105312 196.520832 
z
" clip-path="url(#p28b2a2c192)" style="fill: #476b85"/>
   </g>
   <g id="patch_22">
    <path d="M 146.300312 209.606312 
L 150.495312 209.606312 
L 150.495312 192.628176 
L 146.300312 192.628176 
z
" clip-path="url(#p28b2a2c192)" style="fill: #476b85"/>
   </g>
   <g id="patch_23">
    <path d="M 150.495313 209.606312 
L 154.690313 209.606312 
L 154.690313 185.480645 
L 150.495313 185.480645 
z
" clip-path="url(#p28b2a2c192)" style="fill: #476b85"/>
   </g>
   <g id="patch_24">
    <path d="M 154.690313 209.606312 
L 158.885312 209.606312 
L 158.885312 177.849281 
L 154.690313 177.849281 
z
" clip-path="url(#p28b2a2c192)" style="fill: #476b85"/>
   </g>
   <g id="patch_25">
    <path d="M 158.885312 209.606312 
L 163.080312 209.606312 
L 163.080312 162.718506 
L 158.885312 162.718506 
z
" clip-path="url(#p28b2a2c192)" style="fill: #476b85"/>
   </g>
   <g id="patch_26">
    <path d="M 163.080312 209.606312 
L 167.275312 209.606312 
L 167.275312 146.92796 
L 163.080312 146.92796 
z
" clip-path="url(#p28b2a2c192)" style="fill: #476b85"/>
   </g>
   <g id="patch_27">
    <path d="M 167.275312 209.606312 
L 171.470313 209.606312 
L 171.470313 128.102462 
L 167.275312 128.102462 
z
" clip-path="url(#p28b2a2c192)" style="fill: #476b85"/>
   </g>
   <g id="patch_28">
    <path d="M 171.470312 209.606312 
L 175.665312 209.606312 
L 175.665312 101.205752 
L 171.470312 101.205752 
z
" clip-path="url(#p28b2a2c192)" style="fill: #476b85"/>
   </g>
   <g id="patch_29">
    <path d="M 175.665312 209.606312 
L 179.860312 209.606312 
L 179.860312 74.902836 
L 175.665312 74.902836 
z
" clip-path="url(#p28b2a2c192)" style="fill: #476b85"/>
   </g>
   <g id="patch_30">
    <path d="M 179.860312 209.606312 
L 184.055313 209.606312 
L 184.055313 50.865138 
L 179.860312 50.865138 
z
" clip-path="url(#p28b2a2c192)" style="fill: #476b85"/>
   </g>
   <g id="patch_31">
    <path d="M 184.055313 209.606312 
L 188.250313 209.606312 
L 188.250313 32.325541 
L 184.055313 32.325541 
z
" clip-path="url(#p28b2a2c192)" style="fill: #476b85"/>
   </g>
   <g id="patch_32">
    <path d="M 188.250312 209.606312 
L 192.445312 209.606312 
L 192.445312 30.368217 
L 188.250312 30.368217 
z
" clip-path="url(#p28b2a2c192)" style="fill: #476b85"/>
   </g>
   <g id="patch_33">
    <path d="M 192.445312 209.606312 
L 196.640312 209.606312 
L 196.640312 41.012541 
L 192.445312 41.012541 
z
" clip-path="url(#p28b2a2c192)" style="fill: #476b85"/>
   </g>
   <g id="patch_34">
    <path d="M 196.640312 209.606312 
L 200.835313 209.606312 
L 200.835313 59.156275 
L 196.640312 59.156275 
z
" clip-path="url(#p28b2a2c192)" style="fill: #476b85"/>
   </g>
   <g id="patch_35">
    <path d="M 200.835312 209.606312 
L 205.030313 209.606312 
L 205.030313 85.305243 
L 200.835312 85.305243 
z
" clip-path="url(#p28b2a2c192)" style="fill: #476b85"/>
   </g>
   <g id="patch_36">
    <path d="M 205.030313 209.606312 
L 209.225313 209.606312 
L 209.225313 114.687095 
L 205.030313 114.687095 
z
" clip-path="url(#p28b2a2c192)" style="fill: #476b85"/>
   </g>
   <g id="patch_37">
    <path d="M 209.225313 209.606312 
L 213.420313 209.606312 
L 213.420313 138.065021 
L 209.225313 138.065021 
z
" clip-path="url(#p28b2a2c192)" style="fill: #476b85"/>
   </g>
   <g id="patch_38">
    <path d="M 213.420312 209.606312 
L 217.615312 209.606312 
L 217.615312 158.232056 
L 213.420312 158.232056 
z
" clip-path="url(#p28b2a2c192)" style="fill: #476b85"/>
   </g>
   <g id="patch_39">
    <path d="M 217.615312 209.606312 
L 221.810313 209.606312 
L 221.810313 172.065278 
L 217.615312 172.065278 
z
" clip-path="url(#p28b2a2c192)" style="fill: #476b85"/>
   </g>
   <g id="patch_40">
    <path d="M 221.810313 209.606312 
L 226.005313 209.606312 
L 226.005313 184.776888 
L 221.810313 184.776888 
z
" clip-path="url(#p28b2a2c192)" style="fill: #476b85"/>
   </g>
   <g id="patch_41">
    <path d="M 226.005313 209.606312 
L 230.200312 209.606312 
L 230.200312 191.19867 
L 226.005313 191.19867 
z
" clip-path="url(#p28b2a2c192)" style="fill: #476b85"/>
   </g>
   <g id="patch_42">
    <path d="M 230.200312 209.606312 
L 234.395313 209.606312 
L 234.395313 196.96068 
L 230.200312 196.96068 
z
" clip-path="url(#p28b2a2c192)" style="fill: #476b85"/>
   </g>
   <g id="patch_43">
    <path d="M 234.395312 209.606312 
L 238.590312 209.606312 
L 238.590312 200.633412 
L 234.395312 200.633412 
z
" clip-path="url(#p28b2a2c192)" style="fill: #476b85"/>
   </g>
   <g id="patch_44">
    <path d="M 238.590312 209.606312 
L 242.785313 209.606312 
L 242.785313 203.426447 
L 238.590312 203.426447 
z
" clip-path="url(#p28b2a2c192)" style="fill: #476b85"/>
   </g>
   <g id="patch_45">
    <path d="M 242.785313 209.606312 
L 246.980313 209.606312 
L 246.980313 204.745991 
L 242.785313 204.745991 
z
" clip-path="url(#p28b2a2c192)" style="fill: #476b85"/>
   </g>
   <g id="patch_46">
    <path d="M 246.980313 209.606312 
L 251.175313 209.606312 
L 251.175313 206.373429 
L 246.980313 206.373429 
z
" clip-path="url(#p28b2a2c192)" style="fill: #476b85"/>
   </g>
   <g id="patch_47">
    <path d="M 251.175312 209.606312 
L 255.370313 209.606312 
L 255.370313 207.824928 
L 251.175312 207.824928 
z
" clip-path="url(#p28b2a2c192)" style="fill: #476b85"/>
   </g>
   <g id="patch_48">
    <path d="M 255.370313 209.606312 
L 259.565313 209.606312 
L 259.565313 208.39673 
L 255.370313 208.39673 
z
" clip-path="url(#p28b2a2c192)" style="fill: #476b85"/>
   </g>
   <g id="patch_49">
    <path d="M 259.565313 209.606312 
L 263.760312 209.606312 
L 263.760312 208.880563 
L 259.565313 208.880563 
z
" clip-path="url(#p28b2a2c192)" style="fill: #476b85"/>
   </g>
   <g id="patch_50">
    <path d="M 263.760312 209.606312 
L 267.955312 209.606312 
L 267.955312 208.704624 
L 263.760312 208.704624 
z
" clip-path="url(#p28b2a2c192)" style="fill: #476b85"/>
   </g>
   <g id="patch_51">
    <path d="M 267.955312 209.606312 
L 272.150312 209.606312 
L 272.150312 209.144472 
L 267.955312 209.144472 
z
" clip-path="url(#p28b2a2c192)" style="fill: #476b85"/>
   </g>
   <g id="patch_52">
    <path d="M 272.150312 209.606312 
L 276.345312 209.606312 
L 276.345312 209.100487 
L 272.150312 209.100487 
z
" clip-path="url(#p28b2a2c192)" style="fill: #476b85"/>
   </g>
   <g id="patch_53">
    <path d="M 276.345313 209.606312 
L 280.540313 209.606312 
L 280.540313 209.166464 
L 276.345313 209.166464 
z
" clip-path="url(#p28b2a2c192)" style="fill: #476b85"/>
   </g>
   <g id="patch_54">
    <path d="M 280.540313 209.606312 
L 284.735312 209.606312 
L 284.735312 209.430373 
L 280.540313 209.430373 
z
" clip-path="url(#p28b2a2c192)" style="fill: #476b85"/>
   </g>
   <g id="patch_55">
    <path d="M 284.735312 209.606312 
L 288.930312 209.606312 
L 288.930312 209.452366 
L 284.735312 209.452366 
z
" clip-path="url(#p28b2a2c192)" style="fill: #476b85"/>
   </g>
   <g id="patch_56">
    <path d="M 288.930313 209.606312 
L 293.125313 209.606312 
L 293.125313 209.452366 
L 288.930313 209.452366 
z
" clip-path="url(#p28b2a2c192)" style="fill: #476b85"/>
   </g>
   <g id="patch_57">
    <path d="M 293.125313 209.606312 
L 297.320312 209.606312 
L 297.320312 209.474358 
L 293.125313 209.474358 
z
" clip-path="url(#p28b2a2c192)" style="fill: #476b85"/>
   </g>
   <g id="patch_58">
    <path d="M 297.320312 209.606312 
L 301.515312 209.606312 
L 301.515312 209.452366 
L 297.320312 209.452366 
z
" clip-path="url(#p28b2a2c192)" style="fill: #476b85"/>
   </g>
   <g id="patch_59">
    <path d="M 301.515313 209.606312 
L 305.710312 209.606312 
L 305.710312 209.518343 
L 301.515313 209.518343 
z
" clip-path="url(#p28b2a2c192)" style="fill: #476b85"/>
   </g>
   <g id="patch_60">
    <path d="M 305.710312 209.606312 
L 309.905312 209.606312 
L 309.905312 209.562328 
L 305.710312 209.562328 
z
" clip-path="url(#p28b2a2c192)" style="fill: #476b85"/>
   </g>
   <g id="patch_61">
    <path d="M 309.905313 209.606312 
L 314.100313 209.606312 
L 314.100313 209.562328 
L 309.905313 209.562328 
z
" clip-path="url(#p28b2a2c192)" style="fill: #476b85"/>
   </g>
   <g id="patch_62">
    <path d="M 314.100313 209.606312 
L 318.295313 209.606312 
L 318.295313 209.562328 
L 314.100313 209.562328 
z
" clip-path="url(#p28b2a2c192)" style="fill: #476b85"/>
   </g>
   <g id="patch_63">
    <path d="M 318.295313 209.606312 
L 322.490313 209.606312 
L 322.490313 209.518343 
L 318.295313 209.518343 
z
" clip-path="url(#p28b2a2c192)" style="fill: #476b85"/>
   </g>
   <g id="patch_64">
    <path d="M 322.490313 209.606312 
L 326.685313 209.606312 
L 326.685313 209.562328 
L 322.490313 209.562328 
z
" clip-path="url(#p28b2a2c192)" style="fill: #476b85"/>
   </g>
   <g id="patch_65">
    <path d="M 326.685313 209.606312 
L 330.880313 209.606312 
L 330.880313 209.606312 
L 326.685313 209.606312 
z
" clip-path="url(#p28b2a2c192)" style="fill: #476b85"/>
   </g>
   <g id="patch_66">
    <path d="M 330.880313 209.606312 
L 335.075312 209.606312 
L 335.075312 209.518343 
L 330.880313 209.518343 
z
" clip-path="url(#p28b2a2c192)" style="fill: #476b85"/>
   </g>
   <g id="patch_67">
    <path d="M 335.075312 209.606312 
L 339.270312 209.606312 
L 339.270312 209.606312 
L 335.075312 209.606312 
z
" clip-path="url(#p28b2a2c192)" style="fill: #476b85"/>
   </g>
   <g id="patch_68">
    <path d="M 339.270313 209.606312 
L 343.465313 209.606312 
L 343.465313 209.606312 
L 339.270313 209.606312 
z
" clip-path="url(#p28b2a2c192)" style="fill: #476b85"/>
   </g>
   <g id="patch_69">
    <path d="M 343.465313 209.606312 
L 347.660312 209.606312 
L 347.660312 209.606312 
L 343.465313 209.606312 
z
" clip-path="url(#p28b2a2c192)" style="fill: #476b85"/>
   </g>
   <g id="patch_70">
    <path d="M 347.660313 209.606312 
L 351.855313 209.606312 
L 351.855313 209.58432 
L 347.660313 209.58432 
z
" clip-path="url(#p28b2a2c192)" style="fill: #476b85"/>
   </g>
   <g id="patch_71">
    <path d="M 351.855312 209.606312 
L 356.050312 209.606312 
L 356.050312 209.606312 
L 351.855312 209.606312 
z
" clip-path="url(#p28b2a2c192)" style="fill: #476b85"/>
   </g>
   <g id="patch_72">
    <path d="M 356.050313 209.606312 
L 360.245313 209.606312 
L 360.245313 209.606312 
L 356.050313 209.606312 
z
" clip-path="url(#p28b2a2c192)" style="fill: #476b85"/>
   </g>
   <g id="patch_73">
    <path d="M 360.245313 209.606312 
L 364.440313 209.606312 
L 364.440313 209.58432 
L 360.245313 209.58432 
z
" clip-path="url(#p28b2a2c192)" style="fill: #476b85"/>
   </g>
   <g id="patch_74">
    <path d="M 364.440313 209.606312 
L 368.635312 209.606312 
L 368.635312 209.606312 
L 364.440313 209.606312 
z
" clip-path="url(#p28b2a2c192)" style="fill: #476b85"/>
   </g>
   <g id="patch_75">
    <path d="M 368.635312 209.606312 
L 372.830312 209.606312 
L 372.830312 209.606312 
L 368.635312 209.606312 
z
" clip-path="url(#p28b2a2c192)" style="fill: #476b85"/>
   </g>
   <g id="patch_76">
    <path d="M 372.830312 209.606312 
L 377.025312 209.606312 
L 377.025312 209.606312 
L 372.830312 209.606312 
z
" clip-path="url(#p28b2a2c192)" style="fill: #476b85"/>
   </g>
   <g id="patch_77">
    <path d="M 377.025313 209.606312 
L 381.220313 209.606312 
L 381.220313 209.606312 
L 377.025313 209.606312 
z
" clip-path="url(#p28b2a2c192)" style="fill: #476b85"/>
   </g>
   <g id="patch_78">
    <path d="M 381.220313 209.606312 
L 385.415313 209.606312 
L 385.415313 209.606312 
L 381.220313 209.606312 
z
" clip-path="url(#p28b2a2c192)" style="fill: #476b85"/>
   </g>
   <g id="patch_79">
    <path d="M 385.415313 209.606312 
L 389.610312 209.606312 
L 389.610312 209.58432 
L 385.415313 209.58432 
z
" clip-path="url(#p28b2a2c192)" style="fill: #476b85"/>
   </g>
   <g id="patch_80">
    <path d="M 389.610313 209.606312 
L 393.805313 209.606312 
L 393.805313 209.58432 
L 389.610313 209.58432 
z
" clip-path="url(#p28b2a2c192)" style="fill: #476b85"/>
   </g>
   <g id="patch_81">
    <path d="M 393.805313 209.606312 
L 398.000313 209.606312 
L 398.000313 209.606312 
L 393.805313 209.606312 
z
" clip-path="url(#p28b2a2c192)" style="fill: #476b85"/>
   </g>
   <g id="patch_82">
    <path d="M 398.000313 209.606312 
L 402.195313 209.606312 
L 402.195313 209.58432 
L 398.000313 209.58432 
z
" clip-path="url(#p28b2a2c192)" style="fill: #476b85"/>
   </g>
   <g id="matplotlib.axis_1">
    <g id="xtick_1">
     <g id="line2d_1">
      <defs>
       <path id="m6202348ee2" d="M 0 0 
L 0 3.5 
" style="stroke: #000000; stroke-width: 0.8"/>
      </defs>
      <g>
       <use xlink:href="#m6202348ee2" x="55.58532" y="209.606312" style="stroke: #000000; stroke-width: 0.8"/>
      </g>
     </g>
     <g id="text_1">
      <text style="font: 9px 'DejaVu Sans', 'Bitstream Vera Sans', 'Computer Modern Sans Serif', 'Lucida Grande', 'Verdana', 'Geneva', 'Lucid', 'Arial', 'Helvetica', 'Avant Garde', sans-serif; text-anchor: middle" x="55.58532" y="223.444906" transform="rotate(-0 55.58532 223.444906)">−20</text>
     </g>
    </g>
    <g id="xtick_2">
     <g id="line2d_2">
      <g>
       <use xlink:href="#m6202348ee2" x="122.327684" y="209.606312" style="stroke: #000000; stroke-width: 0.8"/>
      </g>
     </g>
     <g id="text_2">
      <text style="font: 9px 'DejaVu Sans', 'Bitstream Vera Sans', 'Computer Modern Sans Serif', 'Lucida Grande', 'Verdana', 'Geneva', 'Lucid', 'Arial', 'Helvetica', 'Avant Garde', sans-serif; text-anchor: middle" x="122.327684" y="223.444906" transform="rotate(-0 122.327684 223.444906)">−10</text>
     </g>
    </g>
    <g id="xtick_3">
     <g id="line2d_3">
      <g>
       <use xlink:href="#m6202348ee2" x="189.070049" y="209.606312" style="stroke: #000000; stroke-width: 0.8"/>
      </g>
     </g>
     <g id="text_3">
      <text style="font: 9px 'DejaVu Sans', 'Bitstream Vera Sans', 'Computer Modern Sans Serif', 'Lucida Grande', 'Verdana', 'Geneva', 'Lucid', 'Arial', 'Helvetica', 'Avant Garde', sans-serif; text-anchor: middle" x="189.070049" y="223.444906" transform="rotate(-0 189.070049 223.444906)">0</text>
     </g>
    </g>
    <g id="xtick_4">
     <g id="line2d_4">
      <g>
       <use xlink:href="#m6202348ee2" x="255.812413" y="209.606312" style="stroke: #000000; stroke-width: 0.8"/>
      </g>
     </g>
     <g id="text_4">
      <text style="font: 9px 'DejaVu Sans', 'Bitstream Vera Sans', 'Computer Modern Sans Serif', 'Lucida Grande', 'Verdana', 'Geneva', 'Lucid', 'Arial', 'Helvetica', 'Avant Garde', sans-serif; text-anchor: middle" x="255.812413" y="223.444906" transform="rotate(-0 255.812413 223.444906)">10</text>
     </g>
    </g>
    <g id="xtick_5">
     <g id="line2d_5">
      <g>
       <use xlink:href="#m6202348ee2" x="322.554777" y="209.606312" style="stroke: #000000; stroke-width: 0.8"/>
      </g>
     </g>
     <g id="text_5">
      <text style="font: 9px 'DejaVu Sans', 'Bitstream Vera Sans', 'Computer Modern Sans Serif', 'Lucida Grande', 'Verdana', 'Geneva', 'Lucid', 'Arial', 'Helvetica', 'Avant Garde', sans-serif; text-anchor: middle" x="322.554777" y="223.444906" transform="rotate(-0 322.554777 223.444906)">20</text>
     </g>
    </g>
    <g id="xtick_6">
     <g id="line2d_6">
      <g>
       <use xlink:href="#m6202348ee2" x="389.297141" y="209.606312" style="stroke: #000000; stroke-width: 0.8"/>
      </g>
     </g>
     <g id="text_6">
      <text style="font: 9px 'DejaVu Sans', 'Bitstream Vera Sans', 'Computer Modern Sans Serif', 'Lucida Grande', 'Verdana', 'Geneva', 'Lucid', 'Arial', 'Helvetica', 'Avant Garde', sans-serif; text-anchor: middle" x="389.297141" y="223.444906" transform="rotate(-0 389.297141 223.444906)">30</text>
     </g>
    </g>
    <g id="text_7">
     <text style="font: 9px 'DejaVu Sans', 'Bitstream Vera Sans', 'Computer Modern Sans Serif', 'Lucida Grande', 'Verdana', 'Geneva', 'Lucid', 'Arial', 'Helvetica', 'Avant Garde', sans-serif; text-anchor: middle" x="234.395313" y="236.155219" transform="rotate(-0 234.395313 236.155219)">Haufe descriptive activation pattern</text>
    </g>
   </g>
   <g id="matplotlib.axis_2">
    <g id="ytick_1">
     <g id="line2d_7">
      <defs>
       <path id="m75db6a7fb8" d="M 0 0 
L -3.5 0 
" style="stroke: #000000; stroke-width: 0.8"/>
      </defs>
      <g>
       <use xlink:href="#m75db6a7fb8" x="49.815312" y="209.606312" style="stroke: #000000; stroke-width: 0.8"/>
      </g>
     </g>
     <g id="text_8">
      <text style="font: 9px 'DejaVu Sans', 'Bitstream Vera Sans', 'Computer Modern Sans Serif', 'Lucida Grande', 'Verdana', 'Geneva', 'Lucid', 'Arial', 'Helvetica', 'Avant Garde', sans-serif; text-anchor: end" x="42.815312" y="213.025609" transform="rotate(-0 42.815312 213.025609)">0</text>
     </g>
    </g>
    <g id="ytick_2">
     <g id="line2d_8">
      <g>
       <use xlink:href="#m75db6a7fb8" x="49.815312" y="187.613908" style="stroke: #000000; stroke-width: 0.8"/>
      </g>
     </g>
     <g id="text_9">
      <text style="font: 9px 'DejaVu Sans', 'Bitstream Vera Sans', 'Computer Modern Sans Serif', 'Lucida Grande', 'Verdana', 'Geneva', 'Lucid', 'Arial', 'Helvetica', 'Avant Garde', sans-serif; text-anchor: end" x="42.815312" y="191.033205" transform="rotate(-0 42.815312 191.033205)">1000</text>
     </g>
    </g>
    <g id="ytick_3">
     <g id="line2d_9">
      <g>
       <use xlink:href="#m75db6a7fb8" x="49.815312" y="165.621504" style="stroke: #000000; stroke-width: 0.8"/>
      </g>
     </g>
     <g id="text_10">
      <text style="font: 9px 'DejaVu Sans', 'Bitstream Vera Sans', 'Computer Modern Sans Serif', 'Lucida Grande', 'Verdana', 'Geneva', 'Lucid', 'Arial', 'Helvetica', 'Avant Garde', sans-serif; text-anchor: end" x="42.815312" y="169.040801" transform="rotate(-0 42.815312 169.040801)">2000</text>
     </g>
    </g>
    <g id="ytick_4">
     <g id="line2d_10">
      <g>
       <use xlink:href="#m75db6a7fb8" x="49.815312" y="143.6291" style="stroke: #000000; stroke-width: 0.8"/>
      </g>
     </g>
     <g id="text_11">
      <text style="font: 9px 'DejaVu Sans', 'Bitstream Vera Sans', 'Computer Modern Sans Serif', 'Lucida Grande', 'Verdana', 'Geneva', 'Lucid', 'Arial', 'Helvetica', 'Avant Garde', sans-serif; text-anchor: end" x="42.815312" y="147.048396" transform="rotate(-0 42.815312 147.048396)">3000</text>
     </g>
    </g>
    <g id="ytick_5">
     <g id="line2d_11">
      <g>
       <use xlink:href="#m75db6a7fb8" x="49.815312" y="121.636695" style="stroke: #000000; stroke-width: 0.8"/>
      </g>
     </g>
     <g id="text_12">
      <text style="font: 9px 'DejaVu Sans', 'Bitstream Vera Sans', 'Computer Modern Sans Serif', 'Lucida Grande', 'Verdana', 'Geneva', 'Lucid', 'Arial', 'Helvetica', 'Avant Garde', sans-serif; text-anchor: end" x="42.815312" y="125.055992" transform="rotate(-0 42.815312 125.055992)">4000</text>
     </g>
    </g>
    <g id="ytick_6">
     <g id="line2d_12">
      <g>
       <use xlink:href="#m75db6a7fb8" x="49.815312" y="99.644291" style="stroke: #000000; stroke-width: 0.8"/>
      </g>
     </g>
     <g id="text_13">
      <text style="font: 9px 'DejaVu Sans', 'Bitstream Vera Sans', 'Computer Modern Sans Serif', 'Lucida Grande', 'Verdana', 'Geneva', 'Lucid', 'Arial', 'Helvetica', 'Avant Garde', sans-serif; text-anchor: end" x="42.815312" y="103.063588" transform="rotate(-0 42.815312 103.063588)">5000</text>
     </g>
    </g>
    <g id="ytick_7">
     <g id="line2d_13">
      <g>
       <use xlink:href="#m75db6a7fb8" x="49.815312" y="77.651887" style="stroke: #000000; stroke-width: 0.8"/>
      </g>
     </g>
     <g id="text_14">
      <text style="font: 9px 'DejaVu Sans', 'Bitstream Vera Sans', 'Computer Modern Sans Serif', 'Lucida Grande', 'Verdana', 'Geneva', 'Lucid', 'Arial', 'Helvetica', 'Avant Garde', sans-serif; text-anchor: end" x="42.815312" y="81.071183" transform="rotate(-0 42.815312 81.071183)">6000</text>
     </g>
    </g>
    <g id="ytick_8">
     <g id="line2d_14">
      <g>
       <use xlink:href="#m75db6a7fb8" x="49.815312" y="55.659482" style="stroke: #000000; stroke-width: 0.8"/>
      </g>
     </g>
     <g id="text_15">
      <text style="font: 9px 'DejaVu Sans', 'Bitstream Vera Sans', 'Computer Modern Sans Serif', 'Lucida Grande', 'Verdana', 'Geneva', 'Lucid', 'Arial', 'Helvetica', 'Avant Garde', sans-serif; text-anchor: end" x="42.815312" y="59.078779" transform="rotate(-0 42.815312 59.078779)">7000</text>
     </g>
    </g>
    <g id="ytick_9">
     <g id="line2d_15">
      <g>
       <use xlink:href="#m75db6a7fb8" x="49.815312" y="33.667078" style="stroke: #000000; stroke-width: 0.8"/>
      </g>
     </g>
     <g id="text_16">
      <text style="font: 9px 'DejaVu Sans', 'Bitstream Vera Sans', 'Computer Modern Sans Serif', 'Lucida Grande', 'Verdana', 'Geneva', 'Lucid', 'Arial', 'Helvetica', 'Avant Garde', sans-serif; text-anchor: end" x="42.815312" y="37.086375" transform="rotate(-0 42.815312 37.086375)">8000</text>
     </g>
    </g>
    <g id="text_17">
     <text style="font: 9px 'DejaVu Sans', 'Bitstream Vera Sans', 'Computer Modern Sans Serif', 'Lucida Grande', 'Verdana', 'Geneva', 'Lucid', 'Arial', 'Helvetica', 'Avant Garde', sans-serif; text-anchor: middle" x="14.038594" y="115.506312" transform="rotate(-90 14.038594 115.506312)">Voxels</text>
    </g>
   </g>
   <g id="line2d_16">
    <path d="M 189.070049 209.606312 
L 189.070049 21.406312 
" clip-path="url(#p28b2a2c192)" style="fill: none; stroke: #000000; stroke-width: 0.8; stroke-linecap: square"/>
   </g>
   <g id="patch_83">
    <path d="M 49.815312 209.606312 
L 49.815312 21.406312 
" style="fill: none; stroke: #000000; stroke-width: 0.8; stroke-linejoin: miter; stroke-linecap: square"/>
   </g>
   <g id="patch_84">
    <path d="M 49.815312 209.606312 
L 418.975313 209.606312 
" style="fill: none; stroke: #000000; stroke-width: 0.8; stroke-linejoin: miter; stroke-linecap: square"/>
   </g>
   <g id="text_18">
    <text style="font: 10.8px 'DejaVu Sans', 'Bitstream Vera Sans', 'Computer Modern Sans Serif', 'Lucida Grande', 'Verdana', 'Geneva', 'Lucid', 'Arial', 'Helvetica', 'Avant Garde', sans-serif; text-anchor: middle" x="234.395313" y="15.406312" transform="rotate(-0 234.395313 15.406312)">Social reward modulation — Positive → SOCIAL; negative → NONSOCIAL</text>
   </g>
  </g>
 </g>
 <defs>
  <clipPath id="p28b2a2c192">
   <rect x="49.815312" y="21.406312" width="369.16" height="188.2"/>
  </clipPath>
 </defs>
</svg>
