<?xml version="1.0" encoding="utf-8" standalone="no"?>
<!DOCTYPE svg PUBLIC "-//W3C//DTD SVG 1.1//EN"
  "http://www.w3.org/Graphics/SVG/1.1/DTD/svg11.dtd">
<svg xmlns:xlink="http://www.w3.org/1999/xlink" width="426.141562pt" height="245.226937pt" viewBox="0 0 426.141562 245.226937" xmlns="http://www.w3.org/2000/svg" version="1.1">
 <metadata>
  <rdf:RDF xmlns:dc="http://purl.org/dc/elements/1.1/" xmlns:cc="http://creativecommons.org/ns#" xmlns:rdf="http://www.w3.org/1999/02/22-rdf-syntax-ns#">
   <cc:Work>
    <dc:type rdf:resource="http://purl.org/dc/dcmitype/StillImage"/>
    <dc:date>2026-10-04T13:13:08.671357</dc:date>
    <dc:format>image/svg+xml</dc:format>
    <dc:creator>
     <cc:Agent>
      <dc:title>Matplotlib v3.7.1, https://matplotlib.org/</dc:title>
     </cc:Agent>
    </dc:creator>
   </cc:Work>
  </rdf:RDF>
 </metadata>
 <defs>
  <style type="text/css">*{stroke-linejoin: round; stroke-linecap: butt}</style>
 </defs>
 <g id="figure_1">
  <g id="patch_1">
   <path d="M 0 245.226937 
L 426.141562 245.226937 
L 426.141562 0 
L 0 0 
z
" style="fill: #ffffff"/>
  </g>
  <g id="axes_1">
   <g id="patch_2">
    <path d="M 55.541562 209.606312 
L 418.941563 209.606312 
L 418.941563 21.406312 
L 55.541562 21.406312 
z
" style="fill: #ffffff"/>
   </g>
   <g id="patch_3">
    <path d="M 72.059744 209.606312 
L 76.18929 209.606312 
L 76.18929 209.538271 
L 72.059744 209.538271 
z
" clip-path="url(#pff3aec471c)" style="fill: #476b85"/>
   </g>
   <g id="patch_4">
    <path d="M 76.18929 209.606312 
L 80.318835 209.606312 
L 80.318835 209.589302 
L 76.18929 209.589302 
z
" clip-path="url(#pff3aec471c)" style="fill: #476b85"/>
   </g>
   <g id="patch_5">
    <path d="M 80.318835 209.606312 
L 84.448381 209.606312 
L 84.448381 209.48724 
L 80.318835 209.48724 
z
" clip-path="url(#pff3aec471c)" style="fill: #476b85"/>
   </g>
   <g id="patch_6">
    <path d="M 84.448381 209.606312 
L 88.577926 209.606312 
L 88.577926 209.419199 
L 84.448381 209.419199 
z
" clip-path="url(#pff3aec471c)" style="fill: #476b85"/>
   </g>
   <g id="patch_7">
    <path d="M 88.577926 209.606312 
L 92.707472 209.606312 
L 92.707472 209.164043 
L 88.577926 209.164043 
z
" clip-path="url(#pff3aec471c)" style="fill: #476b85"/>
   </g>
   <g id="patch_8">
    <path d="M 92.707472 209.606312 
L 96.837017 209.606312 
L 96.837017 208.772805 
L 92.707472 208.772805 
z
" clip-path="url(#pff3aec471c)" style="fill: #476b85"/>
   </g>
   <g id="patch_9">
    <path d="M 96.837017 209.606312 
L 100.966562 209.606312 
L 100.966562 208.313526 
L 96.837017 208.313526 
z
" clip-path="url(#pff3aec471c)" style="fill: #476b85"/>
   </g>
   <g id="patch_10">
    <path d="M 100.966563 209.606312 
L 105.096108 209.606312 
L 105.096108 208.007339 
L 100.966563 208.007339 
z
" clip-path="url(#pff3aec471c)" style="fill: #476b85"/>
   </g>
   <g id="patch_11">
    <path d="M 105.096108 209.606312 
L 109.225653 209.606312 
L 109.225653 206.714552 
L 105.096108 206.714552 
z
" clip-path="url(#pff3aec471c)" style="fill: #476b85"/>
   </g>
   <g id="patch_12">
    <path d="M 109.225653 209.606312 
L 113.355199 209.606312 
L 113.355199 205.574859 
L 109.225653 205.574859 
z
" clip-path="url(#pff3aec471c)" style="fill: #476b85"/>
   </g>
   <g id="patch_13">
    <path d="M 113.355199 209.606312 
L 117.484744 209.606312 
L 117.484744 204.282072 
L 113.355199 204.282072 
z
" clip-path="url(#pff3aec471c)" style="fill: #476b85"/>
   </g>
   <g id="patch_14">
    <path d="M 117.484744 209.606312 
L 121.61429 209.606312 
L 121.61429 201.390312 
L 117.484744 201.390312 
z
" clip-path="url(#pff3aec471c)" style="fill: #476b85"/>
   </g>
   <g id="patch_15">
    <path d="M 121.61429 209.606312 
L 125.743835 209.606312 
L 125.743835 200.046494 
L 121.61429 200.046494 
z
" clip-path="url(#pff3aec471c)" style="fill: #476b85"/>
   </g>
   <g id="patch_16">
    <path d="M 125.743835 209.606312 
L 129.873381 209.606312 
L 129.873381 195.249574 
L 125.743835 195.249574 
z
" clip-path="url(#pff3aec471c)" style="fill: #476b85"/>
   </g>
   <g id="patch_17">
    <path d="M 129.873381 209.606312 
L 134.002926 209.606312 
L 134.002926 189.636157 
L 129.873381 189.636157 
z
" clip-path="url(#pff3aec471c)" style="fill: #476b85"/>
   </g>
   <g id="patch_18">
    <path d="M 134.002926 209.606312 
L 138.132472 209.606312 
L 138.132472 178.375303 
L 134.002926 178.375303 
z
" clip-path="url(#pff3aec471c)" style="fill: #476b85"/>
   </g>
   <g id="patch_19">
    <path d="M 138.132472 209.606312 
L 142.262017 209.606312 
L 142.262017 162.589695 
L 138.132472 162.589695 
z
" clip-path="url(#pff3aec471c)" style="fill: #476b85"/>
   </g>
   <g id="patch_20">
    <path d="M 142.262017 209.606312 
L 146.391562 209.606312 
L 146.391562 139.25149 
L 142.262017 139.25149 
z
" clip-path="url(#pff3aec471c)" style="fill: #476b85"/>
   </g>
   <g id="patch_21">
    <path d="M 146.391563 209.606312 
L 150.521108 209.606312 
L 150.521108 102.475106 
L 146.391563 102.475106 
z
" clip-path="url(#pff3aec471c)" style="fill: #476b85"/>
   </g>
   <g id="patch_22">
    <path d="M 150.521108 209.606312 
L 154.650653 209.606312 
L 154.650653 63.317272 
L 150.521108 63.317272 
z
" clip-path="url(#pff3aec471c)" style="fill: #476b85"/>
   </g>
   <g id="patch_23">
    <path d="M 154.650653 209.606312 
L 158.780199 209.606312 
L 158.780199 30.368217 
L 154.650653 30.368217 
z
" clip-path="url(#pff3aec471c)" style="fill: #476b85"/>
   </g>
   <g id="patch_24">
    <path d="M 158.780199 209.606312 
L 162.909744 209.606312 
L 162.909744 37.376483 
L 158.780199 37.376483 
z
" clip-path="url(#pff3aec471c)" style="fill: #476b85"/>
   </g>
   <g id="patch_25">
    <path d="M 162.909744 209.606312 
L 167.03929 209.606312 
L 167.03929 68.131202 
L 162.909744 68.131202 
z
" clip-path="url(#pff3aec471c)" style="fill: #476b85"/>
   </g>
   <g id="patch_26">
    <path d="M 167.03929 209.606312 
L 171.168835 209.606312 
L 171.168835 101.488505 
L 167.03929 101.488505 
z
" clip-path="url(#pff3aec471c)" style="fill: #476b85"/>
   </g>
   <g id="patch_27">
    <path d="M 171.168835 209.606312 
L 175.298381 209.606312 
L 175.298381 126.017435 
L 171.168835 126.017435 
z
" clip-path="url(#pff3aec471c)" style="fill: #476b85"/>
   </g>
   <g id="patch_28">
    <path d="M 175.298381 209.606312 
L 179.427926 209.606312 
L 179.427926 142.279333 
L 175.298381 142.279333 
z
" clip-path="url(#pff3aec471c)" style="fill: #476b85"/>
   </g>
   <g id="patch_29">
    <path d="M 179.427926 209.606312 
L 183.557472 209.606312 
L 183.557472 157.350506 
L 179.427926 157.350506 
z
" clip-path="url(#pff3aec471c)" style="fill: #476b85"/>
   </g>
   <g id="patch_30">
    <path d="M 183.557472 209.606312 
L 187.687017 209.606312 
L 187.687017 170.244354 
L 183.557472 170.244354 
z
" clip-path="url(#pff3aec471c)" style="fill: #476b85"/>
   </g>
   <g id="patch_31">
    <path d="M 187.687017 209.606312 
L 191.816563 209.606312 
L 191.816563 181.011908 
L 187.687017 181.011908 
z
" clip-path="url(#pff3aec471c)" style="fill: #476b85"/>
   </g>
   <g id="patch_32">
    <path d="M 191.816563 209.606312 
L 195.946108 209.606312 
L 195.946108 188.530484 
L 191.816563 188.530484 
z
" clip-path="url(#pff3aec471c)" style="fill: #476b85"/>
   </g>
   <g id="patch_33">
    <path d="M 195.946108 209.606312 
L 200.075653 209.606312 
L 200.075653 194.09287 
L 195.946108 194.09287 
z
" clip-path="url(#pff3aec471c)" style="fill: #476b85"/>
   </g>
   <g id="patch_34">
    <path d="M 200.075653 209.606312 
L 204.205199 209.606312 
L 204.205199 198.566593 
L 200.075653 198.566593 
z
" clip-path="url(#pff3aec471c)" style="fill: #476b85"/>
   </g>
   <g id="patch_35">
    <path d="M 204.205199 209.606312 
L 208.334744 209.606312 
L 208.334744 202.155778 
L 204.205199 202.155778 
z
" clip-path="url(#pff3aec471c)" style="fill: #476b85"/>
   </g>
   <g id="patch_36">
    <path d="M 208.334744 209.606312 
L 212.46429 209.606312 
L 212.46429 203.686709 
L 208.334744 203.686709 
z
" clip-path="url(#pff3aec471c)" style="fill: #476b85"/>
   </g>
   <g id="patch_37">
    <path d="M 212.46429 209.606312 
L 216.593835 209.606312 
L 216.593835 204.775372 
L 212.46429 204.775372 
z
" clip-path="url(#pff3aec471c)" style="fill: #476b85"/>
   </g>
   <g id="patch_38">
    <path d="M 216.593835 209.606312 
L 220.723381 209.606312 
L 220.723381 206.289294 
L 216.593835 206.289294 
z
" clip-path="url(#pff3aec471c)" style="fill: #476b85"/>
   </g>
   <g id="patch_39">
    <path d="M 220.723381 209.606312 
L 224.852926 209.606312 
L 224.852926 206.714552 
L 220.723381 206.714552 
z
" clip-path="url(#pff3aec471c)" style="fill: #476b85"/>
   </g>
   <g id="patch_40">
    <path d="M 224.852926 209.606312 
L 228.982472 209.606312 
L 228.982472 207.684143 
L 224.852926 207.684143 
z
" clip-path="url(#pff3aec471c)" style="fill: #476b85"/>
   </g>
   <g id="patch_41">
    <path d="M 228.982472 209.606312 
L 233.112017 209.606312 
L 233.112017 208.04136 
L 228.982472 208.04136 
z
" clip-path="url(#pff3aec471c)" style="fill: #476b85"/>
   </g>
   <g id="patch_42">
    <path d="M 233.112017 209.606312 
L 237.241562 209.606312 
L 237.241562 208.296515 
L 233.112017 208.296515 
z
" clip-path="url(#pff3aec471c)" style="fill: #476b85"/>
   </g>
   <g id="patch_43">
    <path d="M 237.241563 209.606312 
L 241.371108 209.606312 
L 241.371108 208.211464 
L 237.241563 208.211464 
z
" clip-path="url(#pff3aec471c)" style="fill: #476b85"/>
   </g>
   <g id="patch_44">
    <path d="M 241.371108 209.606312 
L 245.500653 209.606312 
L 245.500653 208.483629 
L 241.371108 208.483629 
z
" clip-path="url(#pff3aec471c)" style="fill: #476b85"/>
   </g>
   <g id="patch_45">
    <path d="M 245.500653 209.606312 
L 249.630199 209.606312 
L 249.630199 208.772805 
L 245.500653 208.772805 
z
" clip-path="url(#pff3aec471c)" style="fill: #476b85"/>
   </g>
   <g id="patch_46">
    <path d="M 249.630199 209.606312 
L 253.759744 209.606312 
L 253.759744 209.01095 
L 249.630199 209.01095 
z
" clip-path="url(#pff3aec471c)" style="fill: #476b85"/>
   </g>
   <g id="patch_47">
    <path d="M 253.759744 209.606312 
L 257.88929 209.606312 
L 257.88929 208.942909 
L 253.759744 208.942909 
z
" clip-path="url(#pff3aec471c)" style="fill: #476b85"/>
   </g>
   <g id="patch_48">
    <path d="M 257.88929 209.606312 
L 262.018835 209.606312 
L 262.018835 209.061981 
L 257.88929 209.061981 
z
" clip-path="url(#pff3aec471c)" style="fill: #476b85"/>
   </g>
   <g id="patch_49">
    <path d="M 262.018835 209.606312 
L 266.148381 209.606312 
L 266.148381 209.232085 
L 262.018835 209.232085 
z
" clip-path="url(#pff3aec471c)" style="fill: #476b85"/>
   </g>
   <g id="patch_50">
    <path d="M 266.148381 209.606312 
L 270.277926 209.606312 
L 270.277926 209.198064 
L 266.148381 209.198064 
z
" clip-path="url(#pff3aec471c)" style="fill: #476b85"/>
   </g>
   <g id="patch_51">
    <path d="M 270.277926 209.606312 
L 274.407472 209.606312 
L 274.407472 209.266105 
L 270.277926 209.266105 
z
" clip-path="url(#pff3aec471c)" style="fill: #476b85"/>
   </g>
   <g id="patch_52">
    <path d="M 274.407472 209.606312 
L 278.537017 209.606312 
L 278.537017 209.300126 
L 274.407472 209.300126 
z
" clip-path="url(#pff3aec471c)" style="fill: #476b85"/>
   </g>
   <g id="patch_53">
    <path d="M 278.537017 209.606312 
L 282.666562 209.606312 
L 282.666562 209.368168 
L 278.537017 209.368168 
z
" clip-path="url(#pff3aec471c)" style="fill: #476b85"/>
   </g>
   <g id="patch_54">
    <path d="M 282.666562 209.606312 
L 286.796108 209.606312 
L 286.796108 209.317136 
L 282.666562 209.317136 
z
" clip-path="url(#pff3aec471c)" style="fill: #476b85"/>
   </g>
   <g id="patch_55">
    <path d="M 286.796108 209.606312 
L 290.925653 209.606312 
L 290.925653 209.334147 
L 286.796108 209.334147 
z
" clip-path="url(#pff3aec471c)" style="fill: #476b85"/>
   </g>
   <g id="patch_56">
    <path d="M 290.925653 209.606312 
L 295.055199 209.606312 
L 295.055199 209.419199 
L 290.925653 209.419199 
z
" clip-path="url(#pff3aec471c)" style="fill: #476b85"/>
   </g>
   <g id="patch_57">
    <path d="M 295.055199 209.606312 
L 299.184744 209.606312 
L 299.184744 209.385178 
L 295.055199 209.385178 
z
" clip-path="url(#pff3aec471c)" style="fill: #476b85"/>
   </g>
   <g id="patch_58">
    <path d="M 299.184744 209.606312 
L 303.31429 209.606312 
L 303.31429 209.436209 
L 299.184744 209.436209 
z
" clip-path="url(#pff3aec471c)" style="fill: #476b85"/>
   </g>
   <g id="patch_59">
    <path d="M 303.31429 209.606312 
L 307.443835 209.606312 
L 307.443835 209.48724 
L 303.31429 209.48724 
z
" clip-path="url(#pff3aec471c)" style="fill: #476b85"/>
   </g>
   <g id="patch_60">
    <path d="M 307.443835 209.606312 
L 311.573381 209.606312 
L 311.573381 209.47023 
L 307.443835 209.47023 
z
" clip-path="url(#pff3aec471c)" style="fill: #476b85"/>
   </g>
   <g id="patch_61">
    <path d="M 311.573381 209.606312 
L 315.702926 209.606312 
L 315.702926 209.47023 
L 311.573381 209.47023 
z
" clip-path="url(#pff3aec471c)" style="fill: #476b85"/>
   </g>
   <g id="patch_62">
    <path d="M 315.702926 209.606312 
L 319.832472 209.606312 
L 319.832472 209.402188 
L 315.702926 209.402188 
z
" clip-path="url(#pff3aec471c)" style="fill: #476b85"/>
   </g>
   <g id="patch_63">
    <path d="M 319.832472 209.606312 
L 323.962017 209.606312 
L 323.962017 209.453219 
L 319.832472 209.453219 
z
" clip-path="url(#pff3aec471c)" style="fill: #476b85"/>
   </g>
   <g id="patch_64">
    <path d="M 323.962017 209.606312 
L 328.091563 209.606312 
L 328.091563 209.538271 
L 323.962017 209.538271 
z
" clip-path="url(#pff3aec471c)" style="fill: #476b85"/>
   </g>
   <g id="patch_65">
    <path d="M 328.091563 209.606312 
L 332.221108 209.606312 
L 332.221108 209.572292 
L 328.091563 209.572292 
z
" clip-path="url(#pff3aec471c)" style="fill: #476b85"/>
   </g>
   <g id="patch_66">
    <path d="M 332.221108 209.606312 
L 336.350653 209.606312 
L 336.350653 209.555281 
L 332.221108 209.555281 
z
" clip-path="url(#pff3aec471c)" style="fill: #476b85"/>
   </g>
   <g id="patch_67">
    <path d="M 336.350653 209.606312 
L 340.480199 209.606312 
L 340.480199 209.521261 
L 336.350653 209.521261 
z
" clip-path="url(#pff3aec471c)" style="fill: #476b85"/>
   </g>
   <g id="patch_68">
    <path d="M 340.480199 209.606312 
L 344.609744 209.606312 
L 344.609744 209.50425 
L 340.480199 209.50425 
z
" clip-path="url(#pff3aec471c)" style="fill: #476b85"/>
   </g>
   <g id="patch_69">
    <path d="M 344.609744 209.606312 
L 348.73929 209.606312 
L 348.73929 209.555281 
L 344.609744 209.555281 
z
" clip-path="url(#pff3aec471c)" style="fill: #476b85"/>
   </g>
   <g id="patch_70">
    <path d="M 348.73929 209.606312 
L 352.868835 209.606312 
L 352.868835 209.538271 
L 348.73929 209.538271 
z
" clip-path="url(#pff3aec471c)" style="fill: #476b85"/>
   </g>
   <g id="patch_71">
    <path d="M 352.868835 209.606312 
L 356.998381 209.606312 
L 356.998381 209.572292 
L 352.868835 209.572292 
z
" clip-path="url(#pff3aec471c)" style="fill: #476b85"/>
   </g>
   <g id="patch_72">
    <path d="M 356.998381 209.606312 
L 361.127926 209.606312 
L 361.127926 209.555281 
L 356.998381 209.555281 
z
" clip-path="url(#pff3aec471c)" style="fill: #476b85"/>
   </g>
   <g id="patch_73">
    <path d="M 361.127926 209.606312 
L 365.257472 209.606312 
L 365.257472 209.572292 
L 361.127926 209.572292 
z
" clip-path="url(#pff3aec471c)" style="fill: #476b85"/>
   </g>
   <g id="patch_74">
    <path d="M 365.257472 209.606312 
L 369.387017 209.606312 
L 369.387017 209.555281 
L 365.257472 209.555281 
z
" clip-path="url(#pff3aec471c)" style="fill: #476b85"/>
   </g>
   <g id="patch_75">
    <path d="M 369.387017 209.606312 
L 373.516563 209.606312 
L 373.516563 209.555281 
L 369.387017 209.555281 
z
" clip-path="url(#pff3aec471c)" style="fill: #476b85"/>
   </g>
   <g id="patch_76">
    <path d="M 373.516563 209.606312 
L 377.646108 209.606312 
L 377.646108 209.572292 
L 373.516563 209.572292 
z
" clip-path="url(#pff3aec471c)" style="fill: #476b85"/>
   </g>
   <g id="patch_77">
    <path d="M 377.646108 209.606312 
L 381.775653 209.606312 
L 381.775653 209.521261 
L 377.646108 209.521261 
z
" clip-path="url(#pff3aec471c)" style="fill: #476b85"/>
   </g>
   <g id="patch_78">
    <path d="M 381.775653 209.606312 
L 385.905199 209.606312 
L 385.905199 209.589302 
L 381.775653 209.589302 
z
" clip-path="url(#pff3aec471c)" style="fill: #476b85"/>
   </g>
   <g id="patch_79">
    <path d="M 385.905199 209.606312 
L 390.034744 209.606312 
L 390.034744 209.555281 
L 385.905199 209.555281 
z
" clip-path="url(#pff3aec471c)" style="fill: #476b85"/>
   </g>
   <g id="patch_80">
    <path d="M 390.034744 209.606312 
L 394.16429 209.606312 
L 394.16429 209.572292 
L 390.034744 209.572292 
z
" clip-path="url(#pff3aec471c)" style="fill: #476b85"/>
   </g>
   <g id="patch_81">
    <path d="M 394.16429 209.606312 
L 398.293835 209.606312 
L 398.293835 209.555281 
L 394.16429 209.555281 
z
" clip-path="url(#pff3aec471c)" style="fill: #476b85"/>
   </g>
   <g id="patch_82">
    <path d="M 398.293835 209.606312 
L 402.423381 209.606312 
L 402.423381 209.589302 
L 398.293835 209.589302 
z
" clip-path="url(#pff3aec471c)" style="fill: #476b85"/>
   </g>
   <g id="matplotlib.axis_1">
    <g id="xtick_1">
     <g id="line2d_1">
      <defs>
       <path id="m046326558c" d="M 0 0 
L 0 3.5 
" style="stroke: #000000; stroke-width: 0.8"/>
      </defs>
      <g>
       <use xlink:href="#m046326558c" x="84.707781" y="209.606312" style="stroke: #000000; stroke-width: 0.8"/>
      </g>
     </g>
     <g id="text_1">
      <text style="font: 9px 'DejaVu Sans', 'Bitstream Vera Sans', 'Computer Modern Sans Serif', 'Lucida Grande', 'Verdana', 'Geneva', 'Lucid', 'Arial', 'Helvetica', 'Avant Garde', sans-serif; text-anchor: middle" x="84.707781" y="223.444906" transform="rotate(-0 84.707781 223.444906)">−100</text>
     </g>
    </g>
    <g id="xtick_2">
     <g id="line2d_2">
      <g>
       <use xlink:href="#m046326558c" x="162.308639" y="209.606312" style="stroke: #000000; stroke-width: 0.8"/>
      </g>
     </g>
     <g id="text_2">
      <text style="font: 9px 'DejaVu Sans', 'Bitstream Vera Sans', 'Computer Modern Sans Serif', 'Lucida Grande', 'Verdana', 'Geneva', 'Lucid', 'Arial', 'Helvetica', 'Avant Garde', sans-serif; text-anchor: middle" x="162.308639" y="223.444906" transform="rotate(-0 162.308639 223.444906)">0</text>
     </g>
    </g>
    <g id="xtick_3">
     <g id="line2d_3">
      <g>
       <use xlink:href="#m046326558c" x="239.909498" y="209.606312" style="stroke: #000000; stroke-width: 0.8"/>
      </g>
     </g>
     <g id="text_3">
      <text style="font: 9px 'DejaVu Sans', 'Bitstream Vera Sans', 'Computer Modern Sans Serif', 'Lucida Grande', 'Verdana', 'Geneva', 'Lucid', 'Arial', 'Helvetica', 'Avant Garde', sans-serif; text-anchor: middle" x="239.909498" y="223.444906" transform="rotate(-0 239.909498 223.444906)">100</text>
     </g>
    </g>
    <g id="xtick_4">
     <g id="line2d_4">
      <g>
       <use xlink:href="#m046326558c" x="317.510356" y="209.606312" style="stroke: #000000; stroke-width: 0.8"/>
      </g>
     </g>
     <g id="text_4">
      <text style="font: 9px 'DejaVu Sans', 'Bitstream Vera Sans', 'Computer Modern Sans Serif', 'Lucida Grande', 'Verdana', 'Geneva', 'Lucid', 'Arial', 'Helvetica', 'Avant Garde', sans-serif; text-anchor: middle" x="317.510356" y="223.444906" transform="rotate(-0 317.510356 223.444906)">200</text>
     </g>
    </g>
    <g id="xtick_5">
     <g id="line2d_5">
      <g>
       <use xlink:href="#m046326558c" x="395.111214" y="209.606312" style="stroke: #000000; stroke-width: 0.8"/>
      </g>
     </g>
     <g id="text_5">
      <text style="font: 9px 'DejaVu Sans', 'Bitstream Vera Sans', 'Computer Modern Sans Serif', 'Lucida Grande', 'Verdana', 'Geneva', 'Lucid', 'Arial', 'Helvetica', 'Avant Garde', sans-serif; text-anchor: middle" x="395.111214" y="223.444906" transform="rotate(-0 395.111214 223.444906)">300</text>
     </g>
    </g>
    <g id="text_6">
     <text style="font: 9px 'DejaVu Sans', 'Bitstream Vera Sans', 'Computer Modern Sans Serif', 'Lucida Grande', 'Verdana', 'Geneva', 'Lucid', 'Arial', 'Helvetica', 'Avant Garde', sans-serif; text-anchor: middle" x="237.241563" y="236.155219" transform="rotate(-0 237.241563 236.155219)">Descriptive mean condition difference</text>
    </g>
   </g>
   <g id="matplotlib.axis_2">
    <g id="ytick_1">
     <g id="line2d_6">
      <defs>
       <path id="m8206e618bc" d="M 0 0 
L -3.5 0 
" style="stroke: #000000; stroke-width: 0.8"/>
      </defs>
      <g>
       <use xlink:href="#m8206e618bc" x="55.541562" y="209.606312" style="stroke: #000000; stroke-width: 0.8"/>
      </g>
     </g>
     <g id="text_7">
      <text style="font: 9px 'DejaVu Sans', 'Bitstream Vera Sans', 'Computer Modern Sans Serif', 'Lucida Grande', 'Verdana', 'Geneva', 'Lucid', 'Arial', 'Helvetica', 'Avant Garde', sans-serif; text-anchor: end" x="48.541562" y="213.025609" transform="rotate(-0 48.541562 213.025609)">0</text>
     </g>
    </g>
    <g id="ytick_2">
     <g id="line2d_7">
      <g>
       <use xlink:href="#m8206e618bc" x="55.541562" y="175.585605" style="stroke: #000000; stroke-width: 0.8"/>
      </g>
     </g>
     <g id="text_8">
      <text style="font: 9px 'DejaVu Sans', 'Bitstream Vera Sans', 'Computer Modern Sans Serif', 'Lucida Grande', 'Verdana', 'Geneva', 'Lucid', 'Arial', 'Helvetica', 'Avant Garde', sans-serif; text-anchor: end" x="48.541562" y="179.004902" transform="rotate(-0 48.541562 179.004902)">2000</text>
     </g>
    </g>
    <g id="ytick_3">
     <g id="line2d_8">
      <g>
       <use xlink:href="#m8206e618bc" x="55.541562" y="141.564898" style="stroke: #000000; stroke-width: 0.8"/>
      </g>
     </g>
     <g id="text_9">
      <text style="font: 9px 'DejaVu Sans', 'Bitstream Vera Sans', 'Computer Modern Sans Serif', 'Lucida Grande', 'Verdana', 'Geneva', 'Lucid', 'Arial', 'Helvetica', 'Avant Garde', sans-serif; text-anchor: end" x="48.541562" y="144.984195" transform="rotate(-0 48.541562 144.984195)">4000</text>
     </g>
    </g>
    <g id="ytick_4">
     <g id="line2d_9">
      <g>
       <use xlink:href="#m8206e618bc" x="55.541562" y="107.544191" style="stroke: #000000; stroke-width: 0.8"/>
      </g>
     </g>
     <g id="text_10">
      <text style="font: 9px 'DejaVu Sans', 'Bitstream Vera Sans', 'Computer Modern Sans Serif', 'Lucida Grande', 'Verdana', 'Geneva', 'Lucid', 'Arial', 'Helvetica', 'Avant Garde', sans-serif; text-anchor: end" x="48.541562" y="110.963488" transform="rotate(-0 48.541562 110.963488)">6000</text>
     </g>
    </g>
    <g id="ytick_5">
     <g id="line2d_10">
      <g>
       <use xlink:href="#m8206e618bc" x="55.541562" y="73.523484" style="stroke: #000000; stroke-width: 0.8"/>
      </g>
     </g>
     <g id="text_11">
      <text style="font: 9px 'DejaVu Sans', 'Bitstream Vera Sans', 'Computer Modern Sans Serif', 'Lucida Grande', 'Verdana', 'Geneva', 'Lucid', 'Arial', 'Helvetica', 'Avant Garde', sans-serif; text-anchor: end" x="48.541562" y="76.942781" transform="rotate(-0 48.541562 76.942781)">8000</text>
     </g>
    </g>
    <g id="ytick_6">
     <g id="line2d_11">
      <g>
       <use xlink:href="#m8206e618bc" x="55.541562" y="39.502777" style="stroke: #000000; stroke-width: 0.8"/>
      </g>
     </g>
     <g id="text_12">
      <text style="font: 9px 'DejaVu Sans', 'Bitstream Vera Sans', 'Computer Modern Sans Serif', 'Lucida Grande', 'Verdana', 'Geneva', 'Lucid', 'Arial', 'Helvetica', 'Avant Garde', sans-serif; text-anchor: end" x="48.541562" y="42.922074" transform="rotate(-0 48.541562 42.922074)">10000</text>
     </g>
    </g>
    <g id="text_13">
     <text style="font: 9px 'DejaVu Sans', 'Bitstream Vera Sans', 'Computer Modern Sans Serif', 'Lucida Grande', 'Verdana', 'Geneva', 'Lucid', 'Arial', 'Helvetica', 'Avant Garde', sans-serif; text-anchor: middle" x="14.038594" y="115.506312" transform="rotate(-90 14.038594 115.506312)">Voxels</text>
    </g>
   </g>
   <g id="line2d_12">
    <path d="M 162.308639 209.606312 
L 162.308639 21.406312 
" clip-path="url(#pff3aec471c)" style="fill: none; stroke: #000000; stroke-width: 0.8; stroke-linecap: square"/>
   </g>
   <g id="patch_83">
    <path d="M 55.541562 209.606312 
L 55.541562 21.406312 
" style="fill: none; stroke: #000000; stroke-width: 0.8; stroke-linejoin: miter; stroke-linecap: square"/>
   </g>
   <g id="patch_84">
    <path d="M 55.541562 209.606312 
L 418.941563 209.606312 
" style="fill: none; stroke: #000000; stroke-width: 0.8; stroke-linejoin: miter; stroke-linecap: square"/>
   </g>
   <g id="text_14">
    <text style="font: 10.8px 'DejaVu Sans', 'Bitstream Vera Sans', 'Computer Modern Sans Serif', 'Lucida Grande', 'Verdana', 'Geneva', 'Lucid', 'Arial', 'Helvetica', 'Avant Garde', sans-serif; text-anchor: middle" x="237.241563" y="15.406312" transform="rotate(-0 237.241563 15.406312)">Social context — Positive → SOCIAL; negative → NONSOCIAL</text>
   </g>
  </g>
 </g>
 <defs>
  <clipPath id="pff3aec471c">
   <rect x="55.541562" y="21.406312" width="363.4" height="188.2"/>
  </clipPath>
 </defs>
</svg>
